<svg width="49" height="18" viewBox="0 0 49 18" fill="none" xmlns="http://www.w3.org/2000/svg">
<rect width="49" height="18" rx="2" fill="#C5322A"/>
<path d="M4.68359 12H8.37109V11.0273H5.86328V6.36328H4.68359V12ZM9.44141 12H10.6211V6.36328H9.44141V12ZM13.4648 12H14.918L16.7969 6.36328H15.4688L14.2266 10.6875H14.1562L12.9102 6.36328H11.5859L13.4648 12ZM17.7617 12H21.4961V11.0273H18.9414V9.60156H21.3516V8.69531H18.9414V7.33594H21.4961V6.36328H17.7617V12ZM24.8008 12H25.9297V8.39453H25.9922L28.6016 12H29.5781V6.36328H28.4492V9.95312H28.3867L25.7852 6.36328H24.8008V12ZM33.4141 12.1445C35.0781 12.1445 36.125 11.0039 36.125 9.18359V9.17578C36.125 7.35547 35.0742 6.21875 33.4141 6.21875C31.7539 6.21875 30.6992 7.35156 30.6992 9.17578V9.18359C30.6992 11.0039 31.7383 12.1445 33.4141 12.1445ZM33.4141 11.1445C32.4844 11.1445 31.9023 10.375 31.9023 9.18359V9.17578C31.9023 7.98047 32.4961 7.21875 33.4141 7.21875C34.3281 7.21875 34.9219 7.98047 34.9219 9.17578V9.18359C34.9219 10.375 34.332 11.1445 33.4141 11.1445ZM38.2031 12H39.3164L40.3711 8.20312H40.4336L41.5 12H42.6055L44.1016 6.36328H42.8828L42.0117 10.3906H41.9492L40.9023 6.36328H39.9062L38.8789 10.3906H38.8164L37.9375 6.36328H36.7109L38.2031 12Z" fill="white"/>
</svg>
