<svg width="352" height="41" viewBox="0 0 352 41" fill="none" xmlns="http://www.w3.org/2000/svg">
<path d="M0 3C0 1.34315 1.34315 0 3 0H349C350.657 0 352 1.34315 352 3V38C352 39.6569 350.657 41 349 41H3.00001C1.34315 41 0 39.6569 0 38V3Z" fill="#1B1B1B"/>
<path d="M96.3508 21.1566C96.3792 24.3346 99.0304 25.3922 99.0598 25.4056C99.0374 25.4802 98.6362 26.9128 97.663 28.3925C96.8217 29.6717 95.9486 30.9463 94.5732 30.9727C93.2217 30.9986 92.7871 30.1389 91.242 30.1389C89.6973 30.1389 89.2145 30.9463 87.9352 30.9986C86.6075 31.0509 85.5966 29.6153 84.7483 28.3407C83.015 25.7335 81.6904 20.9733 83.469 17.7601C84.3526 16.1645 85.9316 15.154 87.6455 15.1281C88.9492 15.1022 90.1797 16.0406 90.9767 16.0406C91.7731 16.0406 93.2685 14.9121 94.8405 15.0779C95.4986 15.1064 97.3459 15.3544 98.5321 17.1609C98.4365 17.2226 96.3279 18.4997 96.3508 21.1566V21.1566ZM93.8109 13.353C94.5157 12.4653 94.9901 11.2295 94.8607 10C93.8447 10.0425 92.6162 10.7044 91.8874 11.5916C91.2343 12.3772 90.6624 13.6347 90.8167 14.8399C91.9491 14.9311 93.106 14.2412 93.8109 13.353" fill="white"/>
<path d="M115.156 26.2891C117.875 26.2891 119.805 24.6797 120.047 22.3203L120.055 22.2344H117.758L117.742 22.2969C117.492 23.5 116.516 24.2891 115.164 24.2891C113.383 24.2891 112.281 22.7891 112.281 20.3672V20.3516C112.281 17.9297 113.383 16.4375 115.156 16.4375C116.5 16.4375 117.508 17.2969 117.75 18.5625V18.6172H120.047V18.5234C119.828 16.1406 117.828 14.4375 115.156 14.4375C111.883 14.4375 109.867 16.6953 109.867 20.3516V20.3672C109.867 24.0234 111.891 26.2891 115.156 26.2891ZM125.82 26.1797C128.469 26.1797 130.062 24.5078 130.062 21.7031V21.6875C130.062 18.9062 128.445 17.2109 125.82 17.2109C123.195 17.2109 121.578 18.9141 121.578 21.6875V21.7031C121.578 24.5 123.172 26.1797 125.82 26.1797ZM125.82 24.3906C124.602 24.3906 123.914 23.3984 123.914 21.7031V21.6875C123.914 20.0078 124.609 19 125.82 19C127.023 19 127.727 20.0078 127.727 21.6875V21.7031C127.727 23.3984 127.031 24.3906 125.82 24.3906ZM131.922 26H134.203V21.0234C134.203 19.8594 134.844 19.1016 135.898 19.1016C136.977 19.1016 137.477 19.7422 137.477 20.9531V26H139.758V20.4375C139.758 18.3828 138.727 17.2109 136.812 17.2109C135.586 17.2109 134.734 17.7969 134.344 18.7266H134.203V17.3984H131.922V26ZM145.539 26.0312C145.977 26.0312 146.398 25.9844 146.68 25.9297V24.2344C146.461 24.2578 146.305 24.2734 146.008 24.2734C145.234 24.2734 144.906 23.9297 144.906 23.1562V19.1172H146.68V17.3984H144.906V15.3438H142.602V17.3984H141.273V19.1172H142.602V23.6797C142.602 25.3516 143.445 26.0312 145.539 26.0312ZM149.742 16.0781C150.445 16.0781 151.023 15.5156 151.023 14.8125C151.023 14.1016 150.445 13.5391 149.742 13.5391C149.039 13.5391 148.453 14.1016 148.453 14.8125C148.453 15.5156 149.039 16.0781 149.742 16.0781ZM148.594 26H150.875V17.3984H148.594V26ZM153.172 26H155.453V21.0234C155.453 19.8594 156.094 19.1016 157.148 19.1016C158.227 19.1016 158.727 19.7422 158.727 20.9531V26H161.008V20.4375C161.008 18.3828 159.977 17.2109 158.062 17.2109C156.836 17.2109 155.984 17.7969 155.594 18.7266H155.453V17.3984H153.172V26ZM166.062 26.1797C167.289 26.1797 168.164 25.6094 168.555 24.6719H168.695V26H170.977V17.3984H168.695V22.3672C168.695 23.5312 168.086 24.2891 166.961 24.2891C165.883 24.2891 165.422 23.6562 165.422 22.4375V17.3984H163.141V22.9609C163.141 25.0078 164.133 26.1797 166.062 26.1797ZM177.047 26.1797C179.562 26.1797 180.672 24.7266 180.938 23.6484L180.953 23.5703H178.828L178.805 23.6172C178.648 23.9453 178.094 24.4766 177.094 24.4766C175.883 24.4766 175.125 23.6562 175.102 22.2422H181.023V21.5312C181.023 18.9297 179.461 17.2109 176.953 17.2109C174.445 17.2109 172.844 18.9688 172.844 21.7031V21.7109C172.844 24.4688 174.43 26.1797 177.047 26.1797ZM176.992 18.9219C177.984 18.9219 178.695 19.5625 178.836 20.8125H175.125C175.266 19.5938 176 18.9219 176.992 18.9219ZM188.648 26H191.039L192.562 20H192.703L194.242 26H196.664L198.953 17.3984H196.695L195.414 23.625H195.273L193.758 17.3984H191.586L190.078 23.625H189.938L188.656 17.3984H186.352L188.648 26ZM201.742 16.0781C202.445 16.0781 203.023 15.5156 203.023 14.8125C203.023 14.1016 202.445 13.5391 201.742 13.5391C201.039 13.5391 200.453 14.1016 200.453 14.8125C200.453 15.5156 201.039 16.0781 201.742 16.0781ZM200.594 26H202.875V17.3984H200.594V26ZM208.742 26.0312C209.18 26.0312 209.602 25.9844 209.883 25.9297V24.2344C209.664 24.2578 209.508 24.2734 209.211 24.2734C208.438 24.2734 208.109 23.9297 208.109 23.1562V19.1172H209.883V17.3984H208.109V15.3438H205.805V17.3984H204.477V19.1172H205.805V23.6797C205.805 25.3516 206.648 26.0312 208.742 26.0312ZM211.859 26H214.141V21.0234C214.141 19.8594 214.781 19.1016 215.836 19.1016C216.914 19.1016 217.414 19.7422 217.414 20.9531V26H219.695V20.4375C219.695 18.3828 218.664 17.2109 216.75 17.2109C215.523 17.2109 214.672 17.7969 214.281 18.7266H214.141V14.1094H211.859V26ZM225.453 26H227.93L228.766 23.2656H232.742L233.578 26H236.062L232.141 14.7266H229.367L225.453 26ZM230.688 16.9766H230.828L232.203 21.5H229.305L230.688 16.9766ZM237.75 28.8516H240.031V24.625H240.172C240.609 25.5625 241.57 26.1328 242.75 26.1328C244.93 26.1328 246.242 24.4688 246.242 21.7031V21.6875C246.242 18.9453 244.898 17.2578 242.75 17.2578C241.531 17.2578 240.617 17.8047 240.172 18.7266H240.031V17.3984H237.75V28.8516ZM241.969 24.2422C240.773 24.2422 240.008 23.2812 240.008 21.7031V21.6875C240.008 20.1094 240.766 19.1484 241.969 19.1484C243.18 19.1484 243.922 20.1094 243.922 21.6875V21.7031C243.922 23.2812 243.172 24.2422 241.969 24.2422ZM248.109 28.8516H250.391V24.625H250.531C250.969 25.5625 251.93 26.1328 253.109 26.1328C255.289 26.1328 256.602 24.4688 256.602 21.7031V21.6875C256.602 18.9453 255.258 17.2578 253.109 17.2578C251.891 17.2578 250.977 17.8047 250.531 18.7266H250.391V17.3984H248.109V28.8516ZM252.328 24.2422C251.133 24.2422 250.367 23.2812 250.367 21.7031V21.6875C250.367 20.1094 251.125 19.1484 252.328 19.1484C253.539 19.1484 254.281 20.1094 254.281 21.6875V21.7031C254.281 23.2812 253.531 24.2422 252.328 24.2422ZM258.547 26H260.828V14.1094H258.547V26ZM266.969 26.1797C269.484 26.1797 270.594 24.7266 270.859 23.6484L270.875 23.5703H268.75L268.727 23.6172C268.57 23.9453 268.016 24.4766 267.016 24.4766C265.805 24.4766 265.047 23.6562 265.023 22.2422H270.945V21.5312C270.945 18.9297 269.383 17.2109 266.875 17.2109C264.367 17.2109 262.766 18.9688 262.766 21.7031V21.7109C262.766 24.4688 264.352 26.1797 266.969 26.1797ZM266.914 18.9219C267.906 18.9219 268.617 19.5625 268.758 20.8125H265.047C265.188 19.5938 265.922 18.9219 266.914 18.9219Z" fill="white"/>
</svg>
