<svg width="14" height="14" viewBox="0 0 14 14" fill="none" xmlns="http://www.w3.org/2000/svg">
<path d="M12.6593 6.17086H3.35101L7.41768 2.1042C7.74268 1.7792 7.74268 1.24586 7.41768 0.920862C7.26199 0.764818 7.05061 0.677124 6.83018 0.677124C6.60975 0.677124 6.39837 0.764818 6.24268 0.920862L0.751013 6.41253C0.426013 6.73753 0.426013 7.26253 0.751013 7.58753L6.24268 13.0792C6.56768 13.4042 7.09268 13.4042 7.41768 13.0792C7.74268 12.7542 7.74268 12.2292 7.41768 11.9042L3.35101 7.83753H12.6593C13.1177 7.83753 13.4927 7.46253 13.4927 7.00419C13.4927 6.54586 13.1177 6.17086 12.6593 6.17086Z" fill="#080E2F"/>
</svg>
