<svg width="14" height="18" viewBox="0 0 14 18" fill="none" xmlns="http://www.w3.org/2000/svg">
<path fill-rule="evenodd" clip-rule="evenodd" d="M12.001 7.95833V12.125L13.076 13.2C13.601 13.725 13.226 14.625 12.4844 14.625H1.50935C0.767686 14.625 0.401019 13.725 0.926019 13.2L2.00102 12.125V7.95833C2.00102 5.39167 3.35935 3.25833 5.75102 2.69167V2.125C5.75102 1.43333 6.30935 0.875 7.00102 0.875C7.69269 0.875 8.25102 1.43333 8.25102 2.125V2.69167C10.6344 3.25833 12.001 5.4 12.001 7.95833ZM8.66769 15.4583C8.66769 16.375 7.91769 17.125 7.00103 17.125C6.07603 17.125 5.33436 16.375 5.33436 15.4583H8.66769Z" fill="#1B1B1B" fill-opacity="0.6"/>
</svg>
