<svg width="16" height="20" viewBox="0 0 16 20" fill="none" xmlns="http://www.w3.org/2000/svg">
<path fill-rule="evenodd" clip-rule="evenodd" d="M15.2905 15.04L14.0005 13.75V8.75C14.0005 5.68 12.3605 3.11 9.50054 2.43V1.75C9.50054 0.92 8.83054 0.25 8.00054 0.25C7.17054 0.25 6.50054 0.92 6.50054 1.75V2.43C3.63054 3.11 2.00054 5.67 2.00054 8.75V13.75L0.71054 15.04C0.0805397 15.67 0.52054 16.75 1.41054 16.75H14.5805C15.4805 16.75 15.9205 15.67 15.2905 15.04ZM4.00054 14.75V8.75C4.00054 6.27 5.51054 4.25 8.00054 4.25C10.4905 4.25 12.0005 6.27 12.0005 8.75V14.75H4.00054ZM10.0005 17.75C10.0005 18.85 9.10054 19.75 8.00054 19.75C6.89054 19.75 6.00054 18.85 6.00054 17.75H10.0005Z" fill="white"/>
</svg>
