<svg width="79" height="21" viewBox="0 0 79 21" fill="none" xmlns="http://www.w3.org/2000/svg">
<path d="M1.4375 16H5.83594C8.23438 16 9.65625 14.8203 9.65625 12.8438V12.8281C9.65625 11.3438 8.67969 10.2891 7.14062 10.0938V9.96875C8.22656 9.77344 9.08594 8.71094 9.08594 7.54688V7.53125C9.08594 5.8125 7.82031 4.72656 5.75 4.72656H1.4375V16ZM5.45312 5.96875C6.85156 5.96875 7.66406 6.63281 7.66406 7.77344V7.78906C7.66406 8.97656 6.79688 9.58594 5.09375 9.58594H2.84375V5.96875H5.45312ZM5.49219 10.7969C7.28906 10.7969 8.21094 11.4609 8.21094 12.7578V12.7734C8.21094 14.0703 7.32031 14.7578 5.625 14.7578H2.84375V10.7969H5.49219ZM11.7812 16H13.1406V10.7812C13.1406 9.54688 14.0625 8.72656 15.3594 8.72656C15.6562 8.72656 15.9141 8.75781 16.1953 8.80469V7.48438C16.0625 7.46094 15.7734 7.42969 15.5156 7.42969C14.375 7.42969 13.5859 7.94531 13.2656 8.82812H13.1406V7.57812H11.7812V16ZM21.1016 16.1484C23.5 16.1484 24.9844 14.4922 24.9844 11.7969V11.7812C24.9844 9.07812 23.5 7.42969 21.1016 7.42969C18.7031 7.42969 17.2188 9.07812 17.2188 11.7812V11.7969C17.2188 14.4922 18.7031 16.1484 21.1016 16.1484ZM21.1016 14.9453C19.5078 14.9453 18.6094 13.7812 18.6094 11.7969V11.7812C18.6094 9.78906 19.5078 8.63281 21.1016 8.63281C22.6953 8.63281 23.5938 9.78906 23.5938 11.7812V11.7969C23.5938 13.7812 22.6953 14.9453 21.1016 14.9453ZM28.4062 16H29.7656L31.6406 9.48438H31.7656L33.6484 16H35.0156L37.375 7.57812H36.0234L34.3672 14.3125H34.2422L32.3594 7.57812H31.0703L29.1875 14.3125H29.0625L27.4062 7.57812H26.0469L28.4062 16ZM41.8281 16.1484C43.7422 16.1484 45.2031 15.1094 45.2031 13.6094V13.5938C45.2031 12.3906 44.4375 11.7031 42.8516 11.3203L41.5547 11.0078C40.5625 10.7656 40.1406 10.4062 40.1406 9.83594V9.82031C40.1406 9.07812 40.875 8.5625 41.875 8.5625C42.8906 8.5625 43.5469 9.02344 43.7266 9.6875H45.0625C44.875 8.3125 43.6484 7.42969 41.8828 7.42969C40.0938 7.42969 38.75 8.48438 38.75 9.88281V9.89062C38.75 11.1016 39.4609 11.7891 41.0391 12.1641L42.3438 12.4766C43.3828 12.7266 43.8125 13.125 43.8125 13.6953V13.7109C43.8125 14.4766 43.0078 15.0156 41.875 15.0156C40.7969 15.0156 40.125 14.5547 39.8984 13.8516H38.5078C38.6641 15.2422 39.9531 16.1484 41.8281 16.1484ZM50.75 16.1484C52.7344 16.1484 53.9375 15.0234 54.2266 13.8828L54.2422 13.8203H52.8828L52.8516 13.8906C52.625 14.3984 51.9219 14.9375 50.7812 14.9375C49.2812 14.9375 48.3203 13.9219 48.2812 12.1797H54.3438V11.6484C54.3438 9.13281 52.9531 7.42969 50.6641 7.42969C48.375 7.42969 46.8906 9.21094 46.8906 11.8125V11.8203C46.8906 14.4609 48.3438 16.1484 50.75 16.1484ZM50.6562 8.64062C51.8984 8.64062 52.8203 9.42969 52.9609 11.0938H48.3047C48.4531 9.49219 49.4062 8.64062 50.6562 8.64062Z" fill="white"/>
<path d="M71.8905 7.87494L68.4955 11.2699L65.1005 7.87494C64.937 7.7111 64.7151 7.61902 64.4837 7.61902C64.2522 7.61902 64.0303 7.7111 63.8668 7.87494C63.5255 8.21619 63.5255 8.76744 63.8668 9.10869L67.883 13.1249C68.2243 13.4662 68.7755 13.4662 69.1168 13.1249L73.133 9.10869C73.4743 8.76744 73.4743 8.21619 73.133 7.87494C72.7918 7.54244 72.2318 7.53369 71.8905 7.87494Z" fill="white"/>
</svg>
