<svg width="338" height="50" viewBox="0 0 338 50" fill="none" xmlns="http://www.w3.org/2000/svg">
<path d="M0 3C0 1.34315 1.34315 0 3 0H335C336.657 0 338 1.34315 338 3V47C338 48.6569 336.657 50 335 50H3C1.34314 50 0 48.6569 0 47V3Z" fill="#C5322A"/>
<path d="M157.537 32H151.209V17.9082H157.371C158.732 17.9082 159.799 18.2207 160.574 18.8457C161.349 19.4707 161.736 20.3301 161.736 21.4238C161.736 22.1725 161.492 22.8333 161.004 23.4062C160.516 23.9792 159.91 24.321 159.188 24.4316V24.6074C160.118 24.679 160.887 25.0306 161.492 25.6621C162.104 26.2936 162.41 27.0618 162.41 27.9668C162.41 29.2038 161.974 30.1868 161.102 30.916C160.229 31.6387 159.041 32 157.537 32ZM154.158 20.1641V23.748H156.375C157.169 23.748 157.778 23.5918 158.201 23.2793C158.624 22.9668 158.836 22.5273 158.836 21.9609C158.836 21.3945 158.641 20.9551 158.25 20.6426C157.866 20.3236 157.322 20.1641 156.619 20.1641H154.158ZM154.158 29.7441H156.785C157.632 29.7441 158.279 29.5716 158.729 29.2266C159.178 28.875 159.402 28.3704 159.402 27.7129C159.402 27.0684 159.171 26.5801 158.709 26.248C158.253 25.9095 157.589 25.7402 156.717 25.7402H154.158V29.7441ZM174.539 21.2285V32H171.785V30.2715H171.609C171.076 31.5801 170.027 32.2344 168.465 32.2344C167.299 32.2344 166.378 31.8828 165.701 31.1797C165.031 30.4701 164.695 29.4935 164.695 28.25V21.2285H167.537V27.5176C167.537 29.015 168.198 29.7637 169.52 29.7637C170.216 29.7637 170.753 29.5586 171.131 29.1484C171.508 28.7383 171.697 28.1686 171.697 27.4395V21.2285H174.539ZM178.729 35.916C178.123 35.916 177.762 35.9062 177.645 35.8867V33.6016C177.71 33.6146 177.924 33.6211 178.289 33.6211C178.829 33.6211 179.253 33.5267 179.559 33.3379C179.865 33.1556 180.076 32.8626 180.193 32.459L180.291 32.0684L176.512 21.2285H179.646L181.912 29.3926H182.088L184.354 21.2285H187.361L183.65 32.166C183.195 33.5462 182.596 34.5163 181.854 35.0762C181.118 35.6361 180.076 35.916 178.729 35.916Z" fill="white"/>
</svg>
