<svg width="85" height="32" viewBox="0 0 85 32" fill="none" xmlns="http://www.w3.org/2000/svg">
<rect width="85" height="32" rx="3" fill="#C5322A"/>
<path d="M20.8223 20C22.627 20 23.7461 19.0684 23.7461 17.5801C23.7461 16.4902 22.9316 15.6523 21.8125 15.5645V15.459C22.6797 15.3301 23.3418 14.5508 23.3418 13.6543C23.3418 12.3477 22.3633 11.5449 20.7227 11.5449H17.0254V20H20.8223ZM18.7949 12.8574H20.2715C21.1152 12.8574 21.6016 13.2676 21.6016 13.959C21.6016 14.6621 21.0801 15.0605 20.125 15.0605H18.7949V12.8574ZM18.7949 18.6816V16.2266H20.3301C21.373 16.2266 21.9414 16.6484 21.9414 17.4395C21.9414 18.248 21.3906 18.6816 20.3711 18.6816H18.7949ZM31.0234 13.5488H29.3184V17.2754C29.3184 18.1602 28.8613 18.7051 28.0117 18.7051C27.2266 18.7051 26.8223 18.2422 26.8223 17.3281V13.5488H25.1172V17.75C25.1172 19.25 25.9844 20.1348 27.3789 20.1348C28.3574 20.1348 28.9609 19.7129 29.2656 18.9629H29.3711V20H31.0234V13.5488ZM33.5371 22.3438C35.1484 22.3438 35.9395 21.7695 36.4902 20.123L38.7168 13.5488H36.9121L35.5527 18.4707H35.4473L34.0879 13.5488H32.207L34.4746 20.0352L34.416 20.2812C34.2754 20.8027 33.9121 21.0137 33.2734 21.0137C33.2031 21.0137 32.9453 21.0078 32.8867 20.9961V22.3262C32.957 22.3379 33.4727 22.3438 33.5371 22.3438ZM44.8633 20V14.5918H44.9688L48.8711 20H50.3359V11.5449H48.6426V16.9297H48.5371L44.6465 11.5449H43.1699V20H44.8633ZM55.0879 20.1348C57.0742 20.1348 58.2695 18.8809 58.2695 16.7715C58.2695 14.6797 57.0566 13.4082 55.0879 13.4082C53.1191 13.4082 51.9062 14.6855 51.9062 16.7715C51.9062 18.875 53.1016 20.1348 55.0879 20.1348ZM55.0879 18.7871C54.1738 18.7871 53.6582 18.0488 53.6582 16.7715C53.6582 15.5059 54.1797 14.7617 55.0879 14.7617C55.9902 14.7617 56.5176 15.5059 56.5176 16.7715C56.5176 18.0488 55.9961 18.7871 55.0879 18.7871ZM68.3477 13.5488H66.6543L65.6934 18.2188H65.5879L64.4512 13.5488H62.8223L61.6914 18.2188H61.5859L60.625 13.5488H58.8965L60.6191 20H62.4121L63.5547 15.5H63.6602L64.8145 20H66.6309L68.3477 13.5488Z" fill="white"/>
</svg>
