<svg width="28" height="28" viewBox="0 0 28 28" fill="none" xmlns="http://www.w3.org/2000/svg">
<path fill-rule="evenodd" clip-rule="evenodd" d="M0.661621 2.00008C0.661621 2.73341 1.26162 3.33341 1.99495 3.33341H3.32829L8.12829 13.4534L6.32829 16.7067C5.35495 18.4934 6.63495 20.6667 8.66162 20.6667H23.3283C24.0616 20.6667 24.6616 20.0667 24.6616 19.3334C24.6616 18.6001 24.0616 18.0001 23.3283 18.0001H8.66162L10.1283 15.3334H20.0616C21.0616 15.3334 21.9416 14.7867 22.395 13.9601L27.1683 5.30675C27.6616 4.42675 27.0216 3.33341 26.0083 3.33341H6.27495L5.38162 1.42675C5.16829 0.960081 4.68829 0.666748 4.18162 0.666748H1.99495C1.26162 0.666748 0.661621 1.26675 0.661621 2.00008ZM8.66162 22.0001C7.19496 22.0001 6.00829 23.2001 6.00829 24.6667C6.00829 26.1334 7.19496 27.3334 8.66162 27.3334C10.1283 27.3334 11.3283 26.1334 11.3283 24.6667C11.3283 23.2001 10.1283 22.0001 8.66162 22.0001ZM19.3416 24.6667C19.3416 23.2001 20.5283 22.0001 21.995 22.0001C23.4616 22.0001 24.6616 23.2001 24.6616 24.6667C24.6616 26.1334 23.4616 27.3334 21.995 27.3334C20.5283 27.3334 19.3416 26.1334 19.3416 24.6667Z" fill="#1B1B1B" fill-opacity="0.9"/>
</svg>
