<svg width="33" height="26" viewBox="0 0 33 26" fill="none" xmlns="http://www.w3.org/2000/svg">
<g clip-path="url(#clip0)">
<rect width="33" height="26" fill="white"/>
<path d="M10.7246 17.875C10.6014 17.875 10.4781 17.8928 10.3606 17.9304C9.69231 18.1441 8.98952 18.2812 8.24959 18.2812C7.50967 18.2812 6.80688 18.1441 6.13811 17.9304C6.02055 17.8928 5.89783 17.875 5.77459 17.875C2.57463 17.875 -0.0174206 20.4384 -0.000404983 23.594C0.00681377 24.9275 1.12005 26 2.47459 26H14.0246C15.3791 26 16.4924 24.9275 16.4996 23.594C16.5166 20.4384 13.9246 17.875 10.7246 17.875ZM8.24959 16.25C10.9834 16.25 13.1996 14.0674 13.1996 11.375C13.1996 8.68258 10.9834 6.5 8.24959 6.5C5.51575 6.5 3.29959 8.68258 3.29959 11.375C3.29959 14.0674 5.51575 16.25 8.24959 16.25ZM30.5246 0H10.7246C9.35973 0 8.24959 1.12988 8.24959 2.51824V4.875C9.45719 4.875 10.5751 5.2193 11.5496 5.77891V3.25H29.6996V17.875H26.3996V14.625H19.7996V17.875H15.8685C16.8533 18.7225 17.5762 19.8418 17.915 21.125H30.5246C31.8895 21.125 32.9996 19.9951 32.9996 18.6068V2.51824C32.9996 1.12988 31.8895 0 30.5246 0Z" fill="black"/>
</g>
<defs>
<clipPath id="clip0">
<rect width="33" height="26" fill="white"/>
</clipPath>
</defs>
</svg>
