<svg width="384" height="69" viewBox="0 0 384 69" fill="none" xmlns="http://www.w3.org/2000/svg">
<rect width="384" height="69" rx="8" fill="#C5322A"/>
<path d="M146.5 44.3984C144.203 44.3984 142.383 43.6055 141.039 42.0195C139.703 40.4336 139.035 38.2773 139.035 35.5508C139.035 32.8242 139.703 30.668 141.039 29.082C142.375 27.4883 144.191 26.6914 146.488 26.6914C148.27 26.6914 149.793 27.1992 151.059 28.2148C152.324 29.2305 153.082 30.5547 153.332 32.1875H151.188C150.906 31.0938 150.344 30.2305 149.5 29.5977C148.656 28.957 147.652 28.6367 146.488 28.6367C144.863 28.6367 143.574 29.2578 142.621 30.5C141.676 31.7422 141.203 33.4258 141.203 35.5508C141.203 37.6758 141.68 39.3594 142.633 40.6016C143.586 41.8359 144.875 42.4531 146.5 42.4531C147.68 42.4531 148.688 42.1719 149.523 41.6094C150.367 41.0391 150.922 40.2656 151.188 39.2891H153.332C153.051 40.8438 152.289 42.0859 151.047 43.0156C149.812 43.9375 148.297 44.3984 146.5 44.3984ZM156.73 44V26.3516H158.746V33.3594H158.934C159.254 32.6484 159.742 32.1016 160.398 31.7188C161.062 31.3359 161.871 31.1445 162.824 31.1445C164.168 31.1445 165.23 31.5586 166.012 32.3867C166.793 33.207 167.184 34.3516 167.184 35.8203V44H165.168V36.3125C165.168 34.0781 164.195 32.9609 162.25 32.9609C161.141 32.9609 160.277 33.2852 159.66 33.9336C159.051 34.5742 158.746 35.4375 158.746 36.5234V44H156.73ZM175.902 32.9258C174.895 32.9258 174.066 33.2656 173.418 33.9453C172.77 34.625 172.406 35.5234 172.328 36.6406H179.289C179.266 35.5234 178.945 34.625 178.328 33.9453C177.711 33.2656 176.902 32.9258 175.902 32.9258ZM179.23 40.7305H181.246C180.941 41.8242 180.32 42.6797 179.383 43.2969C178.453 43.9141 177.301 44.2227 175.926 44.2227C174.176 44.2227 172.789 43.6367 171.766 42.4648C170.742 41.2852 170.23 39.6953 170.23 37.6953C170.23 35.7031 170.746 34.1133 171.777 32.9258C172.809 31.7383 174.191 31.1445 175.926 31.1445C177.629 31.1445 178.969 31.7109 179.945 32.8438C180.922 33.9766 181.41 35.5273 181.41 37.4961V38.2695H172.328V38.3633C172.383 39.6133 172.734 40.6055 173.383 41.3398C174.039 42.0742 174.902 42.4414 175.973 42.4414C177.605 42.4414 178.691 41.8711 179.23 40.7305ZM195.027 35.2344H192.988C192.816 34.5703 192.445 34.0273 191.875 33.6055C191.312 33.1758 190.598 32.9609 189.73 32.9609C188.598 32.9609 187.695 33.3828 187.023 34.2266C186.359 35.0703 186.027 36.207 186.027 37.6367C186.027 39.0898 186.363 40.25 187.035 41.1172C187.707 41.9766 188.605 42.4062 189.73 42.4062C190.582 42.4062 191.289 42.2148 191.852 41.832C192.422 41.4492 192.801 40.9023 192.988 40.1914H195.027C194.84 41.3867 194.281 42.3594 193.352 43.1094C192.422 43.8516 191.219 44.2227 189.742 44.2227C187.969 44.2227 186.559 43.6289 185.512 42.4414C184.465 41.2461 183.941 39.6445 183.941 37.6367C183.941 35.668 184.465 34.0938 185.512 32.9141C186.559 31.7344 187.965 31.1445 189.73 31.1445C191.207 31.1445 192.41 31.5312 193.34 32.3047C194.277 33.0781 194.84 34.0547 195.027 35.2344ZM200.324 36.8867L205.809 31.3672H208.281L202.844 36.7812L208.645 44H206.078L201.344 38.082L200.137 39.207V44H198.121V26.3516H200.137V36.8867H200.324ZM219.895 42.4766C218.855 43.6406 217.438 44.2227 215.641 44.2227C213.844 44.2227 212.422 43.6406 211.375 42.4766C210.336 41.3047 209.816 39.707 209.816 37.6836C209.816 35.6523 210.336 34.0547 211.375 32.8906C212.414 31.7266 213.836 31.1445 215.641 31.1445C217.445 31.1445 218.867 31.7266 219.906 32.8906C220.945 34.0547 221.465 35.6523 221.465 37.6836C221.465 39.707 220.941 41.3047 219.895 42.4766ZM212.875 41.1758C213.523 41.9961 214.445 42.4062 215.641 42.4062C216.836 42.4062 217.758 41.9961 218.406 41.1758C219.055 40.3477 219.379 39.1836 219.379 37.6836C219.379 36.1836 219.055 35.0234 218.406 34.2031C217.758 33.375 216.836 32.9609 215.641 32.9609C214.445 32.9609 213.523 33.375 212.875 34.2031C212.227 35.0234 211.902 36.1836 211.902 37.6836C211.902 39.1836 212.227 40.3477 212.875 41.1758ZM234.848 31.3672V44H232.926V42.0195H232.738C232.418 42.7305 231.926 43.2773 231.262 43.6602C230.598 44.0352 229.785 44.2227 228.824 44.2227C227.418 44.2227 226.348 43.8203 225.613 43.0156C224.879 42.2109 224.512 41.0547 224.512 39.5469V31.3672H226.527V39.0547C226.527 40.2031 226.754 41.0469 227.207 41.5859C227.66 42.1172 228.387 42.3828 229.387 42.3828C230.488 42.3828 231.336 42.0742 231.93 41.457C232.531 40.832 232.832 39.9609 232.832 38.8438V31.3672H234.848ZM239.488 28.0977H241.504V31.3672H244.316V33.0547H241.504V40.2031C241.504 40.9453 241.652 41.4844 241.949 41.8203C242.246 42.1562 242.723 42.3242 243.379 42.3242C243.668 42.3242 243.98 42.3086 244.316 42.2773V43.9766C243.871 44.0547 243.477 44.0938 243.133 44.0938C241.828 44.0938 240.895 43.832 240.332 43.3086C239.77 42.7852 239.488 41.9219 239.488 40.7188V33.0547H237.449V31.3672H239.488V28.0977Z" fill="white"/>
</svg>
