<svg width="15" height="15" viewBox="0 0 15 15" fill="none" xmlns="http://www.w3.org/2000/svg">
<path d="M14.6672 0.344125C14.4547 0.131096 14.1661 0.0113766 13.8652 0.0113766C13.5643 0.0113766 13.2757 0.131096 13.0631 0.344125L7.5 5.8959L1.93686 0.332749C1.72431 0.119719 1.43574 0 1.13481 0C0.833882 0 0.545315 0.119719 0.332765 0.332749C-0.110922 0.776435 -0.110922 1.49316 0.332765 1.93685L5.8959 7.49999L0.332765 13.0631C-0.110922 13.5068 -0.110922 14.2235 0.332765 14.6672C0.776451 15.1109 1.49317 15.1109 1.93686 14.6672L7.5 9.10409L13.0631 14.6672C13.5068 15.1109 14.2235 15.1109 14.6672 14.6672C15.1109 14.2235 15.1109 13.5068 14.6672 13.0631L9.1041 7.49999L14.6672 1.93685C15.0995 1.50454 15.0995 0.776435 14.6672 0.344125Z" fill="#1B1B1B" fill-opacity="0.9"/>
</svg>
