<svg width="52" height="19" viewBox="0 0 52 19" fill="none" xmlns="http://www.w3.org/2000/svg">
<rect y="0.5" width="52" height="18" rx="2" fill="#00DDC0"/>
<path d="M7.125 12.6445C8.48438 12.6445 9.47656 11.8203 9.57422 10.6172H8.42578C8.3125 11.2383 7.80469 11.6367 7.12891 11.6367C6.23828 11.6367 5.6875 10.8867 5.6875 9.67969C5.6875 8.47266 6.23828 7.72266 7.125 7.72266C7.79688 7.72266 8.30859 8.15234 8.42188 8.80469H9.57031C9.48438 7.59375 8.46094 6.71875 7.125 6.71875C5.48828 6.71875 4.48047 7.84766 4.48047 9.67969C4.48047 11.5117 5.49219 12.6445 7.125 12.6445ZM12.457 12.5898C13.7812 12.5898 14.5781 11.7539 14.5781 10.3477C14.5781 8.95312 13.7695 8.10547 12.457 8.10547C11.1445 8.10547 10.3359 8.95703 10.3359 10.3477C10.3359 11.75 11.1328 12.5898 12.457 12.5898ZM12.457 11.6914C11.8477 11.6914 11.5039 11.1992 11.5039 10.3477C11.5039 9.50391 11.8516 9.00781 12.457 9.00781C13.0586 9.00781 13.4102 9.50391 13.4102 10.3477C13.4102 11.1992 13.0625 11.6914 12.457 11.6914ZM15.5078 12.5H16.6445V9.90625C16.6445 9.41406 16.9609 9.05469 17.4062 9.05469C17.8516 9.05469 18.1172 9.32031 18.1172 9.78125V12.5H19.2109V9.85547C19.2109 9.39062 19.5078 9.05469 19.9688 9.05469C20.4492 9.05469 20.6875 9.3125 20.6875 9.83203V12.5H21.8242V9.54688C21.8242 8.66016 21.2891 8.10547 20.4297 8.10547C19.8281 8.10547 19.332 8.42188 19.1328 8.89844H19.0625C18.8906 8.40625 18.4766 8.10547 17.8711 8.10547C17.3047 8.10547 16.8555 8.40625 16.6797 8.89844H16.6094V8.19922H15.5078V12.5ZM25.418 8.12891C24.8242 8.12891 24.3359 8.42188 24.1016 8.90625H24.0312V8.19922H22.9297V13.9258H24.0664V11.8438H24.1367C24.3477 12.2969 24.8203 12.5664 25.4375 12.5664C26.5156 12.5664 27.1758 11.7305 27.1758 10.3477C27.1758 8.96094 26.5078 8.12891 25.418 8.12891ZM25.0312 11.6484C24.4297 11.6484 24.0547 11.1562 24.0547 10.3516C24.0547 9.54688 24.4297 9.05078 25.0352 9.05078C25.6406 9.05078 26.0078 9.53906 26.0078 10.3477C26.0078 11.1602 25.6445 11.6484 25.0312 11.6484ZM28.1406 12.5H29.2773V6.55469H28.1406V12.5ZM33.2461 11.2852C33.125 11.5781 32.8164 11.7422 32.3672 11.7422C31.7734 11.7422 31.3984 11.332 31.3828 10.6758V10.6172H34.3398V10.2773C34.3398 8.91797 33.5898 8.10547 32.3203 8.10547C31.0391 8.10547 30.25 8.97266 30.25 10.3711C30.25 11.7617 31.0234 12.5898 32.3359 12.5898C33.3906 12.5898 34.1367 12.0859 34.3047 11.2852H33.2461ZM32.3242 8.95312C32.8555 8.95312 33.1992 9.32031 33.2227 9.91016H31.3867C31.4258 9.33203 31.7969 8.95312 32.3242 8.95312ZM35.5977 7.17188V8.23828H34.9258V9.10156H35.5977V11.3398C35.5977 12.1758 36.0117 12.5156 37.0586 12.5156C37.2773 12.5156 37.4883 12.4922 37.6289 12.4648V11.625C37.5195 11.6367 37.4414 11.6445 37.293 11.6445C36.9062 11.6445 36.7344 11.4648 36.7344 11.0781V9.10156H37.6289V8.23828H36.7344V7.17188H35.5977ZM41.332 11.2852C41.2109 11.5781 40.9023 11.7422 40.4531 11.7422C39.8594 11.7422 39.4844 11.332 39.4688 10.6758V10.6172H42.4258V10.2773C42.4258 8.91797 41.6758 8.10547 40.4062 8.10547C39.125 8.10547 38.3359 8.97266 38.3359 10.3711C38.3359 11.7617 39.1094 12.5898 40.4219 12.5898C41.4766 12.5898 42.2227 12.0859 42.3906 11.2852H41.332ZM40.4102 8.95312C40.9414 8.95312 41.2852 9.32031 41.3086 9.91016H39.4727C39.5117 9.33203 39.8828 8.95312 40.4102 8.95312ZM44.9023 12.5664C45.5 12.5664 45.9883 12.2891 46.2188 11.8242H46.2891V12.5H47.3906V6.55469H46.2539V8.88672H46.1875C45.9648 8.41016 45.4844 8.12891 44.9023 8.12891C43.8203 8.12891 43.1484 8.97656 43.1484 10.3438C43.1484 11.7148 43.8164 12.5664 44.9023 12.5664ZM45.2891 9.05078C45.8945 9.05078 46.2656 9.54688 46.2656 10.3516C46.2656 11.1562 45.8984 11.6484 45.2891 11.6484C44.6797 11.6484 44.3164 11.1602 44.3164 10.3477C44.3164 9.53906 44.6836 9.05078 45.2891 9.05078Z" fill="white"/>
</svg>
