<svg width="334" height="41" viewBox="0 0 334 41" fill="none" xmlns="http://www.w3.org/2000/svg">
<path d="M0 3C0 1.34315 1.34315 0 3 0H331C332.657 0 334 1.34315 334 3V38C334 39.6569 332.657 41 331 41H3.00001C1.34315 41 0 39.6569 0 38V3Z" fill="#C42A22"/>
<path d="M136.656 26.2891C139.375 26.2891 141.305 24.6797 141.547 22.3203L141.555 22.2344H139.258L139.242 22.2969C138.992 23.5 138.016 24.2891 136.664 24.2891C134.883 24.2891 133.781 22.7891 133.781 20.3672V20.3516C133.781 17.9297 134.883 16.4375 136.656 16.4375C138 16.4375 139.008 17.2969 139.25 18.5625V18.6172H141.547V18.5234C141.328 16.1406 139.328 14.4375 136.656 14.4375C133.383 14.4375 131.367 16.6953 131.367 20.3516V20.3672C131.367 24.0234 133.391 26.2891 136.656 26.2891ZM147.32 26.1797C149.969 26.1797 151.562 24.5078 151.562 21.7031V21.6875C151.562 18.9062 149.945 17.2109 147.32 17.2109C144.695 17.2109 143.078 18.9141 143.078 21.6875V21.7031C143.078 24.5 144.672 26.1797 147.32 26.1797ZM147.32 24.3906C146.102 24.3906 145.414 23.3984 145.414 21.7031V21.6875C145.414 20.0078 146.109 19 147.32 19C148.523 19 149.227 20.0078 149.227 21.6875V21.7031C149.227 23.3984 148.531 24.3906 147.32 24.3906ZM153.422 26H155.703V21.0234C155.703 19.8594 156.344 19.1016 157.398 19.1016C158.477 19.1016 158.977 19.7422 158.977 20.9531V26H161.258V20.4375C161.258 18.3828 160.227 17.2109 158.312 17.2109C157.086 17.2109 156.234 17.7969 155.844 18.7266H155.703V17.3984H153.422V26ZM167.039 26.0312C167.477 26.0312 167.898 25.9844 168.18 25.9297V24.2344C167.961 24.2578 167.805 24.2734 167.508 24.2734C166.734 24.2734 166.406 23.9297 166.406 23.1562V19.1172H168.18V17.3984H166.406V15.3438H164.102V17.3984H162.773V19.1172H164.102V23.6797C164.102 25.3516 164.945 26.0312 167.039 26.0312ZM171.242 16.0781C171.945 16.0781 172.523 15.5156 172.523 14.8125C172.523 14.1016 171.945 13.5391 171.242 13.5391C170.539 13.5391 169.953 14.1016 169.953 14.8125C169.953 15.5156 170.539 16.0781 171.242 16.0781ZM170.094 26H172.375V17.3984H170.094V26ZM174.672 26H176.953V21.0234C176.953 19.8594 177.594 19.1016 178.648 19.1016C179.727 19.1016 180.227 19.7422 180.227 20.9531V26H182.508V20.4375C182.508 18.3828 181.477 17.2109 179.562 17.2109C178.336 17.2109 177.484 17.7969 177.094 18.7266H176.953V17.3984H174.672V26ZM187.562 26.1797C188.789 26.1797 189.664 25.6094 190.055 24.6719H190.195V26H192.477V17.3984H190.195V22.3672C190.195 23.5312 189.586 24.2891 188.461 24.2891C187.383 24.2891 186.922 23.6562 186.922 22.4375V17.3984H184.641V22.9609C184.641 25.0078 185.633 26.1797 187.562 26.1797ZM198.547 26.1797C201.062 26.1797 202.172 24.7266 202.438 23.6484L202.453 23.5703H200.328L200.305 23.6172C200.148 23.9453 199.594 24.4766 198.594 24.4766C197.383 24.4766 196.625 23.6562 196.602 22.2422H202.523V21.5312C202.523 18.9297 200.961 17.2109 198.453 17.2109C195.945 17.2109 194.344 18.9688 194.344 21.7031V21.7109C194.344 24.4688 195.93 26.1797 198.547 26.1797ZM198.492 18.9219C199.484 18.9219 200.195 19.5625 200.336 20.8125H196.625C196.766 19.5938 197.5 18.9219 198.492 18.9219Z" fill="white"/>
</svg>
