<svg width="28" height="28" viewBox="0 0 28 28" fill="none" xmlns="http://www.w3.org/2000/svg">
<circle cx="14" cy="14" r="14" fill="#050505" fill-opacity="0.77"/>
<path fill-rule="evenodd" clip-rule="evenodd" d="M9.62533 12.5417C9.30449 12.5417 9.04199 12.2792 9.04199 11.9583V10.7917H7.87533C7.55449 10.7917 7.29199 10.5292 7.29199 10.2083C7.29199 9.8875 7.55449 9.625 7.87533 9.625H9.04199V8.45833C9.04199 8.1375 9.30449 7.875 9.62533 7.875C9.94616 7.875 10.2087 8.1375 10.2087 8.45833V9.625H11.3753C11.6962 9.625 11.9587 9.8875 11.9587 10.2083C11.9587 10.5292 11.6962 10.7917 11.3753 10.7917H10.2087V11.9583C10.2087 12.2792 9.94616 12.5417 9.62533 12.5417ZM13.3598 14.5833C13.6724 14.0419 14.2501 13.7083 14.8753 13.7083C15.5005 13.7083 16.0783 14.0419 16.3909 14.5833C16.7035 15.1248 16.7035 15.7919 16.3909 16.3333C16.0783 16.8748 15.5005 17.2083 14.8753 17.2083C14.2501 17.2083 13.6724 16.8748 13.3598 16.3333C13.0472 15.7919 13.0472 15.1248 13.3598 14.5833ZM19.542 10.7917H17.6928L16.9695 10.0042C16.7537 9.765 16.4387 9.625 16.112 9.625H12.3787C12.4778 9.8 12.542 9.9925 12.542 10.2083C12.542 10.85 12.017 11.375 11.3753 11.375H10.792V11.9583C10.792 12.6 10.267 13.125 9.62533 13.125C9.40949 13.125 9.21699 13.0608 9.04199 12.9617V18.9583C9.04199 19.6 9.56699 20.125 10.2087 20.125H19.542C20.1837 20.125 20.7087 19.6 20.7087 18.9583V11.9583C20.7087 11.3167 20.1837 10.7917 19.542 10.7917ZM11.9587 15.4583C11.9587 17.0683 13.2653 18.375 14.8753 18.375C16.4853 18.375 17.792 17.0683 17.792 15.4583C17.792 13.8483 16.4853 12.5417 14.8753 12.5417C13.2653 12.5417 11.9587 13.8483 11.9587 15.4583Z" fill="#F9F9F9" fill-opacity="0.9"/>
</svg>
