<svg width="159" height="33" viewBox="0 0 159 33" fill="none" xmlns="http://www.w3.org/2000/svg">
<path d="M22.627 19.2963V20.808H17.0254V12.3529H22.627V13.8646H18.7949V15.8392H22.4102V17.2396H18.7949V19.2963H22.627ZM26.9688 18.6986H26.8633L25.6621 20.808H23.8516L25.8789 17.6146L23.8398 14.3451H25.7969L26.9395 16.4662H27.0449L28.1875 14.3451H30.0508L28.0234 17.5385L30.0684 20.808H28.1699L26.9688 18.6986ZM35.0254 14.2396C35.8457 14.2396 36.4902 14.5345 36.959 15.1244C37.4277 15.7142 37.6621 16.5306 37.6621 17.5736C37.6621 18.6127 37.4297 19.4291 36.9648 20.0228C36.5 20.6127 35.8633 20.9076 35.0547 20.9076C34.5938 20.9076 34.1934 20.8119 33.8535 20.6205C33.5137 20.4291 33.2637 20.1615 33.1035 19.8177H32.998V22.9525H31.293V14.3451H32.9453V15.4056H33.0508C33.2266 15.0424 33.4883 14.7572 33.8359 14.5502C34.1836 14.3431 34.5801 14.2396 35.0254 14.2396ZM34.4453 19.4838C34.9062 19.4838 35.2656 19.3158 35.5234 18.9799C35.7812 18.64 35.9102 18.1713 35.9102 17.5736C35.9102 16.9799 35.7793 16.515 35.5176 16.1791C35.2598 15.8392 34.9043 15.6693 34.4512 15.6693C33.998 15.6693 33.6387 15.8412 33.373 16.1849C33.1113 16.5248 32.9805 16.9896 32.9805 17.5795C32.9805 18.1693 33.1113 18.6342 33.373 18.974C33.6348 19.3138 33.9922 19.4838 34.4453 19.4838ZM39.1094 20.808V11.8783H40.8145V20.808H39.1094ZM47.7871 20.0521C47.2246 20.6498 46.4473 20.9486 45.4551 20.9486C44.4629 20.9486 43.6836 20.6498 43.1172 20.0521C42.5547 19.4545 42.2734 18.6283 42.2734 17.5736C42.2734 16.5267 42.5566 15.7045 43.123 15.1068C43.6934 14.5052 44.4707 14.2045 45.4551 14.2045C46.4395 14.2045 47.2148 14.5052 47.7812 15.1068C48.3516 15.7045 48.6367 16.5267 48.6367 17.5736C48.6367 18.6283 48.3535 19.4545 47.7871 20.0521ZM45.4551 19.5541C45.9082 19.5541 46.2598 19.3822 46.5098 19.0385C46.7598 18.6908 46.8848 18.2025 46.8848 17.5736C46.8848 16.9525 46.7578 16.4681 46.5039 16.1205C46.2539 15.7728 45.9043 15.599 45.4551 15.599C45.002 15.599 44.6504 15.7728 44.4004 16.1205C44.1504 16.4681 44.0254 16.9525 44.0254 17.5736C44.0254 18.2025 44.1484 18.6908 44.3945 19.0385C44.6445 19.3822 44.998 19.5541 45.4551 19.5541ZM50.0312 20.808V14.3451H51.6836V15.3763H51.7891C51.875 15.0482 52.0703 14.7767 52.375 14.5619C52.6836 14.347 53.041 14.2396 53.4473 14.2396C53.7402 14.2396 53.9629 14.267 54.1152 14.3217V15.8744C53.9355 15.8041 53.666 15.7689 53.3066 15.7689C52.834 15.7689 52.4531 15.8998 52.1641 16.1615C51.8789 16.4232 51.7363 16.7787 51.7363 17.2279V20.808H50.0312ZM57.9004 15.5111C57.5059 15.5111 57.1797 15.6381 56.9219 15.892C56.668 16.1459 56.5254 16.4818 56.4941 16.8998H59.248C59.2285 16.4701 59.0977 16.1322 58.8555 15.8861C58.6172 15.6361 58.2988 15.5111 57.9004 15.5111ZM59.2832 18.9681H60.8711C60.7422 19.5814 60.4141 20.0658 59.8867 20.4213C59.3633 20.7728 58.707 20.9486 57.918 20.9486C56.9336 20.9486 56.166 20.6556 55.6152 20.0697C55.0645 19.4799 54.7891 18.6595 54.7891 17.6088C54.7891 16.558 55.0664 15.7279 55.6211 15.1185C56.1758 14.5092 56.9336 14.2045 57.8945 14.2045C58.8477 14.2045 59.5898 14.4916 60.1211 15.0658C60.6562 15.64 60.9238 16.4408 60.9238 17.4681V17.9896H56.4883V18.0775C56.5 18.558 56.6367 18.9388 56.8984 19.2201C57.1641 19.4974 57.5195 19.6361 57.9648 19.6361C58.3008 19.6361 58.582 19.5795 58.8086 19.4662C59.0352 19.349 59.1934 19.183 59.2832 18.9681ZM65.5879 12.3529H69.1152C69.9863 12.3529 70.6914 12.6224 71.2305 13.1615C71.7734 13.6967 72.0449 14.4017 72.0449 15.2767C72.0449 16.1439 71.7656 16.8451 71.207 17.3802C70.6484 17.9154 69.9219 18.183 69.0273 18.183H67.3574V20.808H65.5879V12.3529ZM67.3574 13.806V16.7474H68.6406C69.1523 16.7474 69.5469 16.6224 69.8242 16.3724C70.1055 16.1185 70.2461 15.7552 70.2461 15.2826C70.2461 14.806 70.1074 14.4408 69.8301 14.1869C69.5527 13.933 69.1582 13.806 68.6465 13.806H67.3574ZM73.5625 20.808V11.8783H75.2383V15.4056H75.3438C75.4961 15.0345 75.7402 14.7455 76.0762 14.5385C76.416 14.3275 76.8223 14.222 77.2949 14.222C77.9941 14.222 78.5371 14.433 78.9238 14.8549C79.3145 15.2767 79.5098 15.8744 79.5098 16.6478V20.808H77.8047V17.0521C77.8047 16.6068 77.7031 16.2689 77.5 16.0385C77.2969 15.808 77.002 15.6927 76.6152 15.6927C76.1934 15.6927 75.8633 15.8217 75.625 16.0795C75.3867 16.3334 75.2676 16.6732 75.2676 17.099V20.808H73.5625ZM86.3652 20.0521C85.8027 20.6498 85.0254 20.9486 84.0332 20.9486C83.041 20.9486 82.2617 20.6498 81.6953 20.0521C81.1328 19.4545 80.8516 18.6283 80.8516 17.5736C80.8516 16.5267 81.1348 15.7045 81.7012 15.1068C82.2715 14.5052 83.0488 14.2045 84.0332 14.2045C85.0176 14.2045 85.793 14.5052 86.3594 15.1068C86.9297 15.7045 87.2148 16.5267 87.2148 17.5736C87.2148 18.6283 86.9316 19.4545 86.3652 20.0521ZM84.0332 19.5541C84.4863 19.5541 84.8379 19.3822 85.0879 19.0385C85.3379 18.6908 85.4629 18.2025 85.4629 17.5736C85.4629 16.9525 85.3359 16.4681 85.082 16.1205C84.832 15.7728 84.4824 15.599 84.0332 15.599C83.5801 15.599 83.2285 15.7728 82.9785 16.1205C82.7285 16.4681 82.6035 16.9525 82.6035 17.5736C82.6035 18.2025 82.7266 18.6908 82.9727 19.0385C83.2227 19.3822 83.5762 19.5541 84.0332 19.5541ZM89.0957 12.8099H90.8008V14.4095H92.1426V15.7513H90.8008V18.6576C90.8008 18.9388 90.8672 19.1459 91 19.2787C91.1367 19.4115 91.3496 19.4779 91.6387 19.4779C91.8301 19.4779 91.998 19.4701 92.1426 19.4545V20.7552C91.8809 20.806 91.5957 20.8314 91.2871 20.8314C90.502 20.8314 89.9395 20.6947 89.5996 20.4213C89.2637 20.1478 89.0957 19.6947 89.0957 19.0619V15.7513H88.0879V14.4095H89.0957V12.8099ZM98.7168 20.0521C98.1543 20.6498 97.377 20.9486 96.3848 20.9486C95.3926 20.9486 94.6133 20.6498 94.0469 20.0521C93.4844 19.4545 93.2031 18.6283 93.2031 17.5736C93.2031 16.5267 93.4863 15.7045 94.0527 15.1068C94.623 14.5052 95.4004 14.2045 96.3848 14.2045C97.3691 14.2045 98.1445 14.5052 98.7109 15.1068C99.2812 15.7045 99.5664 16.5267 99.5664 17.5736C99.5664 18.6283 99.2832 19.4545 98.7168 20.0521ZM96.3848 19.5541C96.8379 19.5541 97.1895 19.3822 97.4395 19.0385C97.6895 18.6908 97.8145 18.2025 97.8145 17.5736C97.8145 16.9525 97.6875 16.4681 97.4336 16.1205C97.1836 15.7728 96.834 15.599 96.3848 15.599C95.9316 15.599 95.5801 15.7728 95.3301 16.1205C95.0801 16.4681 94.9551 16.9525 94.9551 17.5736C94.9551 18.2025 95.0781 18.6908 95.3242 19.0385C95.5742 19.3822 95.9277 19.5541 96.3848 19.5541ZM102.76 18.8744C103.014 19.2025 103.371 19.3666 103.832 19.3666C104.293 19.3666 104.654 19.2025 104.916 18.8744C105.178 18.5424 105.309 18.0912 105.309 17.5209C105.309 16.9506 105.176 16.4994 104.91 16.1674C104.648 15.8353 104.289 15.6693 103.832 15.6693C103.375 15.6693 103.018 15.8353 102.76 16.1674C102.506 16.4955 102.379 16.9447 102.379 17.515C102.379 18.0892 102.506 18.5424 102.76 18.8744ZM103.809 23.2572C102.957 23.2572 102.264 23.0834 101.729 22.7357C101.197 22.392 100.904 21.9349 100.85 21.3646H102.537C102.58 21.5638 102.717 21.722 102.947 21.8392C103.178 21.9564 103.477 22.015 103.844 22.015C104.301 22.015 104.656 21.9135 104.91 21.7103C105.164 21.5111 105.291 21.2299 105.291 20.8666V19.6713H105.186C104.818 20.3666 104.17 20.7142 103.24 20.7142C102.436 20.7142 101.799 20.4271 101.33 19.8529C100.861 19.2748 100.627 18.4974 100.627 17.5209C100.627 16.517 100.863 15.7201 101.336 15.1302C101.812 14.5365 102.459 14.2396 103.275 14.2396C103.713 14.2396 104.105 14.3412 104.453 14.5443C104.805 14.7474 105.066 15.0267 105.238 15.3822H105.344V14.3451H106.996V20.7845C106.996 21.5424 106.709 22.1439 106.135 22.5892C105.561 23.0345 104.785 23.2572 103.809 23.2572ZM108.707 20.808V14.3451H110.359V15.3763H110.465C110.551 15.0482 110.746 14.7767 111.051 14.5619C111.359 14.347 111.717 14.2396 112.123 14.2396C112.416 14.2396 112.639 14.267 112.791 14.3217V15.8744C112.611 15.8041 112.342 15.7689 111.982 15.7689C111.51 15.7689 111.129 15.8998 110.84 16.1615C110.555 16.4232 110.412 16.7787 110.412 17.2279V20.808H108.707ZM116.148 19.6244C116.543 19.6244 116.873 19.5131 117.139 19.2904C117.404 19.0677 117.537 18.7924 117.537 18.4642V17.9896L116.23 18.0717C115.504 18.1224 115.141 18.3822 115.141 18.851C115.141 19.0892 115.232 19.2787 115.416 19.4193C115.604 19.556 115.848 19.6244 116.148 19.6244ZM115.586 20.9076C114.961 20.9076 114.451 20.7299 114.057 20.3744C113.666 20.0189 113.471 19.5482 113.471 18.9623C113.471 18.3802 113.686 17.9232 114.115 17.5912C114.549 17.2552 115.168 17.0638 115.973 17.017L117.537 16.9232V16.3959C117.537 16.1263 117.443 15.9193 117.256 15.7748C117.068 15.6263 116.799 15.5521 116.447 15.5521C115.814 15.5521 115.426 15.7513 115.281 16.1498H113.711C113.766 15.5521 114.047 15.0795 114.555 14.7318C115.066 14.3802 115.729 14.2045 116.541 14.2045C117.393 14.2045 118.051 14.3959 118.516 14.7787C118.984 15.1615 119.219 15.7006 119.219 16.3959V20.808H117.566V19.9642H117.461C117.293 20.2611 117.043 20.4935 116.711 20.6615C116.379 20.8256 116.004 20.9076 115.586 20.9076ZM124.627 14.2396C125.447 14.2396 126.092 14.5345 126.561 15.1244C127.029 15.7142 127.264 16.5306 127.264 17.5736C127.264 18.6127 127.031 19.4291 126.566 20.0228C126.102 20.6127 125.465 20.9076 124.656 20.9076C124.195 20.9076 123.795 20.8119 123.455 20.6205C123.115 20.4291 122.865 20.1615 122.705 19.8177H122.6V22.9525H120.895V14.3451H122.547V15.4056H122.652C122.828 15.0424 123.09 14.7572 123.438 14.5502C123.785 14.3431 124.182 14.2396 124.627 14.2396ZM124.047 19.4838C124.508 19.4838 124.867 19.3158 125.125 18.9799C125.383 18.64 125.512 18.1713 125.512 17.5736C125.512 16.9799 125.381 16.515 125.119 16.1791C124.861 15.8392 124.506 15.6693 124.053 15.6693C123.6 15.6693 123.24 15.8412 122.975 16.1849C122.713 16.5248 122.582 16.9896 122.582 17.5795C122.582 18.1693 122.713 18.6342 122.975 18.974C123.236 19.3138 123.594 19.4838 124.047 19.4838ZM128.711 20.808V11.8783H130.387V15.4056H130.492C130.645 15.0345 130.889 14.7455 131.225 14.5385C131.564 14.3275 131.971 14.222 132.443 14.222C133.143 14.222 133.686 14.433 134.072 14.8549C134.463 15.2767 134.658 15.8744 134.658 16.6478V20.808H132.953V17.0521C132.953 16.6068 132.852 16.2689 132.648 16.0385C132.445 15.808 132.15 15.6927 131.764 15.6927C131.342 15.6927 131.012 15.8217 130.773 16.0795C130.535 16.3334 130.416 16.6732 130.416 17.099V20.808H128.711ZM136.943 23.1576C136.58 23.1576 136.363 23.1517 136.293 23.14V21.7689C136.332 21.7767 136.461 21.7806 136.68 21.7806C137.004 21.7806 137.258 21.724 137.441 21.6107C137.625 21.5013 137.752 21.3256 137.822 21.0834L137.881 20.849L135.613 14.3451H137.494L138.854 19.2435H138.959L140.318 14.3451H142.123L139.896 20.9076C139.623 21.7357 139.264 22.3177 138.818 22.6537C138.377 22.9896 137.752 23.1576 136.943 23.1576Z" fill="#F9F9F9" fill-opacity="0.9"/>
<path d="M0 0.807983V-0.192017H-1V0.807983H0ZM159 0.807983H160V-0.192017H159V0.807983ZM159 32.808V33.808H160V32.808H159ZM0 32.808H-1V33.808H0V32.808ZM0 1.80798H159V-0.192017H0V1.80798ZM158 0.807983V32.808H160V0.807983H158ZM159 31.808H0V33.808H159V31.808ZM1 32.808V0.807983H-1V32.808H1Z" fill="#F9F9F9" fill-opacity="0.9"/>
</svg>
