<svg width="228" height="50" viewBox="0 0 228 50" fill="none" xmlns="http://www.w3.org/2000/svg">
<path d="M0 3C0 1.34315 1.34315 0 3 0H225C226.657 0 228 1.34315 228 3V47C228 48.6569 226.657 50 225 50H3C1.34315 50 0 48.6569 0 47V3Z" fill="#C5322A"/>
<path d="M43.0449 29.4805V32H33.709V17.9082H43.0449V20.4277H36.6582V23.7188H42.6836V26.0527H36.6582V29.4805H43.0449ZM50.2812 28.4844H50.1055L48.1035 32H45.0859L48.4648 26.6777L45.0664 21.2285H48.3281L50.2324 24.7637H50.4082L52.3125 21.2285H55.418L52.0391 26.5508L55.4473 32H52.2832L50.2812 28.4844ZM63.709 21.0527C65.0762 21.0527 66.1504 21.5443 66.9316 22.5273C67.7129 23.5104 68.1035 24.8711 68.1035 26.6094C68.1035 28.3411 67.7161 29.7018 66.9414 30.6914C66.1667 31.6745 65.1055 32.166 63.7578 32.166C62.9896 32.166 62.3223 32.0065 61.7559 31.6875C61.1895 31.3685 60.7728 30.9225 60.5059 30.3496H60.3301V35.5742H57.4883V21.2285H60.2422V22.9961H60.418C60.7109 22.3906 61.1471 21.9154 61.7266 21.5703C62.306 21.2253 62.9668 21.0527 63.709 21.0527ZM62.7422 29.793C63.5104 29.793 64.1094 29.513 64.5391 28.9531C64.9688 28.3867 65.1836 27.6055 65.1836 26.6094C65.1836 25.6198 64.9655 24.8451 64.5293 24.2852C64.0996 23.7188 63.5072 23.4355 62.752 23.4355C61.9967 23.4355 61.3978 23.722 60.9551 24.2949C60.5189 24.8613 60.3008 25.6361 60.3008 26.6191C60.3008 27.6022 60.5189 28.377 60.9551 28.9434C61.3913 29.5098 61.987 29.793 62.7422 29.793ZM70.5156 32V17.1172H73.3574V32H70.5156ZM84.9785 30.7402C84.041 31.7363 82.7454 32.2344 81.0918 32.2344C79.4382 32.2344 78.1393 31.7363 77.1953 30.7402C76.2578 29.7441 75.7891 28.3672 75.7891 26.6094C75.7891 24.8646 76.2611 23.4941 77.2051 22.498C78.1556 21.4954 79.4512 20.9941 81.0918 20.9941C82.7324 20.9941 84.0247 21.4954 84.9688 22.498C85.9193 23.4941 86.3945 24.8646 86.3945 26.6094C86.3945 28.3672 85.9225 29.7441 84.9785 30.7402ZM81.0918 29.9102C81.847 29.9102 82.4329 29.6237 82.8496 29.0508C83.2663 28.4714 83.4746 27.6576 83.4746 26.6094C83.4746 25.5742 83.263 24.7669 82.8398 24.1875C82.4232 23.6081 81.8405 23.3184 81.0918 23.3184C80.3366 23.3184 79.7507 23.6081 79.334 24.1875C78.9173 24.7669 78.709 25.5742 78.709 26.6094C78.709 27.6576 78.9141 28.4714 79.3242 29.0508C79.7409 29.6237 80.3301 29.9102 81.0918 29.9102ZM88.7188 32V21.2285H91.4727V22.9473H91.6484C91.7917 22.4004 92.1172 21.9479 92.625 21.5898C93.1393 21.2318 93.735 21.0527 94.4121 21.0527C94.9004 21.0527 95.2715 21.0983 95.5254 21.1895V23.7773C95.2259 23.6602 94.7767 23.6016 94.1777 23.6016C93.39 23.6016 92.7552 23.8197 92.2734 24.2559C91.7982 24.6921 91.5605 25.2845 91.5605 26.0332V32H88.7188ZM101.834 23.1719C101.176 23.1719 100.633 23.3835 100.203 23.8066C99.7799 24.2298 99.5423 24.7897 99.4902 25.4863H104.08C104.048 24.7702 103.829 24.207 103.426 23.7969C103.029 23.3802 102.498 23.1719 101.834 23.1719ZM104.139 28.9336H106.785C106.57 29.9557 106.023 30.763 105.145 31.3555C104.272 31.9414 103.178 32.2344 101.863 32.2344C100.223 32.2344 98.9434 31.7461 98.0254 30.7695C97.1074 29.7865 96.6484 28.4193 96.6484 26.668C96.6484 24.9167 97.1107 23.5332 98.0352 22.5176C98.9596 21.502 100.223 20.9941 101.824 20.9941C103.413 20.9941 104.65 21.4727 105.535 22.4297C106.427 23.3867 106.873 24.7214 106.873 26.4336V27.3027H99.4805V27.4492C99.5 28.25 99.7279 28.8848 100.164 29.3535C100.607 29.8158 101.199 30.0469 101.941 30.0469C102.501 30.0469 102.97 29.9525 103.348 29.7637C103.725 29.5684 103.989 29.2917 104.139 28.9336ZM120.633 32.3613C118.589 32.3613 116.974 31.7005 115.789 30.3789C114.611 29.0508 114.021 27.2409 114.021 24.9492C114.021 22.6576 114.611 20.8509 115.789 19.5293C116.974 18.2077 118.589 17.5469 120.633 17.5469C122.299 17.5469 123.706 18.0449 124.852 19.041C126.004 20.0306 126.635 21.2936 126.746 22.8301H123.875C123.732 22.0163 123.364 21.3652 122.771 20.877C122.186 20.3887 121.473 20.1445 120.633 20.1445C119.526 20.1445 118.65 20.5742 118.006 21.4336C117.361 22.293 117.039 23.4648 117.039 24.9492C117.039 26.4336 117.361 27.6087 118.006 28.4746C118.65 29.334 119.529 29.7637 120.643 29.7637C121.489 29.7637 122.205 29.5326 122.791 29.0703C123.377 28.6081 123.742 27.9896 123.885 27.2148H126.756C126.632 28.7383 126.004 29.9785 124.871 30.9355C123.745 31.8861 122.332 32.3613 120.633 32.3613ZM137.85 30.7402C136.912 31.7363 135.617 32.2344 133.963 32.2344C132.309 32.2344 131.01 31.7363 130.066 30.7402C129.129 29.7441 128.66 28.3672 128.66 26.6094C128.66 24.8646 129.132 23.4941 130.076 22.498C131.027 21.4954 132.322 20.9941 133.963 20.9941C135.604 20.9941 136.896 21.4954 137.84 22.498C138.79 23.4941 139.266 24.8646 139.266 26.6094C139.266 28.3672 138.794 29.7441 137.85 30.7402ZM133.963 29.9102C134.718 29.9102 135.304 29.6237 135.721 29.0508C136.137 28.4714 136.346 27.6576 136.346 26.6094C136.346 25.5742 136.134 24.7669 135.711 24.1875C135.294 23.6081 134.712 23.3184 133.963 23.3184C133.208 23.3184 132.622 23.6081 132.205 24.1875C131.788 24.7669 131.58 25.5742 131.58 26.6094C131.58 27.6576 131.785 28.4714 132.195 29.0508C132.612 29.6237 133.201 29.9102 133.963 29.9102ZM151.336 21.2285V32H148.582V30.2715H148.406C147.872 31.5801 146.824 32.2344 145.262 32.2344C144.096 32.2344 143.175 31.8828 142.498 31.1797C141.827 30.4701 141.492 29.4935 141.492 28.25V21.2285H144.334V27.5176C144.334 29.015 144.995 29.7637 146.316 29.7637C147.013 29.7637 147.55 29.5586 147.928 29.1484C148.305 28.7383 148.494 28.1686 148.494 27.4395V21.2285H151.336ZM154.188 32V21.2285H156.941V22.9473H157.117C157.26 22.4004 157.586 21.9479 158.094 21.5898C158.608 21.2318 159.204 21.0527 159.881 21.0527C160.369 21.0527 160.74 21.0983 160.994 21.1895V23.7773C160.695 23.6602 160.245 23.6016 159.646 23.6016C158.859 23.6016 158.224 23.8197 157.742 24.2559C157.267 24.6921 157.029 25.2845 157.029 26.0332V32H154.188ZM162.4 24.3926C162.4 23.3704 162.811 22.5501 163.631 21.9316C164.458 21.3066 165.542 20.9941 166.883 20.9941C168.25 20.9941 169.321 21.2708 170.096 21.8242C170.877 22.3776 171.307 23.1686 171.385 24.1973H168.758C168.686 23.8457 168.488 23.5723 168.162 23.377C167.843 23.1751 167.423 23.0742 166.902 23.0742C166.388 23.0742 165.965 23.1816 165.633 23.3965C165.301 23.6048 165.135 23.8783 165.135 24.2168C165.135 24.4772 165.252 24.6953 165.486 24.8711C165.721 25.0404 166.089 25.1803 166.59 25.291L168.611 25.7305C169.66 25.9583 170.424 26.3066 170.906 26.7754C171.395 27.2441 171.639 27.8789 171.639 28.6797C171.639 29.7474 171.202 30.6068 170.33 31.2578C169.458 31.9089 168.312 32.2344 166.893 32.2344C165.473 32.2344 164.35 31.9544 163.523 31.3945C162.697 30.8346 162.234 30.0371 162.137 29.002H164.91C165.138 29.7702 165.818 30.1543 166.951 30.1543C167.505 30.1543 167.954 30.0501 168.299 29.8418C168.644 29.627 168.816 29.347 168.816 29.002C168.816 28.735 168.709 28.5202 168.494 28.3574C168.279 28.1882 167.934 28.0514 167.459 27.9473L165.506 27.5078C164.458 27.2799 163.676 26.9121 163.162 26.4043C162.654 25.89 162.4 25.2194 162.4 24.3926ZM178.631 23.1719C177.973 23.1719 177.43 23.3835 177 23.8066C176.577 24.2298 176.339 24.7897 176.287 25.4863H180.877C180.844 24.7702 180.626 24.207 180.223 23.7969C179.826 23.3802 179.295 23.1719 178.631 23.1719ZM180.936 28.9336H183.582C183.367 29.9557 182.82 30.763 181.941 31.3555C181.069 31.9414 179.975 32.2344 178.66 32.2344C177.02 32.2344 175.74 31.7461 174.822 30.7695C173.904 29.7865 173.445 28.4193 173.445 26.668C173.445 24.9167 173.908 23.5332 174.832 22.5176C175.757 21.502 177.02 20.9941 178.621 20.9941C180.21 20.9941 181.447 21.4727 182.332 22.4297C183.224 23.3867 183.67 24.7214 183.67 26.4336V27.3027H176.277V27.4492C176.297 28.25 176.525 28.8848 176.961 29.3535C177.404 29.8158 177.996 30.0469 178.738 30.0469C179.298 30.0469 179.767 29.9525 180.145 29.7637C180.522 29.5684 180.786 29.2917 180.936 28.9336ZM185.76 24.3926C185.76 23.3704 186.17 22.5501 186.99 21.9316C187.817 21.3066 188.901 20.9941 190.242 20.9941C191.609 20.9941 192.68 21.2708 193.455 21.8242C194.236 22.3776 194.666 23.1686 194.744 24.1973H192.117C192.046 23.8457 191.847 23.5723 191.521 23.377C191.202 23.1751 190.783 23.0742 190.262 23.0742C189.747 23.0742 189.324 23.1816 188.992 23.3965C188.66 23.6048 188.494 23.8783 188.494 24.2168C188.494 24.4772 188.611 24.6953 188.846 24.8711C189.08 25.0404 189.448 25.1803 189.949 25.291L191.971 25.7305C193.019 25.9583 193.784 26.3066 194.266 26.7754C194.754 27.2441 194.998 27.8789 194.998 28.6797C194.998 29.7474 194.562 30.6068 193.689 31.2578C192.817 31.9089 191.671 32.2344 190.252 32.2344C188.833 32.2344 187.71 31.9544 186.883 31.3945C186.056 30.8346 185.594 30.0371 185.496 29.002H188.27C188.497 29.7702 189.178 30.1543 190.311 30.1543C190.864 30.1543 191.313 30.0501 191.658 29.8418C192.003 29.627 192.176 29.347 192.176 29.002C192.176 28.735 192.068 28.5202 191.854 28.3574C191.639 28.1882 191.294 28.0514 190.818 27.9473L188.865 27.5078C187.817 27.2799 187.036 26.9121 186.521 26.4043C186.014 25.89 185.76 25.2194 185.76 24.3926Z" fill="white"/>
</svg>
