<svg width="352" height="41" viewBox="0 0 352 41" fill="none" xmlns="http://www.w3.org/2000/svg">
<path d="M0 3C0 1.34315 1.34315 0 3 0H349C350.657 0 352 1.34315 352 3V38C352 39.6569 350.657 41 349 41H3.00001C1.34315 41 0 39.6569 0 38V3Z" fill="#4267B2"/>
<g clip-path="url(#clip0)">
<g clip-path="url(#clip1)">
<path d="M84.3411 10H65.6511C65.3451 10.0021 65.0523 10.1251 64.8367 10.3422C64.621 10.5593 64.5 10.8529 64.5 11.1589V29.8489C64.5021 30.1549 64.6251 30.4477 64.8422 30.6633C65.0593 30.879 65.3529 31 65.6589 31H75.7179V22.8796H72.9879V19.6994H75.7179V17.3631C75.7179 14.6515 77.3756 13.1631 79.7946 13.1631C80.6109 13.1597 81.4268 13.2017 82.2384 13.2891V16.132H80.5584C79.2459 16.132 78.9926 16.762 78.9926 17.6755V19.6994H82.14L81.72 22.8796H78.99V31H84.3411C84.6484 31 84.9432 30.8779 85.1606 30.6606C85.3779 30.4432 85.5 30.1484 85.5 29.8411V11.1511C85.4979 10.8451 85.3749 10.5523 85.1578 10.3367C84.9407 10.121 84.6471 9.99999 84.3411 10Z" fill="white"/>
</g>
<path d="M99.6562 26.2891C102.375 26.2891 104.305 24.6797 104.547 22.3203L104.555 22.2344H102.258L102.242 22.2969C101.992 23.5 101.016 24.2891 99.6641 24.2891C97.8828 24.2891 96.7812 22.7891 96.7812 20.3672V20.3516C96.7812 17.9297 97.8828 16.4375 99.6562 16.4375C101 16.4375 102.008 17.2969 102.25 18.5625V18.6172H104.547V18.5234C104.328 16.1406 102.328 14.4375 99.6562 14.4375C96.3828 14.4375 94.3672 16.6953 94.3672 20.3516V20.3672C94.3672 24.0234 96.3906 26.2891 99.6562 26.2891ZM110.32 26.1797C112.969 26.1797 114.562 24.5078 114.562 21.7031V21.6875C114.562 18.9062 112.945 17.2109 110.32 17.2109C107.695 17.2109 106.078 18.9141 106.078 21.6875V21.7031C106.078 24.5 107.672 26.1797 110.32 26.1797ZM110.32 24.3906C109.102 24.3906 108.414 23.3984 108.414 21.7031V21.6875C108.414 20.0078 109.109 19 110.32 19C111.523 19 112.227 20.0078 112.227 21.6875V21.7031C112.227 23.3984 111.531 24.3906 110.32 24.3906ZM116.422 26H118.703V21.0234C118.703 19.8594 119.344 19.1016 120.398 19.1016C121.477 19.1016 121.977 19.7422 121.977 20.9531V26H124.258V20.4375C124.258 18.3828 123.227 17.2109 121.312 17.2109C120.086 17.2109 119.234 17.7969 118.844 18.7266H118.703V17.3984H116.422V26ZM130.039 26.0312C130.477 26.0312 130.898 25.9844 131.18 25.9297V24.2344C130.961 24.2578 130.805 24.2734 130.508 24.2734C129.734 24.2734 129.406 23.9297 129.406 23.1562V19.1172H131.18V17.3984H129.406V15.3438H127.102V17.3984H125.773V19.1172H127.102V23.6797C127.102 25.3516 127.945 26.0312 130.039 26.0312ZM134.242 16.0781C134.945 16.0781 135.523 15.5156 135.523 14.8125C135.523 14.1016 134.945 13.5391 134.242 13.5391C133.539 13.5391 132.953 14.1016 132.953 14.8125C132.953 15.5156 133.539 16.0781 134.242 16.0781ZM133.094 26H135.375V17.3984H133.094V26ZM137.672 26H139.953V21.0234C139.953 19.8594 140.594 19.1016 141.648 19.1016C142.727 19.1016 143.227 19.7422 143.227 20.9531V26H145.508V20.4375C145.508 18.3828 144.477 17.2109 142.562 17.2109C141.336 17.2109 140.484 17.7969 140.094 18.7266H139.953V17.3984H137.672V26ZM150.562 26.1797C151.789 26.1797 152.664 25.6094 153.055 24.6719H153.195V26H155.477V17.3984H153.195V22.3672C153.195 23.5312 152.586 24.2891 151.461 24.2891C150.383 24.2891 149.922 23.6562 149.922 22.4375V17.3984H147.641V22.9609C147.641 25.0078 148.633 26.1797 150.562 26.1797ZM161.547 26.1797C164.062 26.1797 165.172 24.7266 165.438 23.6484L165.453 23.5703H163.328L163.305 23.6172C163.148 23.9453 162.594 24.4766 161.594 24.4766C160.383 24.4766 159.625 23.6562 159.602 22.2422H165.523V21.5312C165.523 18.9297 163.961 17.2109 161.453 17.2109C158.945 17.2109 157.344 18.9688 157.344 21.7031V21.7109C157.344 24.4688 158.93 26.1797 161.547 26.1797ZM161.492 18.9219C162.484 18.9219 163.195 19.5625 163.336 20.8125H159.625C159.766 19.5938 160.5 18.9219 161.492 18.9219ZM173.148 26H175.539L177.062 20H177.203L178.742 26H181.164L183.453 17.3984H181.195L179.914 23.625H179.773L178.258 17.3984H176.086L174.578 23.625H174.438L173.156 17.3984H170.852L173.148 26ZM186.242 16.0781C186.945 16.0781 187.523 15.5156 187.523 14.8125C187.523 14.1016 186.945 13.5391 186.242 13.5391C185.539 13.5391 184.953 14.1016 184.953 14.8125C184.953 15.5156 185.539 16.0781 186.242 16.0781ZM185.094 26H187.375V17.3984H185.094V26ZM193.242 26.0312C193.68 26.0312 194.102 25.9844 194.383 25.9297V24.2344C194.164 24.2578 194.008 24.2734 193.711 24.2734C192.938 24.2734 192.609 23.9297 192.609 23.1562V19.1172H194.383V17.3984H192.609V15.3438H190.305V17.3984H188.977V19.1172H190.305V23.6797C190.305 25.3516 191.148 26.0312 193.242 26.0312ZM196.359 26H198.641V21.0234C198.641 19.8594 199.281 19.1016 200.336 19.1016C201.414 19.1016 201.914 19.7422 201.914 20.9531V26H204.195V20.4375C204.195 18.3828 203.164 17.2109 201.25 17.2109C200.023 17.2109 199.172 17.7969 198.781 18.7266H198.641V14.1094H196.359V26ZM210.758 26H213.117V21.5625H217.703V19.6953H213.117V16.6719H218.141V14.7266H210.758V26ZM222.047 26.1328C223.172 26.1328 224.078 25.6562 224.516 24.8594H224.656V26H226.906V20.125C226.906 18.2891 225.617 17.2109 223.336 17.2109C221.172 17.2109 219.75 18.2109 219.57 19.7188L219.562 19.7891H221.672L221.688 19.7578C221.867 19.25 222.391 18.9609 223.211 18.9609C224.148 18.9609 224.656 19.3828 224.656 20.125V20.8359L222.578 20.9609C220.438 21.0859 219.242 21.9922 219.242 23.5391V23.5547C219.242 25.1172 220.406 26.1328 222.047 26.1328ZM221.469 23.4141V23.3984C221.469 22.7734 221.945 22.4062 222.922 22.3438L224.656 22.2344V22.8672C224.656 23.7734 223.867 24.4688 222.812 24.4688C222.023 24.4688 221.469 24.0703 221.469 23.4141ZM232.93 26.1797C235.172 26.1797 236.516 24.9766 236.75 23.1016L236.758 23.0547H234.648L234.633 23.0859C234.43 23.9453 233.875 24.3906 232.938 24.3906C231.719 24.3906 231.039 23.4297 231.039 21.6875V21.6719C231.039 19.9531 231.711 19 232.938 19C233.914 19 234.484 19.5469 234.633 20.3828L234.641 20.3984H236.766V20.375C236.562 18.4531 235.211 17.2109 232.93 17.2109C230.234 17.2109 228.719 18.8438 228.719 21.6719V21.6875C228.719 24.5469 230.242 26.1797 232.93 26.1797ZM242.328 26.1797C244.844 26.1797 245.953 24.7266 246.219 23.6484L246.234 23.5703H244.109L244.086 23.6172C243.93 23.9453 243.375 24.4766 242.375 24.4766C241.164 24.4766 240.406 23.6562 240.383 22.2422H246.305V21.5312C246.305 18.9297 244.742 17.2109 242.234 17.2109C239.727 17.2109 238.125 18.9688 238.125 21.7031V21.7109C238.125 24.4688 239.711 26.1797 242.328 26.1797ZM242.273 18.9219C243.266 18.9219 243.977 19.5625 244.117 20.8125H240.406C240.547 19.5938 241.281 18.9219 242.273 18.9219ZM253.25 26.1328C255.398 26.1328 256.742 24.4531 256.742 21.7031V21.6875C256.742 18.9219 255.43 17.2578 253.25 17.2578C252.07 17.2578 251.109 17.8359 250.672 18.7734H250.531V14.1094H248.25V26H250.531V24.6641H250.672C251.117 25.5938 252.031 26.1328 253.25 26.1328ZM252.469 24.2422C251.266 24.2422 250.508 23.2891 250.508 21.7109V21.6953C250.508 20.1172 251.273 19.1484 252.469 19.1484C253.672 19.1484 254.422 20.1172 254.422 21.6875V21.7031C254.422 23.2891 253.68 24.2422 252.469 24.2422ZM262.414 26.1797C265.062 26.1797 266.656 24.5078 266.656 21.7031V21.6875C266.656 18.9062 265.039 17.2109 262.414 17.2109C259.789 17.2109 258.172 18.9141 258.172 21.6875V21.7031C258.172 24.5 259.766 26.1797 262.414 26.1797ZM262.414 24.3906C261.195 24.3906 260.508 23.3984 260.508 21.7031V21.6875C260.508 20.0078 261.203 19 262.414 19C263.617 19 264.32 20.0078 264.32 21.6875V21.7031C264.32 23.3984 263.625 24.3906 262.414 24.3906ZM272.336 26.1797C274.984 26.1797 276.578 24.5078 276.578 21.7031V21.6875C276.578 18.9062 274.961 17.2109 272.336 17.2109C269.711 17.2109 268.094 18.9141 268.094 21.6875V21.7031C268.094 24.5 269.688 26.1797 272.336 26.1797ZM272.336 24.3906C271.117 24.3906 270.43 23.3984 270.43 21.7031V21.6875C270.43 20.0078 271.125 19 272.336 19C273.539 19 274.242 20.0078 274.242 21.6875V21.7031C274.242 23.3984 273.547 24.3906 272.336 24.3906ZM278.516 26H280.797V23.1172L281.422 22.4531L283.93 26H286.625L283.094 21.0469L286.398 17.3984H283.812L280.938 20.7969H280.797V14.1094H278.516V26Z" fill="white"/>
</g>
<defs>
<clipPath id="clip0">
<rect width="223" height="21" fill="white" transform="translate(64.5 10)"/>
</clipPath>
<clipPath id="clip1">
<rect width="21" height="21" fill="white" transform="translate(64.5 10)"/>
</clipPath>
</defs>
</svg>
