<svg width="130" height="41" viewBox="0 0 130 41" fill="none" xmlns="http://www.w3.org/2000/svg">
<path d="M24.2734 26.2891C27.3516 26.2891 29.2734 24.4141 29.2734 21.4219V19.9922H24.5391V21.7109H26.9766L26.9688 21.9219C26.9219 23.3438 25.8594 24.2891 24.3125 24.2891C22.4531 24.2891 21.2734 22.7812 21.2734 20.3359V20.3203C21.2734 17.9219 22.3984 16.4375 24.2188 16.4375C25.5391 16.4375 26.5 17.1016 26.8203 18.2188L26.8359 18.2969H29.1797L29.1641 18.2188C28.8281 15.9688 26.8828 14.4375 24.2188 14.4375C20.9375 14.4375 18.8672 16.7266 18.8672 20.3438V20.3594C18.8672 24.0312 20.9219 26.2891 24.2734 26.2891ZM35.0938 26.1797C37.6094 26.1797 38.7188 24.7266 38.9844 23.6484L39 23.5703H36.875L36.8516 23.6172C36.6953 23.9453 36.1406 24.4766 35.1406 24.4766C33.9297 24.4766 33.1719 23.6562 33.1484 22.2422H39.0703V21.5312C39.0703 18.9297 37.5078 17.2109 35 17.2109C32.4922 17.2109 30.8906 18.9688 30.8906 21.7031V21.7109C30.8906 24.4688 32.4766 26.1797 35.0938 26.1797ZM35.0391 18.9219C36.0312 18.9219 36.7422 19.5625 36.8828 20.8125H33.1719C33.3125 19.5938 34.0469 18.9219 35.0391 18.9219ZM44.5078 26.0312C44.9453 26.0312 45.3672 25.9844 45.6484 25.9297V24.2344C45.4297 24.2578 45.2734 24.2734 44.9766 24.2734C44.2031 24.2734 43.875 23.9297 43.875 23.1562V19.1172H45.6484V17.3984H43.875V15.3438H41.5703V17.3984H40.2422V19.1172H41.5703V23.6797C41.5703 25.3516 42.4141 26.0312 44.5078 26.0312ZM55.9297 26.2891C58.7422 26.2891 60.4766 24.875 60.4766 22.6406V22.6328C60.4766 20.875 59.4375 19.9219 57.0547 19.4297L55.8594 19.1875C54.5312 18.9141 53.9844 18.4766 53.9844 17.7422V17.7344C53.9844 16.8906 54.7578 16.3594 55.9219 16.3516C57.1094 16.3516 57.8906 16.9141 58.0234 17.7188L58.0391 17.8125H60.2578L60.25 17.7109C60.1016 15.8281 58.5547 14.4375 55.9219 14.4375C53.4219 14.4375 51.625 15.8203 51.625 17.9141V17.9219C51.625 19.6328 52.6328 20.7266 54.9766 21.2031L56.1641 21.4453C57.5625 21.7344 58.1172 22.1484 58.1172 22.8906V22.8984C58.1172 23.7656 57.25 24.3672 55.9922 24.3672C54.6719 24.3672 53.7578 23.7969 53.6719 22.9531L53.6641 22.875H51.3906L51.3984 23C51.5312 25 53.2344 26.2891 55.9297 26.2891ZM66.0547 26.0312C66.4922 26.0312 66.9141 25.9844 67.1953 25.9297V24.2344C66.9766 24.2578 66.8203 24.2734 66.5234 24.2734C65.75 24.2734 65.4219 23.9297 65.4219 23.1562V19.1172H67.1953V17.3984H65.4219V15.3438H63.1172V17.3984H61.7891V19.1172H63.1172V23.6797C63.1172 25.3516 63.9609 26.0312 66.0547 26.0312ZM71.4375 26.1328C72.5625 26.1328 73.4688 25.6562 73.9062 24.8594H74.0469V26H76.2969V20.125C76.2969 18.2891 75.0078 17.2109 72.7266 17.2109C70.5625 17.2109 69.1406 18.2109 68.9609 19.7188L68.9531 19.7891H71.0625L71.0781 19.7578C71.2578 19.25 71.7812 18.9609 72.6016 18.9609C73.5391 18.9609 74.0469 19.3828 74.0469 20.125V20.8359L71.9688 20.9609C69.8281 21.0859 68.6328 21.9922 68.6328 23.5391V23.5547C68.6328 25.1172 69.7969 26.1328 71.4375 26.1328ZM70.8594 23.4141V23.3984C70.8594 22.7734 71.3359 22.4062 72.3125 22.3438L74.0469 22.2344V22.8672C74.0469 23.7734 73.2578 24.4688 72.2031 24.4688C71.4141 24.4688 70.8594 24.0703 70.8594 23.4141ZM78.5312 26H80.8125V21.1875C80.8125 19.9688 81.6328 19.2266 82.9297 19.2266C83.2812 19.2266 83.6328 19.2812 83.9766 19.3594V17.3672C83.75 17.3047 83.4297 17.2578 83.125 17.2578C82.0078 17.2578 81.2266 17.8047 80.9531 18.7344H80.8125V17.3984H78.5312V26ZM89.4297 26.0312C89.8672 26.0312 90.2891 25.9844 90.5703 25.9297V24.2344C90.3516 24.2578 90.1953 24.2734 89.8984 24.2734C89.125 24.2734 88.7969 23.9297 88.7969 23.1562V19.1172H90.5703V17.3984H88.7969V15.3438H86.4922V17.3984H85.1641V19.1172H86.4922V23.6797C86.4922 25.3516 87.3359 26.0312 89.4297 26.0312ZM96.1875 26.1797C98.7031 26.1797 99.8125 24.7266 100.078 23.6484L100.094 23.5703H97.9688L97.9453 23.6172C97.7891 23.9453 97.2344 24.4766 96.2344 24.4766C95.0234 24.4766 94.2656 23.6562 94.2422 22.2422H100.164V21.5312C100.164 18.9297 98.6016 17.2109 96.0938 17.2109C93.5859 17.2109 91.9844 18.9688 91.9844 21.7031V21.7109C91.9844 24.4688 93.5703 26.1797 96.1875 26.1797ZM96.1328 18.9219C97.125 18.9219 97.8359 19.5625 97.9766 20.8125H94.2656C94.4062 19.5938 95.1406 18.9219 96.1328 18.9219ZM105.102 26.1328C106.312 26.1328 107.227 25.5938 107.672 24.6641H107.812V26H110.094V14.1094H107.812V18.7734H107.672C107.242 17.8359 106.281 17.2578 105.102 17.2578C102.922 17.2578 101.609 18.9219 101.609 21.6875V21.7031C101.609 24.4531 102.953 26.1328 105.102 26.1328ZM105.875 24.2422C104.672 24.2422 103.93 23.2891 103.93 21.7031V21.6875C103.93 20.1172 104.672 19.1484 105.875 19.1484C107.078 19.1484 107.836 20.1172 107.836 21.6953V21.7109C107.836 23.2891 107.086 24.2422 105.875 24.2422Z" fill="#1B1B1B" fill-opacity="0.6"/>
<path d="M3 1H127V-1H3V1ZM129 3V38H131V3H129ZM127 40H3V42H127V40ZM1 38V3H-1V38H1ZM3 40C1.89543 40 1 39.1046 1 38H-1C-1 40.2091 0.790866 42 3 42V40ZM129 38C129 39.1046 128.105 40 127 40V42C129.209 42 131 40.2091 131 38H129ZM127 1C128.105 1 129 1.89543 129 3H131C131 0.790859 129.209 -1 127 -1V1ZM3 -1C0.790861 -1 -1 0.79086 -1 3H1C1 1.89543 1.89543 1 3 1V-1Z" fill="#1B1B1B" fill-opacity="0.6"/>
</svg>
