<svg width="352" height="41" viewBox="0 0 352 41" fill="none" xmlns="http://www.w3.org/2000/svg">
<mask id="mask0" mask-type="alpha" maskUnits="userSpaceOnUse" x="85" y="18" width="11" height="11">
<path d="M95.58 20.7386C95.58 19.9941 95.5133 19.2781 95.3891 18.5909H85.5V22.6525H91.151C90.9075 23.9649 90.1677 25.077 89.0558 25.8216V28.4561H92.4491C94.4346 26.6281 95.58 23.9363 95.58 20.7386Z" fill="white"/>
</mask>
<g mask="url(#mask0)">
<path fill-rule="evenodd" clip-rule="evenodd" d="M85.5 28.4561H95.58V18.5909H85.5V28.4561Z" fill="#5070A8"/>
</g>
<mask id="mask1" mask-type="alpha" maskUnits="userSpaceOnUse" x="76" y="22" width="17" height="9">
<path d="M85.4998 31C88.3347 31 90.7116 30.0598 92.4488 28.4562L89.0555 25.8216C88.1152 26.4516 86.9125 26.8239 85.4998 26.8239C82.765 26.8239 80.4502 24.9768 79.6246 22.495H76.1166V25.2155C77.8443 28.6471 81.3952 31 85.4998 31Z" fill="white"/>
</mask>
<g mask="url(#mask1)">
<path fill-rule="evenodd" clip-rule="evenodd" d="M76.1166 31H92.4488V22.495H76.1166V31Z" fill="#2F9E4F"/>
</g>
<mask id="mask2" mask-type="alpha" maskUnits="userSpaceOnUse" x="75" y="15" width="5" height="11">
<path d="M79.6248 22.4949C79.4147 21.865 79.2954 21.192 79.2954 20.4999C79.2954 19.8079 79.4147 19.135 79.6248 18.5049V15.7845H76.1168C75.4057 17.202 75 18.8056 75 20.4999C75 22.1943 75.4057 23.7979 76.1168 25.2154L79.6248 22.4949Z" fill="white"/>
</mask>
<g mask="url(#mask2)">
<path fill-rule="evenodd" clip-rule="evenodd" d="M75 25.2154H79.6248V15.7845H75V25.2154Z" fill="#EFB529"/>
</g>
<mask id="mask3" mask-type="alpha" maskUnits="userSpaceOnUse" x="76" y="10" width="17" height="9">
<path d="M85.4998 14.1761C87.0413 14.1761 88.4255 14.7059 89.5136 15.7464L92.5252 12.7348C90.7068 11.0405 88.33 10 85.4998 10C81.3952 10 77.8443 12.353 76.1166 15.7846L79.6246 18.505C80.4502 16.0232 82.765 14.1761 85.4998 14.1761Z" fill="white"/>
</mask>
<g mask="url(#mask3)">
<path fill-rule="evenodd" clip-rule="evenodd" d="M76.1166 18.505H92.5252V10H76.1166V18.505Z" fill="#D53E36"/>
</g>
<path d="M110.156 26.2891C112.875 26.2891 114.805 24.6797 115.047 22.3203L115.055 22.2344H112.758L112.742 22.2969C112.492 23.5 111.516 24.2891 110.164 24.2891C108.383 24.2891 107.281 22.7891 107.281 20.3672V20.3516C107.281 17.9297 108.383 16.4375 110.156 16.4375C111.5 16.4375 112.508 17.2969 112.75 18.5625V18.6172H115.047V18.5234C114.828 16.1406 112.828 14.4375 110.156 14.4375C106.883 14.4375 104.867 16.6953 104.867 20.3516V20.3672C104.867 24.0234 106.891 26.2891 110.156 26.2891ZM120.82 26.1797C123.469 26.1797 125.062 24.5078 125.062 21.7031V21.6875C125.062 18.9062 123.445 17.2109 120.82 17.2109C118.195 17.2109 116.578 18.9141 116.578 21.6875V21.7031C116.578 24.5 118.172 26.1797 120.82 26.1797ZM120.82 24.3906C119.602 24.3906 118.914 23.3984 118.914 21.7031V21.6875C118.914 20.0078 119.609 19 120.82 19C122.023 19 122.727 20.0078 122.727 21.6875V21.7031C122.727 23.3984 122.031 24.3906 120.82 24.3906ZM126.922 26H129.203V21.0234C129.203 19.8594 129.844 19.1016 130.898 19.1016C131.977 19.1016 132.477 19.7422 132.477 20.9531V26H134.758V20.4375C134.758 18.3828 133.727 17.2109 131.812 17.2109C130.586 17.2109 129.734 17.7969 129.344 18.7266H129.203V17.3984H126.922V26ZM140.539 26.0312C140.977 26.0312 141.398 25.9844 141.68 25.9297V24.2344C141.461 24.2578 141.305 24.2734 141.008 24.2734C140.234 24.2734 139.906 23.9297 139.906 23.1562V19.1172H141.68V17.3984H139.906V15.3438H137.602V17.3984H136.273V19.1172H137.602V23.6797C137.602 25.3516 138.445 26.0312 140.539 26.0312ZM144.742 16.0781C145.445 16.0781 146.023 15.5156 146.023 14.8125C146.023 14.1016 145.445 13.5391 144.742 13.5391C144.039 13.5391 143.453 14.1016 143.453 14.8125C143.453 15.5156 144.039 16.0781 144.742 16.0781ZM143.594 26H145.875V17.3984H143.594V26ZM148.172 26H150.453V21.0234C150.453 19.8594 151.094 19.1016 152.148 19.1016C153.227 19.1016 153.727 19.7422 153.727 20.9531V26H156.008V20.4375C156.008 18.3828 154.977 17.2109 153.062 17.2109C151.836 17.2109 150.984 17.7969 150.594 18.7266H150.453V17.3984H148.172V26ZM161.062 26.1797C162.289 26.1797 163.164 25.6094 163.555 24.6719H163.695V26H165.977V17.3984H163.695V22.3672C163.695 23.5312 163.086 24.2891 161.961 24.2891C160.883 24.2891 160.422 23.6562 160.422 22.4375V17.3984H158.141V22.9609C158.141 25.0078 159.133 26.1797 161.062 26.1797ZM172.047 26.1797C174.562 26.1797 175.672 24.7266 175.938 23.6484L175.953 23.5703H173.828L173.805 23.6172C173.648 23.9453 173.094 24.4766 172.094 24.4766C170.883 24.4766 170.125 23.6562 170.102 22.2422H176.023V21.5312C176.023 18.9297 174.461 17.2109 171.953 17.2109C169.445 17.2109 167.844 18.9688 167.844 21.7031V21.7109C167.844 24.4688 169.43 26.1797 172.047 26.1797ZM171.992 18.9219C172.984 18.9219 173.695 19.5625 173.836 20.8125H170.125C170.266 19.5938 171 18.9219 171.992 18.9219ZM183.648 26H186.039L187.562 20H187.703L189.242 26H191.664L193.953 17.3984H191.695L190.414 23.625H190.273L188.758 17.3984H186.586L185.078 23.625H184.938L183.656 17.3984H181.352L183.648 26ZM196.742 16.0781C197.445 16.0781 198.023 15.5156 198.023 14.8125C198.023 14.1016 197.445 13.5391 196.742 13.5391C196.039 13.5391 195.453 14.1016 195.453 14.8125C195.453 15.5156 196.039 16.0781 196.742 16.0781ZM195.594 26H197.875V17.3984H195.594V26ZM203.742 26.0312C204.18 26.0312 204.602 25.9844 204.883 25.9297V24.2344C204.664 24.2578 204.508 24.2734 204.211 24.2734C203.438 24.2734 203.109 23.9297 203.109 23.1562V19.1172H204.883V17.3984H203.109V15.3438H200.805V17.3984H199.477V19.1172H200.805V23.6797C200.805 25.3516 201.648 26.0312 203.742 26.0312ZM206.859 26H209.141V21.0234C209.141 19.8594 209.781 19.1016 210.836 19.1016C211.914 19.1016 212.414 19.7422 212.414 20.9531V26H214.695V20.4375C214.695 18.3828 213.664 17.2109 211.75 17.2109C210.523 17.2109 209.672 17.7969 209.281 18.7266H209.141V14.1094H206.859V26ZM226.164 26.2891C229.242 26.2891 231.164 24.4141 231.164 21.4219V19.9922H226.43V21.7109H228.867L228.859 21.9219C228.812 23.3438 227.75 24.2891 226.203 24.2891C224.344 24.2891 223.164 22.7812 223.164 20.3359V20.3203C223.164 17.9219 224.289 16.4375 226.109 16.4375C227.43 16.4375 228.391 17.1016 228.711 18.2188L228.727 18.2969H231.07L231.055 18.2188C230.719 15.9688 228.773 14.4375 226.109 14.4375C222.828 14.4375 220.758 16.7266 220.758 20.3438V20.3594C220.758 24.0312 222.812 26.2891 226.164 26.2891ZM237.023 26.1797C239.672 26.1797 241.266 24.5078 241.266 21.7031V21.6875C241.266 18.9062 239.648 17.2109 237.023 17.2109C234.398 17.2109 232.781 18.9141 232.781 21.6875V21.7031C232.781 24.5 234.375 26.1797 237.023 26.1797ZM237.023 24.3906C235.805 24.3906 235.117 23.3984 235.117 21.7031V21.6875C235.117 20.0078 235.812 19 237.023 19C238.227 19 238.93 20.0078 238.93 21.6875V21.7031C238.93 23.3984 238.234 24.3906 237.023 24.3906ZM246.945 26.1797C249.594 26.1797 251.188 24.5078 251.188 21.7031V21.6875C251.188 18.9062 249.57 17.2109 246.945 17.2109C244.32 17.2109 242.703 18.9141 242.703 21.6875V21.7031C242.703 24.5 244.297 26.1797 246.945 26.1797ZM246.945 24.3906C245.727 24.3906 245.039 23.3984 245.039 21.7031V21.6875C245.039 20.0078 245.734 19 246.945 19C248.148 19 248.852 20.0078 248.852 21.6875V21.7031C248.852 23.3984 248.156 24.3906 246.945 24.3906ZM256.844 29.0234C259.445 29.0234 261.094 27.75 261.094 25.7344V17.3984H258.812V18.8047H258.703C258.242 17.8359 257.32 17.2578 256.141 17.2578C253.938 17.2578 252.602 18.9609 252.602 21.4922V21.5078C252.602 23.9531 253.938 25.625 256.102 25.625C257.297 25.625 258.203 25.1328 258.68 24.2266H258.82V25.8281C258.82 26.8281 258.109 27.3984 256.891 27.3984C255.875 27.3984 255.281 27.0547 255.156 26.5547L255.148 26.5234H252.891V26.5625C253.078 28.0234 254.461 29.0234 256.844 29.0234ZM256.875 23.875C255.641 23.875 254.938 22.9141 254.938 21.5V21.4844C254.938 20.0703 255.648 19.1094 256.875 19.1094C258.102 19.1094 258.844 20.0703 258.844 21.4844V21.5C258.844 22.9141 258.109 23.875 256.875 23.875ZM263.453 26H265.734V14.1094H263.453V26ZM271.875 26.1797C274.391 26.1797 275.5 24.7266 275.766 23.6484L275.781 23.5703H273.656L273.633 23.6172C273.477 23.9453 272.922 24.4766 271.922 24.4766C270.711 24.4766 269.953 23.6562 269.93 22.2422H275.852V21.5312C275.852 18.9297 274.289 17.2109 271.781 17.2109C269.273 17.2109 267.672 18.9688 267.672 21.7031V21.7109C267.672 24.4688 269.258 26.1797 271.875 26.1797ZM271.82 18.9219C272.812 18.9219 273.523 19.5625 273.664 20.8125H269.953C270.094 19.5938 270.828 18.9219 271.82 18.9219Z" fill="#1B1B1B"/>
<path d="M3 1H349V-1H3V1ZM351 3V38H353V3H351ZM349 40H3.00001V42H349V40ZM1 38V3H-1V38H1ZM3.00001 40C1.89543 40 1 39.1046 1 38H-1C-1 40.2091 0.790872 42 3.00001 42V40ZM351 38C351 39.1046 350.105 40 349 40V42C351.209 42 353 40.2091 353 38H351ZM349 1C350.105 1 351 1.89543 351 3H353C353 0.790858 351.209 -1 349 -1V1ZM3 -1C0.790861 -1 -1 0.79086 -1 3H1C1 1.89543 1.89543 1 3 1V-1Z" fill="#1B1B1B" fill-opacity="0.1"/>
</svg>
