<svg width="22" height="18" viewBox="0 0 22 18" fill="none" xmlns="http://www.w3.org/2000/svg">
<path fill-rule="evenodd" clip-rule="evenodd" d="M20 0.5H2C0.9 0.5 0 1.4 0 2.5V15.5C0 16.6 0.9 17.5 2 17.5H20C21.1 17.5 22 16.6 22 15.5V2.5C22 1.4 21.1 0.5 20 0.5ZM20 14.5C20 15.05 19.55 15.5 19 15.5H11V2.5H19C19.55 2.5 20 2.95 20 3.5V14.5ZM12.75 6H18.25C18.66 6 19 6.34 19 6.75C19 7.16 18.66 7.5 18.25 7.5H12.75C12.34 7.5 12 7.16 12 6.75C12 6.34 12.34 6 12.75 6ZM18.25 8.5H12.75C12.34 8.5 12 8.84 12 9.25C12 9.66 12.34 10 12.75 10H18.25C18.66 10 19 9.66 19 9.25C19 8.84 18.66 8.5 18.25 8.5ZM12.75 11H18.25C18.66 11 19 11.34 19 11.75C19 12.16 18.66 12.5 18.25 12.5H12.75C12.34 12.5 12 12.16 12 11.75C12 11.34 12.34 11 12.75 11Z" fill="#1B1B1B" fill-opacity="0.6"/>
</svg>
