<svg width="18" height="18" viewBox="0 0 18 18" fill="none" xmlns="http://www.w3.org/2000/svg">
<path fill-rule="evenodd" clip-rule="evenodd" d="M11 1.65179V1.45179C11 0.821794 11.63 0.371794 12.21 0.601794C15.6 1.89179 18 5.16179 18 9.00179C18 12.8418 15.6 16.1118 12.21 17.4018C11.63 17.6218 11 17.1818 11 16.5518V16.3518C11 15.9718 11.24 15.6418 11.6 15.5018C14.18 14.4718 16 11.9418 16 9.00179C16 6.06179 14.18 3.53179 11.6 2.50179C11.25 2.36179 11 2.03179 11 1.65179ZM0 7.00179V11.0018C0 11.5518 0.45 12.0018 1 12.0018H4L7.29 15.2918C7.92 15.9218 9 15.4718 9 14.5818V3.41179C9 2.52179 7.92 2.07179 7.29 2.70179L4 6.00179H1C0.45 6.00179 0 6.45179 0 7.00179ZM13.5 9.00179C13.5 7.23179 12.48 5.71179 11 4.97179V13.0218C12.48 12.2918 13.5 10.7718 13.5 9.00179Z" fill="#1B1B1B" fill-opacity="0.6"/>
</svg>
