<svg width="18" height="18" viewBox="0 0 18 18" fill="none" xmlns="http://www.w3.org/2000/svg">
<path fill-rule="evenodd" clip-rule="evenodd" d="M17 0H1C0.45 0 0 0.45 0 1V17C0 17.55 0.45 18 1 18H17C17.55 18 18 17.55 18 17V1C18 0.45 17.55 0 17 0ZM6 4H4V6H6V4ZM13 6H9C8.45 6 8 5.55 8 5C8 4.45 8.45 4 9 4H13C13.55 4 14 4.45 14 5C14 5.55 13.55 6 13 6ZM13 10H9C8.45 10 8 9.55 8 9C8 8.45 8.45 8 9 8H13C13.55 8 14 8.45 14 9C14 9.55 13.55 10 13 10ZM9 14H13C13.55 14 14 13.55 14 13C14 12.45 13.55 12 13 12H9C8.45 12 8 12.45 8 13C8 13.55 8.45 14 9 14ZM4 8H6V10H4V8ZM6 12H4V14H6V12ZM2 16H16V2H2V16Z" fill="#1B1B1B" fill-opacity="0.6"/>
</svg>
