<svg width="22" height="20" viewBox="0 0 22 20" fill="none" xmlns="http://www.w3.org/2000/svg">
<path fill-rule="evenodd" clip-rule="evenodd" d="M20 3.9001H12.41L15.35 0.960098C15.55 0.760098 15.55 0.450098 15.35 0.250098C15.15 0.0500977 14.84 0.0500977 14.64 0.250098L11 3.8901L7.36 0.250098C7.16 0.0500977 6.85 0.0500977 6.65 0.250098C6.45 0.450098 6.45 0.760098 6.65 0.960098L9.59 3.9001H2C0.9 3.9001 0 4.7901 0 5.9001V17.9001C0 19.0001 0.9 19.9001 2 19.9001H20C21.1 19.9001 22 19.0001 22 17.9001V5.9001C22 4.7901 21.1 3.9001 20 3.9001ZM9.5 15.0501L13.48 12.7701C14.15 12.3901 14.15 11.4201 13.48 11.0301L9.5 8.7501C8.83 8.3701 8 8.8601 8 9.6201V14.1701C8 14.9401 8.83 15.4301 9.5 15.0501ZM3 17.9001H19C19.55 17.9001 20 17.4501 20 16.9001V6.9001C20 6.3501 19.55 5.9001 19 5.9001H3C2.45 5.9001 2 6.3501 2 6.9001V16.9001C2 17.4501 2.45 17.9001 3 17.9001Z" fill="#1B1B1B" fill-opacity="0.6"/>
</svg>
