<svg width="116" height="41" viewBox="0 0 116 41" fill="none" xmlns="http://www.w3.org/2000/svg">
<path d="M0 3C0 1.34315 1.34315 0 3 0H113C114.657 0 116 1.34315 116 3V38C116 39.6569 114.657 41 113 41H3C1.34315 41 0 39.6569 0 38V3Z" fill="#C5322A"/>
<path d="M22.3984 26.2891C24.8359 26.2891 26.25 24.9062 26.25 22.5312V14.7266H23.8906V22.5156C23.8906 23.6484 23.3672 24.25 22.3672 24.25C21.4453 24.25 20.9297 23.6406 20.8828 22.7734V22.7266H18.5938V22.7891C18.6562 24.9062 20.0703 26.2891 22.3984 26.2891ZM32.3828 26.1797C35.0312 26.1797 36.625 24.5078 36.625 21.7031V21.6875C36.625 18.9062 35.0078 17.2109 32.3828 17.2109C29.7578 17.2109 28.1406 18.9141 28.1406 21.6875V21.7031C28.1406 24.5 29.7344 26.1797 32.3828 26.1797ZM32.3828 24.3906C31.1641 24.3906 30.4766 23.3984 30.4766 21.7031V21.6875C30.4766 20.0078 31.1719 19 32.3828 19C33.5859 19 34.2891 20.0078 34.2891 21.6875V21.7031C34.2891 23.3984 33.5938 24.3906 32.3828 24.3906ZM39.6484 16.0781C40.3516 16.0781 40.9297 15.5156 40.9297 14.8125C40.9297 14.1016 40.3516 13.5391 39.6484 13.5391C38.9453 13.5391 38.3594 14.1016 38.3594 14.8125C38.3594 15.5156 38.9453 16.0781 39.6484 16.0781ZM38.5 26H40.7812V17.3984H38.5V26ZM43.0781 26H45.3594V21.0234C45.3594 19.8594 46 19.1016 47.0547 19.1016C48.1328 19.1016 48.6328 19.7422 48.6328 20.9531V26H50.9141V20.4375C50.9141 18.3828 49.8828 17.2109 47.9688 17.2109C46.7422 17.2109 45.8906 17.7969 45.5 18.7266H45.3594V17.3984H43.0781V26ZM57.4766 26H59.8359V22.5547L60.9531 21.2109L64.2266 26H67.0547L62.6562 19.6641L66.7656 14.7266H64.1406L59.9766 19.7891H59.8359V14.7266H57.4766V26ZM68.6875 26H70.9688V14.1094H68.6875V26ZM77.1094 26.1797C79.625 26.1797 80.7344 24.7266 81 23.6484L81.0156 23.5703H78.8906L78.8672 23.6172C78.7109 23.9453 78.1562 24.4766 77.1562 24.4766C75.9453 24.4766 75.1875 23.6562 75.1641 22.2422H81.0859V21.5312C81.0859 18.9297 79.5234 17.2109 77.0156 17.2109C74.5078 17.2109 72.9062 18.9688 72.9062 21.7031V21.7109C72.9062 24.4688 74.4922 26.1797 77.1094 26.1797ZM77.0547 18.9219C78.0469 18.9219 78.7578 19.5625 78.8984 20.8125H75.1875C75.3281 19.5938 76.0625 18.9219 77.0547 18.9219ZM84.9688 26H87.5312L90.5078 17.3984H88.1094L86.3438 23.8672H86.2031L84.4219 17.3984H81.9766L84.9688 26ZM92.0469 26H94.3281V21.1875C94.3281 19.9688 95.1484 19.2266 96.4453 19.2266C96.7969 19.2266 97.1484 19.2812 97.4922 19.3594V17.3672C97.2656 17.3047 96.9453 17.2578 96.6406 17.2578C95.5234 17.2578 94.7422 17.8047 94.4688 18.7344H94.3281V17.3984H92.0469V26Z" fill="white"/>
</svg>
