<svg width="100" height="32" viewBox="0 0 100 32" fill="none" xmlns="http://www.w3.org/2000/svg">
<path d="M22.5566 18.459V20H17.0254V11.5449H18.7949V18.459H22.5566ZM26.4941 14.7031C26.0996 14.7031 25.7734 14.8301 25.5156 15.084C25.2617 15.3379 25.1191 15.6738 25.0879 16.0918H27.8418C27.8223 15.6621 27.6914 15.3242 27.4492 15.0781C27.2109 14.8281 26.8926 14.7031 26.4941 14.7031ZM27.877 18.1602H29.4648C29.3359 18.7734 29.0078 19.2578 28.4805 19.6133C27.957 19.9648 27.3008 20.1406 26.5117 20.1406C25.5273 20.1406 24.7598 19.8477 24.209 19.2617C23.6582 18.6719 23.3828 17.8516 23.3828 16.8008C23.3828 15.75 23.6602 14.9199 24.2148 14.3105C24.7695 13.7012 25.5273 13.3965 26.4883 13.3965C27.4414 13.3965 28.1836 13.6836 28.7148 14.2578C29.25 14.832 29.5176 15.6328 29.5176 16.6602V17.1816H25.082V17.2695C25.0938 17.75 25.2305 18.1309 25.4922 18.4121C25.7578 18.6895 26.1133 18.8281 26.5586 18.8281C26.8945 18.8281 27.1758 18.7715 27.4023 18.6582C27.6289 18.541 27.7871 18.375 27.877 18.1602ZM33.25 18.8164C33.6445 18.8164 33.9746 18.7051 34.2402 18.4824C34.5059 18.2598 34.6387 17.9844 34.6387 17.6562V17.1816L33.332 17.2637C32.6055 17.3145 32.2422 17.5742 32.2422 18.043C32.2422 18.2812 32.334 18.4707 32.5176 18.6113C32.7051 18.748 32.9492 18.8164 33.25 18.8164ZM32.6875 20.0996C32.0625 20.0996 31.5527 19.9219 31.1582 19.5664C30.7676 19.2109 30.5723 18.7402 30.5723 18.1543C30.5723 17.5723 30.7871 17.1152 31.2168 16.7832C31.6504 16.4473 32.2695 16.2559 33.0742 16.209L34.6387 16.1152V15.5879C34.6387 15.3184 34.5449 15.1113 34.3574 14.9668C34.1699 14.8184 33.9004 14.7441 33.5488 14.7441C32.916 14.7441 32.5273 14.9434 32.3828 15.3418H30.8125C30.8672 14.7441 31.1484 14.2715 31.6562 13.9238C32.168 13.5723 32.8301 13.3965 33.6426 13.3965C34.4941 13.3965 35.1523 13.5879 35.6172 13.9707C36.0859 14.3535 36.3203 14.8926 36.3203 15.5879V20H34.668V19.1562H34.5625C34.3945 19.4531 34.1445 19.6855 33.8125 19.8535C33.4805 20.0176 33.1055 20.0996 32.6875 20.0996ZM37.9961 20V13.5371H39.6484V14.5684H39.7539C39.8398 14.2402 40.0352 13.9688 40.3398 13.7539C40.6484 13.5391 41.0059 13.4316 41.4121 13.4316C41.7051 13.4316 41.9277 13.459 42.0801 13.5137V15.0664C41.9004 14.9961 41.6309 14.9609 41.2715 14.9609C40.7988 14.9609 40.418 15.0918 40.1289 15.3535C39.8438 15.6152 39.7012 15.9707 39.7012 16.4199V20H37.9961ZM43.2812 20V13.5371H44.9336V14.5742H45.0391C45.1914 14.2031 45.4297 13.9141 45.7539 13.707C46.082 13.5 46.4805 13.3965 46.9492 13.3965C47.6641 13.3965 48.2109 13.6074 48.5898 14.0293C48.9688 14.4473 49.1582 15.0449 49.1582 15.8223V20H47.4531V16.2266C47.4531 15.3203 47.0566 14.8672 46.2637 14.8672C45.8691 14.8672 45.5566 14.9961 45.3262 15.2539C45.0996 15.5078 44.9863 15.8477 44.9863 16.2734V20H43.2812ZM63.0332 20H61.3926V14.3457H61.2988L59.1484 19.5137H57.9707L55.8145 14.3457H55.7207V20H54.0801V11.5449H56.166L58.5039 17.2285H58.6094L60.9531 11.5449H63.0332V20ZM70.1113 19.2441C69.5488 19.8418 68.7715 20.1406 67.7793 20.1406C66.7871 20.1406 66.0078 19.8418 65.4414 19.2441C64.8789 18.6465 64.5977 17.8203 64.5977 16.7656C64.5977 15.7188 64.8809 14.8965 65.4473 14.2988C66.0176 13.6973 66.7949 13.3965 67.7793 13.3965C68.7637 13.3965 69.5391 13.6973 70.1055 14.2988C70.6758 14.8965 70.9609 15.7188 70.9609 16.7656C70.9609 17.8203 70.6777 18.6465 70.1113 19.2441ZM67.7793 18.7461C68.2324 18.7461 68.584 18.5742 68.834 18.2305C69.084 17.8828 69.209 17.3945 69.209 16.7656C69.209 16.1445 69.082 15.6602 68.8281 15.3125C68.5781 14.9648 68.2285 14.791 67.7793 14.791C67.3262 14.791 66.9746 14.9648 66.7246 15.3125C66.4746 15.6602 66.3496 16.1445 66.3496 16.7656C66.3496 17.3945 66.4727 17.8828 66.7188 18.2305C66.9688 18.5742 67.3223 18.7461 67.7793 18.7461ZM72.3555 20V13.5371H74.0078V14.5684H74.1133C74.1992 14.2402 74.3945 13.9688 74.6992 13.7539C75.0078 13.5391 75.3652 13.4316 75.7715 13.4316C76.0645 13.4316 76.2871 13.459 76.4395 13.5137V15.0664C76.2598 14.9961 75.9902 14.9609 75.6309 14.9609C75.1582 14.9609 74.7773 15.0918 74.4883 15.3535C74.2031 15.6152 74.0605 15.9707 74.0605 16.4199V20H72.3555ZM80.2246 14.7031C79.8301 14.7031 79.5039 14.8301 79.2461 15.084C78.9922 15.3379 78.8496 15.6738 78.8184 16.0918H81.5723C81.5527 15.6621 81.4219 15.3242 81.1797 15.0781C80.9414 14.8281 80.623 14.7031 80.2246 14.7031ZM81.6074 18.1602H83.1953C83.0664 18.7734 82.7383 19.2578 82.2109 19.6133C81.6875 19.9648 81.0312 20.1406 80.2422 20.1406C79.2578 20.1406 78.4902 19.8477 77.9395 19.2617C77.3887 18.6719 77.1133 17.8516 77.1133 16.8008C77.1133 15.75 77.3906 14.9199 77.9453 14.3105C78.5 13.7012 79.2578 13.3965 80.2188 13.3965C81.1719 13.3965 81.9141 13.6836 82.4453 14.2578C82.9805 14.832 83.248 15.6328 83.248 16.6602V17.1816H78.8125V17.2695C78.8242 17.75 78.9609 18.1309 79.2227 18.4121C79.4883 18.6895 79.8438 18.8281 80.2891 18.8281C80.625 18.8281 80.9062 18.7715 81.1328 18.6582C81.3594 18.541 81.5176 18.375 81.6074 18.1602Z" fill="#FFD130"/>
<rect x="0.5" y="0.5" width="99" height="31" rx="2.5" stroke="#FFD130"/>
</svg>
