<svg width="139" height="32" viewBox="0 0 139 32" fill="none" xmlns="http://www.w3.org/2000/svg">
<path d="M17.0254 20H22.5566V18.541H18.7949V11.5449H17.0254V20ZM26.5645 20.1348C28.5508 20.1348 29.7461 18.8809 29.7461 16.7773V16.7656C29.7461 14.6797 28.5332 13.4082 26.5645 13.4082C24.5957 13.4082 23.3828 14.6855 23.3828 16.7656V16.7773C23.3828 18.875 24.5781 20.1348 26.5645 20.1348ZM26.5645 18.793C25.6504 18.793 25.1348 18.0488 25.1348 16.7773V16.7656C25.1348 15.5059 25.6562 14.75 26.5645 14.75C27.4668 14.75 27.9941 15.5059 27.9941 16.7656V16.7773C27.9941 18.0488 27.4727 18.793 26.5645 18.793ZM32.8984 20.0996C33.7422 20.0996 34.4219 19.7422 34.75 19.1445H34.8555V20H36.543V15.5938C36.543 14.2168 35.5762 13.4082 33.8652 13.4082C32.2422 13.4082 31.1758 14.1582 31.041 15.2891L31.0352 15.3418H32.6172L32.6289 15.3184C32.7637 14.9375 33.1562 14.7207 33.7715 14.7207C34.4746 14.7207 34.8555 15.0371 34.8555 15.5938V16.127L33.2969 16.2207C31.6914 16.3145 30.7949 16.9941 30.7949 18.1543V18.166C30.7949 19.3379 31.668 20.0996 32.8984 20.0996ZM32.4648 18.0605V18.0488C32.4648 17.5801 32.8223 17.3047 33.5547 17.2578L34.8555 17.1758V17.6504C34.8555 18.3301 34.2637 18.8516 33.4727 18.8516C32.8809 18.8516 32.4648 18.5527 32.4648 18.0605ZM40.5215 20.0996C41.4297 20.0996 42.1152 19.6953 42.4492 18.998H42.5547V20H44.2656V11.082H42.5547V14.5801H42.4492C42.127 13.877 41.4062 13.4434 40.5215 13.4434C38.8867 13.4434 37.9023 14.6914 37.9023 16.7656V16.7773C37.9023 18.8398 38.9102 20.0996 40.5215 20.0996ZM41.1016 18.6816C40.1992 18.6816 39.6426 17.9668 39.6426 16.7773V16.7656C39.6426 15.5879 40.1992 14.8613 41.1016 14.8613C42.0039 14.8613 42.5723 15.5879 42.5723 16.7715V16.7832C42.5723 17.9668 42.0098 18.6816 41.1016 18.6816ZM49.1289 20H50.8398V16.1094C50.8398 15.3711 51.3086 14.8262 51.9766 14.8262C52.6445 14.8262 53.0371 15.2305 53.0371 15.9219V20H54.748V16.0332C54.748 15.3359 55.1934 14.8262 55.8848 14.8262C56.5996 14.8262 56.9512 15.2188 56.9512 15.998V20H58.6621V15.5703C58.6621 14.2402 57.8594 13.4082 56.5762 13.4082C55.6738 13.4082 54.9238 13.8828 54.6309 14.5977H54.5254C54.2617 13.8535 53.6113 13.4082 52.7324 13.4082C51.8887 13.4082 51.2207 13.8301 50.9453 14.5566H50.8398V13.5488H49.1289V20ZM63.1855 20.1348C65.1719 20.1348 66.3672 18.8809 66.3672 16.7773V16.7656C66.3672 14.6797 65.1543 13.4082 63.1855 13.4082C61.2168 13.4082 60.0039 14.6855 60.0039 16.7656V16.7773C60.0039 18.875 61.1992 20.1348 63.1855 20.1348ZM63.1855 18.793C62.2715 18.793 61.7559 18.0488 61.7559 16.7773V16.7656C61.7559 15.5059 62.2773 14.75 63.1855 14.75C64.0879 14.75 64.6152 15.5059 64.6152 16.7656V16.7773C64.6152 18.0488 64.0938 18.793 63.1855 18.793ZM67.7617 20H69.4727V16.3906C69.4727 15.4766 70.0879 14.9199 71.0605 14.9199C71.3242 14.9199 71.5879 14.9609 71.8457 15.0195V13.5254C71.6758 13.4785 71.4355 13.4434 71.207 13.4434C70.3691 13.4434 69.7832 13.8535 69.5781 14.5508H69.4727V13.5488H67.7617V20ZM75.6719 20.1348C77.5586 20.1348 78.3906 19.0449 78.5898 18.2363L78.6016 18.1777H77.0078L76.9902 18.2129C76.873 18.459 76.457 18.8574 75.707 18.8574C74.7988 18.8574 74.2305 18.2422 74.2129 17.1816H78.6543V16.6484C78.6543 14.6973 77.4824 13.4082 75.6016 13.4082C73.7207 13.4082 72.5195 14.7266 72.5195 16.7773V16.7832C72.5195 18.8516 73.709 20.1348 75.6719 20.1348ZM75.6309 14.6914C76.375 14.6914 76.9082 15.1719 77.0137 16.1094H74.2305C74.3359 15.1953 74.8867 14.6914 75.6309 14.6914ZM83.1484 20H84.8594V16.3906C84.8594 15.4766 85.4746 14.9199 86.4473 14.9199C86.7109 14.9199 86.9746 14.9609 87.2324 15.0195V13.5254C87.0625 13.4785 86.8223 13.4434 86.5938 13.4434C85.7559 13.4434 85.1699 13.8535 84.9648 14.5508H84.8594V13.5488H83.1484V20ZM91.0586 20.1348C92.9453 20.1348 93.7773 19.0449 93.9766 18.2363L93.9883 18.1777H92.3945L92.377 18.2129C92.2598 18.459 91.8438 18.8574 91.0938 18.8574C90.1855 18.8574 89.6172 18.2422 89.5996 17.1816H94.041V16.6484C94.041 14.6973 92.8691 13.4082 90.9883 13.4082C89.1074 13.4082 87.9062 14.7266 87.9062 16.7773V16.7832C87.9062 18.8516 89.0957 20.1348 91.0586 20.1348ZM91.0176 14.6914C91.7617 14.6914 92.2949 15.1719 92.4004 16.1094H89.6172C89.7227 15.1953 90.2734 14.6914 91.0176 14.6914ZM96.9531 20H98.875L101.107 13.5488H99.3086L97.9844 18.4004H97.8789L96.543 13.5488H94.709L96.9531 20ZM103.135 12.5586C103.662 12.5586 104.096 12.1367 104.096 11.6094C104.096 11.0762 103.662 10.6543 103.135 10.6543C102.607 10.6543 102.168 11.0762 102.168 11.6094C102.168 12.1367 102.607 12.5586 103.135 12.5586ZM102.273 20H103.984V13.5488H102.273V20ZM108.543 20.1348C110.43 20.1348 111.262 19.0449 111.461 18.2363L111.473 18.1777H109.879L109.861 18.2129C109.744 18.459 109.328 18.8574 108.578 18.8574C107.67 18.8574 107.102 18.2422 107.084 17.1816H111.525V16.6484C111.525 14.6973 110.354 13.4082 108.473 13.4082C106.592 13.4082 105.391 14.7266 105.391 16.7773V16.7832C105.391 18.8516 106.58 20.1348 108.543 20.1348ZM108.502 14.6914C109.246 14.6914 109.779 15.1719 109.885 16.1094H107.102C107.207 15.1953 107.758 14.6914 108.502 14.6914ZM114.033 20H115.826L116.969 15.5H117.074L118.229 20H120.045L121.762 13.5488H120.068L119.107 18.2188H119.002L117.865 13.5488H116.236L115.105 18.2188H115L114.039 13.5488H112.311L114.033 20Z" fill="#1B1B1B" fill-opacity="0.9"/>
<rect x="0.5" y="0.5" width="138" height="31" rx="2.5" stroke="#1B1B1B" stroke-opacity="0.9"/>
</svg>
