<svg width="15" height="19" viewBox="0 0 15 19" fill="none" xmlns="http://www.w3.org/2000/svg">
<path fill-rule="evenodd" clip-rule="evenodd" d="M12.75 6.4375H11.875V4.6875C11.875 2.2725 9.915 0.3125 7.5 0.3125C5.085 0.3125 3.125 2.2725 3.125 4.6875V6.4375H2.25C1.2875 6.4375 0.5 7.225 0.5 8.1875V16.9375C0.5 17.9 1.2875 18.6875 2.25 18.6875H12.75C13.7125 18.6875 14.5 17.9 14.5 16.9375V8.1875C14.5 7.225 13.7125 6.4375 12.75 6.4375ZM7.5 14.3125C6.5375 14.3125 5.75 13.525 5.75 12.5625C5.75 11.6 6.5375 10.8125 7.5 10.8125C8.4625 10.8125 9.25 11.6 9.25 12.5625C9.25 13.525 8.4625 14.3125 7.5 14.3125ZM4.875 4.6875V6.4375H10.125V4.6875C10.125 3.235 8.9525 2.0625 7.5 2.0625C6.0475 2.0625 4.875 3.235 4.875 4.6875Z" fill="#1B1B1B" fill-opacity="0.6"/>
</svg>
