<svg width="352" height="41" viewBox="0 0 352 41" fill="none" xmlns="http://www.w3.org/2000/svg">
<path d="M0 3C0 1.34315 1.34315 0 3 0H349C350.657 0 352 1.34315 352 3V38C352 39.6569 350.657 41 349 41H3.00001C1.34315 41 0 39.6569 0 38V3Z" fill="#C5322A"/>
<path d="M154.867 26H162.242V24.0547H157.227V14.7266H154.867V26ZM167.586 26.1797C170.234 26.1797 171.828 24.5078 171.828 21.7031V21.6875C171.828 18.9062 170.211 17.2109 167.586 17.2109C164.961 17.2109 163.344 18.9141 163.344 21.6875V21.7031C163.344 24.5 164.938 26.1797 167.586 26.1797ZM167.586 24.3906C166.367 24.3906 165.68 23.3984 165.68 21.7031V21.6875C165.68 20.0078 166.375 19 167.586 19C168.789 19 169.492 20.0078 169.492 21.6875V21.7031C169.492 23.3984 168.797 24.3906 167.586 24.3906ZM177.484 29.0234C180.086 29.0234 181.734 27.75 181.734 25.7344V17.3984H179.453V18.8047H179.344C178.883 17.8359 177.961 17.2578 176.781 17.2578C174.578 17.2578 173.242 18.9609 173.242 21.4922V21.5078C173.242 23.9531 174.578 25.625 176.742 25.625C177.938 25.625 178.844 25.1328 179.32 24.2266H179.461V25.8281C179.461 26.8281 178.75 27.3984 177.531 27.3984C176.516 27.3984 175.922 27.0547 175.797 26.5547L175.789 26.5234H173.531V26.5625C173.719 28.0234 175.102 29.0234 177.484 29.0234ZM177.516 23.875C176.281 23.875 175.578 22.9141 175.578 21.5V21.4844C175.578 20.0703 176.289 19.1094 177.516 19.1094C178.742 19.1094 179.484 20.0703 179.484 21.4844V21.5C179.484 22.9141 178.75 23.875 177.516 23.875ZM185.18 16.0781C185.883 16.0781 186.461 15.5156 186.461 14.8125C186.461 14.1016 185.883 13.5391 185.18 13.5391C184.477 13.5391 183.891 14.1016 183.891 14.8125C183.891 15.5156 184.477 16.0781 185.18 16.0781ZM184.031 26H186.312V17.3984H184.031V26ZM188.609 26H190.891V21.0234C190.891 19.8594 191.531 19.1016 192.586 19.1016C193.664 19.1016 194.164 19.7422 194.164 20.9531V26H196.445V20.4375C196.445 18.3828 195.414 17.2109 193.5 17.2109C192.273 17.2109 191.422 17.7969 191.031 18.7266H190.891V17.3984H188.609V26Z" fill="white"/>
</svg>
