<svg width="66" height="32" viewBox="0 0 66 32" fill="none" xmlns="http://www.w3.org/2000/svg">
<path d="M17.0254 20H22.5566V18.541H18.7949V11.5449H17.0254V20ZM26.5645 20.1348C28.5508 20.1348 29.7461 18.8809 29.7461 16.7773V16.7656C29.7461 14.6797 28.5332 13.4082 26.5645 13.4082C24.5957 13.4082 23.3828 14.6855 23.3828 16.7656V16.7773C23.3828 18.875 24.5781 20.1348 26.5645 20.1348ZM26.5645 18.793C25.6504 18.793 25.1348 18.0488 25.1348 16.7773V16.7656C25.1348 15.5059 25.6562 14.75 26.5645 14.75C27.4668 14.75 27.9941 15.5059 27.9941 16.7656V16.7773C27.9941 18.0488 27.4727 18.793 26.5645 18.793ZM33.9883 22.2676C35.9395 22.2676 37.1758 21.3125 37.1758 19.8008V13.5488H35.4648V14.6035H35.3828C35.0371 13.877 34.3457 13.4434 33.4609 13.4434C31.8086 13.4434 30.8066 14.7207 30.8066 16.6191V16.6309C30.8066 18.4648 31.8086 19.7188 33.4316 19.7188C34.3281 19.7188 35.0078 19.3496 35.3652 18.6699H35.4707V19.8711C35.4707 20.6211 34.9375 21.0488 34.0234 21.0488C33.2617 21.0488 32.8164 20.791 32.7227 20.416L32.7168 20.3926H31.0234V20.4219C31.1641 21.5176 32.2012 22.2676 33.9883 22.2676ZM34.0117 18.4062C33.0859 18.4062 32.5586 17.6855 32.5586 16.625V16.6133C32.5586 15.5527 33.0918 14.832 34.0117 14.832C34.9316 14.832 35.4883 15.5527 35.4883 16.6133V16.625C35.4883 17.6855 34.9375 18.4062 34.0117 18.4062ZM39.7598 12.5586C40.2871 12.5586 40.7207 12.1367 40.7207 11.6094C40.7207 11.0762 40.2871 10.6543 39.7598 10.6543C39.2324 10.6543 38.793 11.0762 38.793 11.6094C38.793 12.1367 39.2324 12.5586 39.7598 12.5586ZM38.8984 20H40.6094V13.5488H38.8984V20ZM42.332 20H44.043V16.2676C44.043 15.3945 44.5234 14.8262 45.3145 14.8262C46.123 14.8262 46.498 15.3066 46.498 16.2148V20H48.209V15.8281C48.209 14.2871 47.4355 13.4082 46 13.4082C45.0801 13.4082 44.4414 13.8477 44.1484 14.5449H44.043V13.5488H42.332V20Z" fill="white"/>
<path d="M3 1H63V-1H3V1ZM65 3V29H67V3H65ZM63 31H3V33H63V31ZM1 29V3H-1V29H1ZM3 31C1.89543 31 1 30.1046 1 29H-1C-1 31.2091 0.790863 33 3 33V31ZM65 29C65 30.1046 64.1046 31 63 31V33C65.2091 33 67 31.2091 67 29H65ZM63 1C64.1046 1 65 1.89543 65 3H67C67 0.790861 65.2091 -1 63 -1V1ZM3 -1C0.790861 -1 -1 0.790861 -1 3H1C1 1.89543 1.89543 1 3 1V-1Z" fill="#F9F9F9" fill-opacity="0.9"/>
</svg>
