<svg width="120" height="24" viewBox="0 0 120 24" fill="none" xmlns="http://www.w3.org/2000/svg">
<path d="M43.0062 23.2656H38.5605V1.5426H43.0062V11.2229H43.2729L51.1307 1.5426H56.0839L48.328 11.0716L56.6285 23.2656H51.2918L45.116 14.1735L43.0062 16.7175V23.2656Z" fill="white"/>
<path d="M59.6963 23.2661V0.325073H63.9864V23.2661H59.6963Z" fill="white"/>
<path d="M78.9474 18.5392H82.943C82.797 19.2973 82.5032 20.0177 82.079 20.6575C81.6548 21.2973 81.1089 21.8434 80.4738 22.2634C79.1537 23.1725 77.5001 23.6271 75.5132 23.6271C73.0359 23.6271 71.1045 22.8705 69.719 21.3574C68.3334 19.8443 67.6406 17.7391 67.6406 15.042C67.6406 12.3435 68.3383 10.2113 69.7338 8.64517C71.1292 7.07907 73.0359 6.29602 75.4539 6.29602C77.8533 6.29602 79.7236 7.03368 81.0647 8.50899C82.4058 9.98429 83.077 12.0428 83.0782 14.6845V16.0255H71.9159V16.2506C71.9455 17.4863 72.2919 18.4623 72.955 19.1785C73.6182 19.8947 74.5104 20.2534 75.6317 20.2547C76.3637 20.2796 77.0911 20.1273 77.7545 19.8102C78.2911 19.5499 78.7156 19.0977 78.9474 18.5392ZM75.4687 9.64951C75.0161 9.63439 74.5652 9.71326 74.1433 9.88135C73.7214 10.0494 73.3373 10.3032 73.0143 10.6274C72.3709 11.2805 72.0097 12.1437 71.9307 13.2167H78.8604C78.8097 12.1134 78.4831 11.2434 77.8805 10.6066C77.2778 9.96979 76.4739 9.65329 75.4687 9.65707V9.64951Z" fill="white"/>
<path d="M100.841 6.66101L95.2249 23.2658H90.3884L84.7461 6.66101H89.3603L92.7112 19.0347H92.9761L96.3104 6.66101H100.841Z" fill="white"/>
<path d="M103.745 23.2666V6.66178H107.9V9.30977H108.167C108.394 8.45089 108.921 7.70666 109.649 7.21786C110.44 6.65957 111.384 6.37034 112.346 6.39131C112.913 6.36749 113.481 6.43906 114.026 6.60314V10.5922C113.574 10.4106 112.895 10.3198 111.988 10.3198C110.799 10.3198 109.843 10.6558 109.121 11.3279C108.398 12 108.037 12.9136 108.037 14.0686V23.2666H103.745Z" fill="white"/>
<path d="M119.29 22.9408C118.766 23.4135 118.091 23.6744 117.392 23.6744C116.693 23.6744 116.018 23.4135 115.495 22.9408C115.034 22.4266 114.779 21.7553 114.779 21.0588C114.779 20.3623 115.034 19.691 115.495 19.1768C116.019 18.7085 116.692 18.4503 117.389 18.4503C118.085 18.4503 118.758 18.7085 119.283 19.1768C119.522 19.4235 119.709 19.7179 119.832 20.0417C119.955 20.3656 120.012 20.7118 119.998 21.0588C120.011 21.4051 119.955 21.7505 119.833 22.074C119.712 22.3976 119.527 22.6925 119.29 22.9408Z" fill="white"/>
<path d="M20.5485 0.277635C20.5485 0.277635 8.90087 -1.49652 6.54652 7.82819C4.19217 17.1529 12.7964 21.0492 16.8327 19.9144C15.712 20.4005 14.6098 20.9452 13.441 21.2894C9.91041 22.3316 5.75927 22.1841 2.83439 19.6552C-0.0534358 17.1661 -0.648043 12.7705 0.657871 9.27702C1.98601 5.74952 5.44993 3.08829 8.77306 1.72457C10.8123 0.891369 12.9549 0.350951 15.1396 0.118756C16.9412 -0.0816647 18.7612 -0.028205 20.5485 0.277635Z" fill="url(#paint0_linear)"/>
<path d="M30.0238 14.3969C29.3032 16.3432 27.864 17.8714 25.5781 18.2781C23.4813 18.6564 21.3177 18.5637 19.2468 19.0555C18.4195 19.2681 17.6124 19.5555 16.835 19.9142C16.4951 20.0069 16.147 20.0646 15.7958 20.0863C11.5021 20.3965 4.38159 16.4113 6.547 7.82988C8.90506 -1.49483 20.5508 0.279327 20.5508 0.279327C23.8703 0.873233 26.9081 2.4677 28.9513 5.44858C29.7593 6.677 30.2796 8.07876 30.4721 9.5454C30.4943 9.8102 30.5202 10.0693 30.5536 10.3209C30.5536 10.3209 30.5536 10.3303 30.5536 10.336C30.6666 11.7128 30.4859 13.0983 30.0238 14.3969Z" fill="url(#paint1_linear)"/>
<path d="M30.4035 14.8082C30.3924 14.8725 30.3757 14.9368 30.359 14.9973C29.3903 19.3892 26.3468 22.459 24.1333 23.5541C23.6581 23.8172 23.1318 23.9696 22.5921 24.0005C20.0988 24.0005 20.8694 18.7802 16.835 19.9188C17.5208 19.6074 18.2278 19.3469 18.9504 19.1395C19.0522 19.1112 19.1523 19.0866 19.2541 19.062C21.3306 18.5702 23.4886 18.6591 25.5855 18.2846C27.7602 17.8969 29.1735 16.4821 29.9219 14.6587C29.9571 14.5774 29.9904 14.4904 30.0238 14.4034C30.4871 13.1051 30.6691 11.7196 30.5572 10.3425C30.7562 11.8291 30.7042 13.3395 30.4035 14.8082Z" fill="#CE0D0D"/>
<path style="mix-blend-mode:multiply" opacity="0.38" d="M30.359 14.9964C29.3902 19.3883 26.3468 22.4581 24.1332 23.5532L18.9466 19.1387L13.1543 14.2039L14.2657 11.4122L19.5431 6.65906L29.9163 14.6522L30.359 14.9964Z" fill="url(#paint2_linear)"/>
<path d="M16.825 10.0031L19.5443 6.65906H17.3881L15.0282 9.56617V6.65906H13.1592V14.1964H15.0282V11.9172L15.4969 11.3517L17.4307 14.1964H19.6795L16.825 10.0031Z" fill="white"/>
<defs>
<linearGradient id="paint0_linear" x1="1829.84" y1="7360.11" x2="4746.09" y2="10360.6" gradientUnits="userSpaceOnUse">
<stop stop-color="#FF6161"/>
<stop offset="1" stop-color="#DD1B1B"/>
</linearGradient>
<linearGradient id="paint1_linear" x1="3966.13" y1="6233" x2="4249.31" y2="8260.03" gradientUnits="userSpaceOnUse">
<stop stop-color="#FF6161"/>
<stop offset="1" stop-color="#DD1B1B"/>
</linearGradient>
<linearGradient id="paint2_linear" x1="2543.97" y1="6299.23" x2="4023.81" y2="7697.58" gradientUnits="userSpaceOnUse">
<stop stop-color="#953B08"/>
<stop offset="1" stop-color="white" stop-opacity="0"/>
</linearGradient>
</defs>
</svg>
