<svg width="55" height="16" viewBox="0 0 55 16" fill="none" xmlns="http://www.w3.org/2000/svg">
<path d="M3.6582 15H0.708984V0.908203H3.6582V7.1875H3.83398L9.03906 0.908203H12.3203L7.18359 7.08984L12.6816 15H9.14648L5.05469 9.10156L3.6582 10.752V15ZM14.7227 15V0.117188H17.5645V15H14.7227ZM25.1816 6.17188C24.5241 6.17188 23.9805 6.38346 23.5508 6.80664C23.1276 7.22982 22.89 7.78971 22.8379 8.48633H27.4277C27.3952 7.77018 27.1771 7.20703 26.7734 6.79688C26.3763 6.38021 25.8457 6.17188 25.1816 6.17188ZM27.4863 11.9336H30.1328C29.918 12.9557 29.3711 13.763 28.4922 14.3555C27.6198 14.9414 26.526 15.2344 25.2109 15.2344C23.5703 15.2344 22.291 14.7461 21.373 13.7695C20.4551 12.7865 19.9961 11.4193 19.9961 9.66797C19.9961 7.91667 20.4583 6.5332 21.3828 5.51758C22.3073 4.50195 23.5703 3.99414 25.1719 3.99414C26.7604 3.99414 27.9974 4.47266 28.8828 5.42969C29.7747 6.38672 30.2207 7.72135 30.2207 9.43359V10.3027H22.8281V10.4492C22.8477 11.25 23.0755 11.8848 23.5117 12.3535C23.9544 12.8158 24.5469 13.0469 25.2891 13.0469C25.849 13.0469 26.3177 12.9525 26.6953 12.7637C27.0729 12.5684 27.3366 12.2917 27.4863 11.9336ZM41.998 4.22852L38.2773 15H35.0742L31.334 4.22852H34.3906L36.6172 12.2559H36.793L39 4.22852H41.998ZM43.9219 15V4.22852H46.6758V5.94727H46.8516C46.9948 5.40039 47.3203 4.94792 47.8281 4.58984C48.3424 4.23177 48.9382 4.05273 49.6152 4.05273C50.1035 4.05273 50.4746 4.09831 50.7285 4.18945V6.77734C50.429 6.66016 49.9798 6.60156 49.3809 6.60156C48.5931 6.60156 47.9583 6.81966 47.4766 7.25586C47.0013 7.69206 46.7637 8.28451 46.7637 9.0332V15H43.9219ZM54.2148 14.7949C53.9023 15.1074 53.4857 15.2637 52.9648 15.2637C52.444 15.2637 52.0241 15.1074 51.7051 14.7949C51.3926 14.4759 51.2363 14.0658 51.2363 13.5645C51.2363 13.0697 51.3926 12.666 51.7051 12.3535C52.0241 12.0345 52.444 11.875 52.9648 11.875C53.4857 11.875 53.9023 12.0312 54.2148 12.3438C54.5339 12.6562 54.6934 13.0632 54.6934 13.5645C54.6934 14.0658 54.5339 14.4759 54.2148 14.7949Z" fill="#303030"/>
</svg>
