<svg width="100" height="20" viewBox="0 0 100 20" fill="none" xmlns="http://www.w3.org/2000/svg">
<path d="M35.8388 19.3882H32.134V1.28577H35.8388V9.35268H36.061L42.6091 1.28577H46.7368L40.2736 9.22658L47.1906 19.3882H42.7434L37.5969 11.8115L35.8388 13.9315V19.3882Z" fill="#161616"/>
<path d="M49.7469 19.3884V0.270874H53.322V19.3884H49.7469Z" fill="#161616"/>
<path d="M65.7898 15.4496H69.1194C68.9977 16.0813 68.7529 16.6817 68.3994 17.2148C68.0459 17.748 67.591 18.2031 67.0617 18.5531C65.9616 19.3107 64.5837 19.6895 62.9279 19.6895C60.8635 19.6895 59.254 19.0591 58.0994 17.7981C56.9448 16.5372 56.3674 14.7829 56.3674 12.5352C56.3674 10.2865 56.9489 8.50965 58.1117 7.20457C59.2746 5.89949 60.8635 5.24695 62.8785 5.24695C64.878 5.24695 66.4366 5.86166 67.5541 7.09109C68.6717 8.32051 69.231 10.0359 69.2321 12.2373V13.3548H59.9301V13.5424C59.9548 14.5722 60.2435 15.3855 60.7961 15.9823C61.3487 16.5792 62.0923 16.8781 63.0267 16.8792C63.6367 16.8999 64.2429 16.773 64.7957 16.5088C65.2428 16.2919 65.5966 15.915 65.7898 15.4496ZM62.8908 8.04153C62.5136 8.02892 62.1379 8.09465 61.7863 8.23472C61.4347 8.37479 61.1147 8.5863 60.8455 8.85641C60.3094 9.40072 60.0083 10.12 59.9425 11.0142H65.7172C65.675 10.0948 65.4028 9.36972 64.9006 8.83907C64.3984 8.30843 63.7285 8.04467 62.8908 8.04783V8.04153Z" fill="#161616"/>
<path d="M84.034 5.5509L79.3537 19.3882H75.3232L70.6213 5.5509H74.4665L77.259 15.8623H77.4797L80.2582 5.5509H84.034Z" fill="#161616"/>
<path d="M86.4545 19.3882V5.55089H89.9168V7.75755H90.1391C90.3281 7.04182 90.7675 6.42163 91.374 6.01429C92.0336 5.54905 92.8201 5.30802 93.6216 5.3255C94.0946 5.30565 94.5676 5.36529 95.0216 5.50203V8.8262C94.645 8.67489 94.079 8.59923 93.3236 8.59923C92.3326 8.59923 91.5361 8.87927 90.9341 9.43934C90.3321 9.99941 90.0311 10.7607 90.0311 11.7232V19.3882H86.4545Z" fill="#161616"/>
<path d="M99.4086 19.117C98.9721 19.511 98.4097 19.7284 97.8272 19.7284C97.2446 19.7284 96.6822 19.511 96.2457 19.117C95.8623 18.6886 95.6497 18.1291 95.6497 17.5487C95.6497 16.9683 95.8623 16.4089 96.2457 15.9804C96.6827 15.5901 97.2435 15.375 97.8241 15.375C98.4046 15.375 98.9655 15.5901 99.4025 15.9804C99.602 16.186 99.7579 16.4314 99.8604 16.7012C99.9629 16.971 100.01 17.2595 99.9983 17.5487C100.009 17.8373 99.9627 18.1252 99.8613 18.3948C99.76 18.6644 99.6059 18.9101 99.4086 19.117Z" fill="#161616"/>
<path d="M17.1238 0.231362C17.1238 0.231362 7.41739 -1.2471 5.45544 6.52349C3.49348 14.2941 10.6637 17.541 14.0272 16.5953C13.0933 17.0004 12.1749 17.4543 11.2008 17.7412C8.25867 18.6097 4.79939 18.4867 2.36199 16.3794C-0.0445298 14.3051 -0.540036 10.6421 0.548226 7.73085C1.65501 4.79127 4.5416 2.57357 7.31088 1.43714C9.01029 0.742807 10.7958 0.292459 12.6164 0.0989632C14.1177 -0.0680539 15.6343 -0.0235042 17.1238 0.231362Z" fill="url(#paint0_linear)"/>
<path d="M25.0196 11.9977C24.4191 13.6196 23.2197 14.8931 21.3149 15.232C19.5675 15.5473 17.7645 15.47 16.0387 15.8798C15.3494 16.0571 14.6768 16.2965 14.0289 16.5954C13.7457 16.6727 13.4556 16.7208 13.163 16.7389C9.58481 16.9974 3.65108 13.6763 5.45559 6.52518C7.42063 -1.24541 17.1255 0.233057 17.1255 0.233057C19.8916 0.727979 22.4232 2.0567 24.1258 4.54077C24.7991 5.56445 25.2328 6.73259 25.3932 7.95478C25.4117 8.17545 25.4333 8.39139 25.4611 8.60102C25.4611 8.60102 25.4611 8.6089 25.4611 8.61363C25.5553 9.76097 25.4046 10.9155 25.0196 11.9977Z" fill="url(#paint1_linear)"/>
<path d="M25.3359 12.3398C25.3267 12.3934 25.3128 12.447 25.2989 12.4974C24.4916 16.1573 21.9554 18.7154 20.1107 19.6281C19.7147 19.8473 19.2762 19.9743 18.8264 20C16.7487 20 17.3908 15.6498 14.0288 16.5986C14.6003 16.3391 15.1895 16.1221 15.7916 15.9492C15.8765 15.9256 15.9599 15.9051 16.0448 15.8846C17.7752 15.4748 19.5735 15.5489 21.3209 15.2368C23.1332 14.9137 24.311 13.7347 24.9346 12.2153C24.9639 12.1475 24.9917 12.075 25.0195 12.0025C25.4056 10.9205 25.5572 9.76598 25.464 8.61841C25.6299 9.85723 25.5865 11.1159 25.3359 12.3398Z" fill="#CE0D0D"/>
<path style="mix-blend-mode:multiply" opacity="0.38" d="M25.2989 12.4973C24.4916 16.1572 21.9554 18.7153 20.1108 19.6279L15.7886 15.9491L10.9617 11.8368L11.8878 9.51039L16.2857 5.54944L24.93 12.2104L25.2989 12.4973Z" fill="url(#paint2_linear)"/>
<path d="M14.0209 8.33613L16.287 5.54944H14.4902L12.5236 7.97203V5.54944H10.9661V11.8305H12.5236V9.93123L12.9141 9.45995L14.5257 11.8305H16.3997L14.0209 8.33613Z" fill="white"/>
<defs>
<linearGradient id="paint0_linear" x1="1524.87" y1="6133.43" x2="3955.07" y2="8633.79" gradientUnits="userSpaceOnUse">
<stop stop-color="#F85252"/>
<stop offset="1" stop-color="#DD1B1B"/>
</linearGradient>
<linearGradient id="paint1_linear" x1="3305.11" y1="5194.17" x2="3541.1" y2="6883.36" gradientUnits="userSpaceOnUse">
<stop stop-color="#FF6161"/>
<stop offset="1" stop-color="#DD1B1B"/>
</linearGradient>
<linearGradient id="paint2_linear" x1="2119.97" y1="5249.36" x2="3353.17" y2="6414.65" gradientUnits="userSpaceOnUse">
<stop stop-color="#953B08"/>
<stop offset="1" stop-color="white" stop-opacity="0"/>
</linearGradient>
</defs>
</svg>
