<svg width="80" height="22" viewBox="0 0 80 22" fill="none" xmlns="http://www.w3.org/2000/svg">
<path d="M4.3671 21.6147H0V1.14722H4.3671V10.268H4.62912L12.348 1.14722H17.2137L9.59488 10.1255L17.7486 21.6147H12.5063L6.43965 13.0481L4.3671 15.445V21.6147Z" fill="white"/>
<path d="M20.7627 21.6152V0H24.977V21.6152H20.7627Z" fill="white"/>
<path d="M39.6734 17.1614H43.5983C43.4549 17.8757 43.1663 18.5545 42.7496 19.1573C42.3329 19.7601 41.7967 20.2747 41.1728 20.6704C39.876 21.527 38.2517 21.9553 36.2998 21.9553C33.8664 21.9553 31.9691 21.2424 30.608 19.8168C29.2469 18.3911 28.5664 16.4076 28.5664 13.8663C28.5664 11.3238 29.2518 9.31481 30.6226 7.83923C31.9934 6.36365 33.8664 5.62585 36.2416 5.62585C38.5986 5.62585 40.4358 6.32088 41.7532 7.71092C43.0706 9.10096 43.73 11.0405 43.7312 13.5295V14.793H32.7661V15.0051C32.7952 16.1694 33.1355 17.0889 33.7869 17.7638C34.4383 18.4386 35.3148 18.7766 36.4163 18.7778C37.1354 18.8012 37.8499 18.6577 38.5016 18.359C39.0287 18.1137 39.4456 17.6876 39.6734 17.1614ZM36.2561 8.78553C35.8115 8.77128 35.3686 8.84559 34.9541 9.00396C34.5397 9.16233 34.1624 9.40147 33.8451 9.70687C33.2131 10.3223 32.8583 11.1355 32.7807 12.1466H39.5879C39.5381 11.107 39.2173 10.2872 38.6253 9.68727C38.0333 9.0873 37.2436 8.78909 36.2561 8.79265V8.78553Z" fill="white"/>
<path d="M61.1799 5.97058L55.6628 21.6157H50.9117L45.3691 5.97058H49.9018L53.1935 17.6291H53.4537L56.7291 5.97058H61.1799Z" fill="white"/>
<path d="M64.0332 21.6168V5.97169H68.1146V8.46664H68.3766C68.5995 7.6574 69.1173 6.95619 69.8323 6.49563C70.6099 5.96961 71.5369 5.6971 72.4817 5.71685C73.0393 5.69442 73.5969 5.76184 74.1321 5.91645V9.67491C73.6881 9.50383 73.0209 9.41828 72.1305 9.41828C70.9623 9.41828 70.0234 9.73491 69.3138 10.3681C68.6041 11.0014 68.2493 11.8621 68.2493 12.9504V21.6168H64.0332Z" fill="white"/>
<path d="M79.3031 21.3093C78.7886 21.7547 78.1256 22.0005 77.4389 22.0005C76.7522 22.0005 76.0892 21.7547 75.5747 21.3093C75.1227 20.8248 74.8721 20.1923 74.8721 19.5361C74.8721 18.8798 75.1227 18.2473 75.5747 17.7629C76.0898 17.3216 76.7509 17.0784 77.4353 17.0784C78.1196 17.0784 78.7808 17.3216 79.2958 17.7629C79.5311 17.9953 79.7148 18.2727 79.8357 18.5778C79.9565 18.8829 80.0119 19.2091 79.9982 19.5361C80.0112 19.8624 79.9563 20.1878 79.8368 20.4927C79.7173 20.7975 79.5357 21.0753 79.3031 21.3093Z" fill="white"/>
</svg>
