<svg width="19" height="15" viewBox="0 0 19 15" fill="none" xmlns="http://www.w3.org/2000/svg">
<path fill-rule="evenodd" clip-rule="evenodd" d="M16.5 0.5H2.5C1.5375 0.5 0.75875 1.2875 0.75875 2.25L0.75 12.75C0.75 13.7125 1.5375 14.5 2.5 14.5H16.5C17.4625 14.5 18.25 13.7125 18.25 12.75V2.25C18.25 1.2875 17.4625 0.5 16.5 0.5ZM16.5 11.875C16.5 12.3562 16.1062 12.75 15.625 12.75H3.375C2.89375 12.75 2.5 12.3562 2.5 11.875V4L8.5725 7.7975C9.14125 8.15625 9.85875 8.15625 10.4275 7.7975L16.5 4V11.875ZM2.5 2.25L9.5 6.625L16.5 2.25H2.5Z" fill="#1B1B1B" fill-opacity="0.6"/>
</svg>
