<svg width="235" height="41" viewBox="0 0 235 41" fill="none" xmlns="http://www.w3.org/2000/svg">
<path d="M0 3C0 1.34315 1.34315 0 3 0H232C233.657 0 235 1.34315 235 3V38C235 39.6569 233.657 41 232 41H3C1.34314 41 0 39.6569 0 38V3Z" fill="#C5322A"/>
<path d="M45.9609 26H43.6016V16.7422H40.2188V14.7266H49.3438V16.7422H45.9609V26ZM52.8281 24.4219C53.3542 24.4219 53.7943 24.2734 54.1484 23.9766C54.5026 23.6797 54.6797 23.3125 54.6797 22.875V22.2422L52.9375 22.3516C51.9688 22.4193 51.4844 22.7656 51.4844 23.3906C51.4844 23.7083 51.6068 23.9609 51.8516 24.1484C52.1016 24.3307 52.4271 24.4219 52.8281 24.4219ZM52.0781 26.1328C51.2448 26.1328 50.5651 25.8958 50.0391 25.4219C49.5182 24.9479 49.2578 24.3203 49.2578 23.5391C49.2578 22.763 49.5443 22.1536 50.1172 21.7109C50.6953 21.263 51.5208 21.0078 52.5938 20.9453L54.6797 20.8203V20.1172C54.6797 19.7578 54.5547 19.4818 54.3047 19.2891C54.0547 19.0911 53.6953 18.9922 53.2266 18.9922C52.3828 18.9922 51.8646 19.2578 51.6719 19.7891H49.5781C49.651 18.9922 50.026 18.362 50.7031 17.8984C51.3854 17.4297 52.2682 17.1953 53.3516 17.1953C54.487 17.1953 55.3646 17.4505 55.9844 17.9609C56.6094 18.4714 56.9219 19.1901 56.9219 20.1172V26H54.7188V24.875H54.5781C54.3542 25.2708 54.0208 25.5807 53.5781 25.8047C53.1354 26.0234 52.6354 26.1328 52.0781 26.1328ZM61.6484 20.75L64.5312 17.3828H67.1172L63.8359 21.0781L67.3438 26H64.6484L62.1328 22.5L61.5078 23.1406V26H59.2344V14.0938H61.5078V20.75H61.6484ZM71.9922 18.9375C71.4661 18.9375 71.0312 19.1068 70.6875 19.4453C70.349 19.7839 70.1589 20.2318 70.1172 20.7891H73.7891C73.763 20.2161 73.5885 19.7656 73.2656 19.4375C72.9479 19.1042 72.5234 18.9375 71.9922 18.9375ZM73.8359 23.5469H75.9531C75.7812 24.3646 75.3438 25.0104 74.6406 25.4844C73.9427 25.9531 73.0677 26.1875 72.0156 26.1875C70.7031 26.1875 69.6797 25.7969 68.9453 25.0156C68.2109 24.2292 67.8438 23.1354 67.8438 21.7344C67.8438 20.3333 68.2135 19.2266 68.9531 18.4141C69.6927 17.6016 70.7031 17.1953 71.9844 17.1953C73.2552 17.1953 74.2448 17.5781 74.9531 18.3438C75.6667 19.1094 76.0234 20.1771 76.0234 21.5469V22.2422H70.1094V22.3594C70.125 23 70.3073 23.5078 70.6562 23.8828C71.0104 24.2526 71.4844 24.4375 72.0781 24.4375C72.526 24.4375 72.901 24.362 73.2031 24.2109C73.5052 24.0547 73.7161 23.8333 73.8359 23.5469ZM85.125 24.4219C85.651 24.4219 86.0911 24.2734 86.4453 23.9766C86.7995 23.6797 86.9766 23.3125 86.9766 22.875V22.2422L85.2344 22.3516C84.2656 22.4193 83.7812 22.7656 83.7812 23.3906C83.7812 23.7083 83.9036 23.9609 84.1484 24.1484C84.3984 24.3307 84.724 24.4219 85.125 24.4219ZM84.375 26.1328C83.5417 26.1328 82.862 25.8958 82.3359 25.4219C81.8151 24.9479 81.5547 24.3203 81.5547 23.5391C81.5547 22.763 81.8411 22.1536 82.4141 21.7109C82.9922 21.263 83.8177 21.0078 84.8906 20.9453L86.9766 20.8203V20.1172C86.9766 19.7578 86.8516 19.4818 86.6016 19.2891C86.3516 19.0911 85.9922 18.9922 85.5234 18.9922C84.6797 18.9922 84.1615 19.2578 83.9688 19.7891H81.875C81.9479 18.9922 82.3229 18.362 83 17.8984C83.6823 17.4297 84.5651 17.1953 85.6484 17.1953C86.7839 17.1953 87.6615 17.4505 88.2812 17.9609C88.9062 18.4714 89.2188 19.1901 89.2188 20.1172V26H87.0156V24.875H86.875C86.651 25.2708 86.3177 25.5807 85.875 25.8047C85.4323 26.0234 84.9323 26.1328 84.375 26.1328ZM107.742 26H105.555V18.4609H105.43L102.562 25.3516H100.992L98.1172 18.4609H97.9922V26H95.8047V14.7266H98.5859L101.703 22.3047H101.844L104.969 14.7266H107.742V26ZM113.977 18.9375C113.451 18.9375 113.016 19.1068 112.672 19.4453C112.333 19.7839 112.143 20.2318 112.102 20.7891H115.773C115.747 20.2161 115.573 19.7656 115.25 19.4375C114.932 19.1042 114.508 18.9375 113.977 18.9375ZM115.82 23.5469H117.938C117.766 24.3646 117.328 25.0104 116.625 25.4844C115.927 25.9531 115.052 26.1875 114 26.1875C112.688 26.1875 111.664 25.7969 110.93 25.0156C110.195 24.2292 109.828 23.1354 109.828 21.7344C109.828 20.3333 110.198 19.2266 110.938 18.4141C111.677 17.6016 112.688 17.1953 113.969 17.1953C115.24 17.1953 116.229 17.5781 116.938 18.3438C117.651 19.1094 118.008 20.1771 118.008 21.5469V22.2422H112.094V22.3594C112.109 23 112.292 23.5078 112.641 23.8828C112.995 24.2526 113.469 24.4375 114.062 24.4375C114.51 24.4375 114.885 24.362 115.188 24.2109C115.49 24.0547 115.701 23.8333 115.82 23.5469ZM119.875 26V17.3828H122.078V18.7891H122.219C122.396 18.2943 122.695 17.9062 123.117 17.625C123.544 17.3385 124.039 17.1953 124.602 17.1953C125.201 17.1953 125.703 17.3359 126.109 17.6172C126.521 17.8932 126.812 18.2839 126.984 18.7891H127.125C127.328 18.3047 127.661 17.9193 128.125 17.6328C128.589 17.3411 129.12 17.1953 129.719 17.1953C130.578 17.1953 131.258 17.4557 131.758 17.9766C132.258 18.4974 132.508 19.2005 132.508 20.0859V26H130.234V20.6875C130.234 19.6667 129.755 19.1562 128.797 19.1562C128.339 19.1562 127.971 19.3021 127.695 19.5938C127.419 19.8854 127.281 20.263 127.281 20.7266V26H125.094V20.5938C125.094 20.1406 124.969 19.7891 124.719 19.5391C124.469 19.2839 124.12 19.1562 123.672 19.1562C123.229 19.1562 122.865 19.3125 122.578 19.625C122.292 19.9375 122.148 20.3333 122.148 20.8125V26H119.875ZM139.797 26.1328C139.188 26.1328 138.648 26.0026 138.18 25.7422C137.716 25.4818 137.37 25.1172 137.141 24.6484H137V26H134.797V14.0938H137.07V18.7578H137.211C137.43 18.2839 137.768 17.9141 138.227 17.6484C138.685 17.3776 139.208 17.2422 139.797 17.2422C140.885 17.2422 141.74 17.6354 142.359 18.4219C142.979 19.2083 143.289 20.2969 143.289 21.6875C143.289 23.0677 142.977 24.1536 142.352 24.9453C141.732 25.737 140.88 26.1328 139.797 26.1328ZM140.43 19.8281C140.081 19.375 139.607 19.1484 139.008 19.1484C138.409 19.1484 137.932 19.3776 137.578 19.8359C137.229 20.2891 137.052 20.9089 137.047 21.6953C137.052 22.4766 137.229 23.0964 137.578 23.5547C137.932 24.0078 138.409 24.2344 139.008 24.2344C139.612 24.2344 140.086 24.0078 140.43 23.5547C140.779 23.1016 140.953 22.4792 140.953 21.6875C140.953 20.901 140.779 20.2812 140.43 19.8281ZM148.867 18.9375C148.341 18.9375 147.906 19.1068 147.562 19.4453C147.224 19.7839 147.034 20.2318 146.992 20.7891H150.664C150.638 20.2161 150.464 19.7656 150.141 19.4375C149.823 19.1042 149.398 18.9375 148.867 18.9375ZM150.711 23.5469H152.828C152.656 24.3646 152.219 25.0104 151.516 25.4844C150.818 25.9531 149.943 26.1875 148.891 26.1875C147.578 26.1875 146.555 25.7969 145.82 25.0156C145.086 24.2292 144.719 23.1354 144.719 21.7344C144.719 20.3333 145.089 19.2266 145.828 18.4141C146.568 17.6016 147.578 17.1953 148.859 17.1953C150.13 17.1953 151.12 17.5781 151.828 18.3438C152.542 19.1094 152.898 20.1771 152.898 21.5469V22.2422H146.984V22.3594C147 23 147.182 23.5078 147.531 23.8828C147.885 24.2526 148.359 24.4375 148.953 24.4375C149.401 24.4375 149.776 24.362 150.078 24.2109C150.38 24.0547 150.591 23.8333 150.711 23.5469ZM154.766 26V17.3828H156.969V18.7578H157.109C157.224 18.3203 157.484 17.9583 157.891 17.6719C158.302 17.3854 158.779 17.2422 159.32 17.2422C159.711 17.2422 160.008 17.2786 160.211 17.3516V19.4219C159.971 19.3281 159.612 19.2812 159.133 19.2812C158.503 19.2812 157.995 19.4557 157.609 19.8047C157.229 20.1536 157.039 20.6276 157.039 21.2266V26H154.766ZM161.336 19.9141C161.336 19.0964 161.664 18.4401 162.32 17.9453C162.982 17.4453 163.849 17.1953 164.922 17.1953C166.016 17.1953 166.872 17.4167 167.492 17.8594C168.117 18.3021 168.461 18.9349 168.523 19.7578H166.422C166.365 19.4766 166.206 19.2578 165.945 19.1016C165.69 18.9401 165.354 18.8594 164.938 18.8594C164.526 18.8594 164.188 18.9453 163.922 19.1172C163.656 19.2839 163.523 19.5026 163.523 19.7734C163.523 19.9818 163.617 20.1562 163.805 20.2969C163.992 20.4323 164.286 20.5443 164.688 20.6328L166.305 20.9844C167.143 21.1667 167.755 21.4453 168.141 21.8203C168.531 22.1953 168.727 22.7031 168.727 23.3438C168.727 24.1979 168.378 24.8854 167.68 25.4062C166.982 25.9271 166.065 26.1875 164.93 26.1875C163.794 26.1875 162.896 25.9635 162.234 25.5156C161.573 25.0677 161.203 24.4297 161.125 23.6016H163.344C163.526 24.2161 164.07 24.5234 164.977 24.5234C165.419 24.5234 165.779 24.4401 166.055 24.2734C166.331 24.1016 166.469 23.8776 166.469 23.6016C166.469 23.388 166.383 23.2161 166.211 23.0859C166.039 22.9505 165.763 22.8411 165.383 22.7578L163.82 22.4062C162.982 22.224 162.357 21.9297 161.945 21.5234C161.539 21.112 161.336 20.5755 161.336 19.9141ZM170.672 26V14.0938H172.906V18.7969H173.047C173.25 18.3021 173.576 17.9167 174.023 17.6406C174.477 17.3594 175.018 17.2188 175.648 17.2188C176.581 17.2188 177.305 17.5 177.82 18.0625C178.341 18.625 178.602 19.4219 178.602 20.4531V26H176.328V20.9922C176.328 20.3984 176.193 19.9479 175.922 19.6406C175.651 19.3333 175.258 19.1797 174.742 19.1797C174.18 19.1797 173.74 19.3516 173.422 19.6953C173.104 20.0339 172.945 20.487 172.945 21.0547V26H170.672ZM180.828 26V17.3828H183.102V26H180.828ZM181.969 16.1797C181.562 16.1797 181.237 16.0729 180.992 15.8594C180.747 15.6458 180.625 15.3698 180.625 15.0312C180.625 14.6875 180.747 14.4115 180.992 14.2031C181.237 13.9896 181.562 13.8828 181.969 13.8828C182.375 13.8828 182.701 13.9896 182.945 14.2031C183.19 14.4115 183.312 14.6875 183.312 15.0312C183.312 15.3698 183.188 15.6458 182.938 15.8594C182.693 16.0729 182.37 16.1797 181.969 16.1797ZM190.383 17.2422C191.477 17.2422 192.336 17.6354 192.961 18.4219C193.586 19.2083 193.898 20.2969 193.898 21.6875C193.898 23.0729 193.589 24.1615 192.969 24.9531C192.349 25.7396 191.5 26.1328 190.422 26.1328C189.807 26.1328 189.273 26.0052 188.82 25.75C188.367 25.4948 188.034 25.138 187.82 24.6797H187.68V28.8594H185.406V17.3828H187.609V18.7969H187.75C187.984 18.3125 188.333 17.9323 188.797 17.6562C189.26 17.3802 189.789 17.2422 190.383 17.2422ZM189.609 24.2344C190.224 24.2344 190.703 24.0104 191.047 23.5625C191.391 23.1094 191.562 22.4844 191.562 21.6875C191.562 20.8958 191.388 20.276 191.039 19.8281C190.695 19.375 190.221 19.1484 189.617 19.1484C189.013 19.1484 188.534 19.3776 188.18 19.8359C187.831 20.2891 187.656 20.9089 187.656 21.6953C187.656 22.4818 187.831 23.1016 188.18 23.5547C188.529 24.0078 189.005 24.2344 189.609 24.2344Z" fill="white"/>
</svg>
