<svg width="12" height="12" viewBox="0 0 12 12" fill="none" xmlns="http://www.w3.org/2000/svg">
<path fill-rule="evenodd" clip-rule="evenodd" d="M6 0C4.3425 0 3 1.3425 3 3C3 4.6575 4.3425 6 6 6C7.6575 6 9 4.6575 9 3C9 1.3425 7.6575 0 6 0ZM7.57502 2.99999C7.57502 2.12999 6.87002 1.42499 6.00002 1.42499C5.13002 1.42499 4.42502 2.12999 4.42502 2.99999C4.42502 3.86999 5.13002 4.57499 6.00002 4.57499C6.87002 4.57499 7.57502 3.86999 7.57502 2.99999ZM10.575 9.74999C10.575 9.26999 8.22752 8.17499 6.00002 8.17499C3.77252 8.17499 1.42502 9.26999 1.42502 9.74999V10.575H10.575V9.74999ZM0 9.75C0 7.755 3.9975 6.75 6 6.75C8.0025 6.75 12 7.755 12 9.75V11.25C12 11.6625 11.6625 12 11.25 12H0.75C0.3375 12 0 11.6625 0 11.25V9.75Z" fill="#1B1B1B" fill-opacity="0.6"/>
</svg>
