<svg width="38" height="19" viewBox="0 0 38 19" fill="none" xmlns="http://www.w3.org/2000/svg">
<rect y="0.5" width="38" height="18" rx="2" fill="#FE416D"/>
<path d="M5.06641 12.5H6.24609V10.7227H7.39062C8.57812 10.7227 9.37109 9.95703 9.37109 8.79688V8.78906C9.37109 7.62891 8.57812 6.86328 7.39062 6.86328H5.06641V12.5ZM7.10156 7.79688C7.77734 7.79688 8.17578 8.15234 8.17578 8.79297V8.80078C8.17578 9.44141 7.77734 9.80078 7.10156 9.80078H6.24609V7.79688H7.10156ZM10.3828 12.5H11.5234V6.55469H10.3828V12.5ZM13.875 12.5664C14.4375 12.5664 14.8906 12.3281 15.1094 11.9297H15.1797V12.5H16.3047V9.5625C16.3047 8.64453 15.6602 8.10547 14.5195 8.10547C13.4375 8.10547 12.7266 8.60547 12.6367 9.35938L12.6328 9.39453H13.6875L13.6953 9.37891C13.7852 9.125 14.0469 8.98047 14.457 8.98047C14.9258 8.98047 15.1797 9.19141 15.1797 9.5625V9.91797L14.1406 9.98047C13.0703 10.043 12.4727 10.4961 12.4727 11.2695V11.2773C12.4727 12.0586 13.0547 12.5664 13.875 12.5664ZM13.5859 11.207V11.1992C13.5859 10.8867 13.8242 10.7031 14.3125 10.6719L15.1797 10.6172V10.9336C15.1797 11.3867 14.7852 11.7344 14.2578 11.7344C13.8633 11.7344 13.5859 11.5352 13.5859 11.207ZM17.8164 14.0156C18.8789 14.0156 19.4453 13.6328 19.8281 12.4961L21.293 8.19922H20.0898L19.1875 11.457H19.1094L18.207 8.19922H16.9531L18.4648 12.5L18.4258 12.6641C18.3438 13 18.1094 13.1562 17.7031 13.1562C17.5977 13.1562 17.4844 13.1523 17.4062 13.1445V14.0039C17.5391 14.0117 17.6836 14.0156 17.8164 14.0156ZM22.668 7.53906C23.0195 7.53906 23.3086 7.25781 23.3086 6.90625C23.3086 6.55078 23.0195 6.26953 22.668 6.26953C22.3164 6.26953 22.0234 6.55078 22.0234 6.90625C22.0234 7.25781 22.3164 7.53906 22.668 7.53906ZM22.0938 12.5H23.2344V8.19922H22.0938V12.5ZM24.3828 12.5H25.5234V10.0117C25.5234 9.42969 25.8438 9.05078 26.3711 9.05078C26.9102 9.05078 27.1602 9.37109 27.1602 9.97656V12.5H28.3008V9.71875C28.3008 8.69141 27.7852 8.10547 26.8281 8.10547C26.2148 8.10547 25.7891 8.39844 25.5938 8.86328H25.5234V8.19922H24.3828V12.5ZM31.3047 14.0117C32.6055 14.0117 33.4297 13.375 33.4297 12.3672V8.19922H32.2891V8.90234H32.2344C32.0039 8.41797 31.543 8.12891 30.9531 8.12891C29.8516 8.12891 29.1836 8.98047 29.1836 10.2461V10.2539C29.1836 11.4766 29.8516 12.3125 30.9336 12.3125C31.5312 12.3125 31.9844 12.0664 32.2227 11.6133H32.293V12.4141C32.293 12.9141 31.9375 13.1992 31.3281 13.1992C30.8203 13.1992 30.5234 13.0273 30.4609 12.7773L30.457 12.7617H29.3281V12.7812C29.4219 13.5117 30.1133 14.0117 31.3047 14.0117ZM31.3203 11.4375C30.7031 11.4375 30.3516 10.957 30.3516 10.25V10.2422C30.3516 9.53516 30.707 9.05469 31.3203 9.05469C31.9336 9.05469 32.3047 9.53516 32.3047 10.2422V10.25C32.3047 10.957 31.9375 11.4375 31.3203 11.4375Z" fill="white"/>
</svg>
