<svg width="81" height="32" viewBox="0 0 81 32" fill="none" xmlns="http://www.w3.org/2000/svg">
<g filter="url(#filter0_b)">
<rect x="0.5" width="80" height="32" rx="3" fill="white" fill-opacity="0.5"/>
<g clip-path="url(#clip0)">
<path d="M17.5254 20H19.2949V17.334H21.0117C22.793 17.334 23.9824 16.1855 23.9824 14.4453V14.4336C23.9824 12.6934 22.793 11.5449 21.0117 11.5449H17.5254V20ZM20.5781 12.9453C21.5918 12.9453 22.1895 13.4785 22.1895 14.4395V14.4512C22.1895 15.4121 21.5918 15.9512 20.5781 15.9512H19.2949V12.9453H20.5781ZM25.4414 20H27.1523V16.3906C27.1523 15.4766 27.7676 14.9199 28.7402 14.9199C29.0039 14.9199 29.2676 14.9609 29.5254 15.0195V13.5254C29.3555 13.4785 29.1152 13.4434 28.8867 13.4434C28.0488 13.4434 27.4629 13.8535 27.2578 14.5508H27.1523V13.5488H25.4414V20ZM33.3516 20.1348C35.2383 20.1348 36.0703 19.0449 36.2695 18.2363L36.2812 18.1777H34.6875L34.6699 18.2129C34.5527 18.459 34.1367 18.8574 33.3867 18.8574C32.4785 18.8574 31.9102 18.2422 31.8926 17.1816H36.334V16.6484C36.334 14.6973 35.1621 13.4082 33.2812 13.4082C31.4004 13.4082 30.1992 14.7266 30.1992 16.7773V16.7832C30.1992 18.8516 31.3887 20.1348 33.3516 20.1348ZM33.3105 14.6914C34.0547 14.6914 34.5879 15.1719 34.6934 16.1094H31.9102C32.0156 15.1953 32.5664 14.6914 33.3105 14.6914ZM39.2461 20H41.168L43.4004 13.5488H41.6016L40.2773 18.4004H40.1719L38.8359 13.5488H37.002L39.2461 20ZM45.4277 12.5586C45.9551 12.5586 46.3887 12.1367 46.3887 11.6094C46.3887 11.0762 45.9551 10.6543 45.4277 10.6543C44.9004 10.6543 44.4609 11.0762 44.4609 11.6094C44.4609 12.1367 44.9004 12.5586 45.4277 12.5586ZM44.5664 20H46.2773V13.5488H44.5664V20ZM50.8359 20.1348C52.7227 20.1348 53.5547 19.0449 53.7539 18.2363L53.7656 18.1777H52.1719L52.1543 18.2129C52.0371 18.459 51.6211 18.8574 50.8711 18.8574C49.9629 18.8574 49.3945 18.2422 49.377 17.1816H53.8184V16.6484C53.8184 14.6973 52.6465 13.4082 50.7656 13.4082C48.8848 13.4082 47.6836 14.7266 47.6836 16.7773V16.7832C47.6836 18.8516 48.873 20.1348 50.8359 20.1348ZM50.7949 14.6914C51.5391 14.6914 52.0723 15.1719 52.1777 16.1094H49.3945C49.5 15.1953 50.0508 14.6914 50.7949 14.6914ZM56.3262 20H58.1191L59.2617 15.5H59.3672L60.5215 20H62.3379L64.0547 13.5488H62.3613L61.4004 18.2188H61.2949L60.1582 13.5488H58.5293L57.3984 18.2188H57.293L56.332 13.5488H54.6035L56.3262 20Z" fill="white"/>
</g>
<rect x="1" y="0.5" width="79" height="31" rx="2.5" stroke="#C5322A"/>
</g>
<defs>
<filter id="filter0_b" x="-69.5" y="-70" width="220" height="172" filterUnits="userSpaceOnUse" color-interpolation-filters="sRGB">
<feFlood flood-opacity="0" result="BackgroundImageFix"/>
<feGaussianBlur in="BackgroundImage" stdDeviation="35"/>
<feComposite in2="SourceAlpha" operator="in" result="effect1_backgroundBlur"/>
<feBlend mode="normal" in="SourceGraphic" in2="effect1_backgroundBlur" result="shape"/>
</filter>
<clipPath id="clip0">
<rect width="48" height="16" fill="white" transform="translate(16.5 8)"/>
</clipPath>
</defs>
</svg>
