<svg width="75" height="30" viewBox="0 0 75 30" fill="none" xmlns="http://www.w3.org/2000/svg">
<path d="M10.6963 10.1357H14.8115C15.8278 10.1357 16.6504 10.4502 17.2793 11.0791C17.9128 11.7035 18.2295 12.526 18.2295 13.5469C18.2295 14.5586 17.9036 15.3766 17.252 16.001C16.6003 16.6253 15.7526 16.9375 14.709 16.9375H12.7607V20H10.6963V10.1357ZM12.7607 11.8311V15.2627H14.2578C14.8548 15.2627 15.3151 15.1169 15.6387 14.8252C15.9668 14.529 16.1309 14.1051 16.1309 13.5537C16.1309 12.9977 15.9691 12.5716 15.6455 12.2754C15.3219 11.9792 14.8617 11.8311 14.2646 11.8311H12.7607ZM19.9316 20V12.46H21.8594V13.6631H21.9824C22.0827 13.2803 22.3105 12.9635 22.666 12.7129C23.026 12.4622 23.443 12.3369 23.917 12.3369C24.2588 12.3369 24.5186 12.3688 24.6963 12.4326V14.2441C24.4867 14.1621 24.1722 14.1211 23.7529 14.1211C23.2015 14.1211 22.7572 14.2738 22.4199 14.5791C22.0872 14.8844 21.9209 15.2992 21.9209 15.8232V20H19.9316ZM26.043 20V12.46H28.0322V20H26.043ZM27.041 11.4072C26.6855 11.4072 26.4007 11.3138 26.1865 11.127C25.9723 10.9401 25.8652 10.6986 25.8652 10.4023C25.8652 10.1016 25.9723 9.86003 26.1865 9.67773C26.4007 9.49089 26.6855 9.39746 27.041 9.39746C27.3965 9.39746 27.6813 9.49089 27.8955 9.67773C28.1097 9.86003 28.2168 10.1016 28.2168 10.4023C28.2168 10.6986 28.1074 10.9401 27.8887 11.127C27.6745 11.3138 27.3919 11.4072 27.041 11.4072ZM30.0488 20V12.46H31.9766V13.6904H32.0996C32.2546 13.2575 32.5166 12.918 32.8857 12.6719C33.2594 12.4212 33.6924 12.2959 34.1846 12.2959C34.7087 12.2959 35.1484 12.4189 35.5039 12.665C35.8639 12.9066 36.1191 13.2484 36.2695 13.6904H36.3926C36.5703 13.2666 36.862 12.9294 37.2676 12.6787C37.6732 12.4235 38.138 12.2959 38.6621 12.2959C39.4141 12.2959 40.0088 12.5238 40.4463 12.9795C40.8838 13.4352 41.1025 14.0505 41.1025 14.8252V20H39.1133V15.3516C39.1133 14.4583 38.694 14.0117 37.8555 14.0117C37.4544 14.0117 37.1331 14.1393 36.8916 14.3945C36.6501 14.6497 36.5293 14.9801 36.5293 15.3857V20H34.6152V15.2695C34.6152 14.873 34.5059 14.5654 34.2871 14.3467C34.0684 14.1234 33.763 14.0117 33.3711 14.0117C32.9837 14.0117 32.6647 14.1484 32.4141 14.4219C32.1634 14.6953 32.0381 15.0417 32.0381 15.4609V20H30.0488ZM45.7578 18.6191C46.2181 18.6191 46.6032 18.4893 46.9131 18.2295C47.223 17.9697 47.3779 17.6484 47.3779 17.2656V16.7119L45.8535 16.8076C45.0059 16.8669 44.582 17.1699 44.582 17.7168C44.582 17.9948 44.6891 18.2158 44.9033 18.3799C45.1221 18.5394 45.4069 18.6191 45.7578 18.6191ZM45.1016 20.1162C44.3724 20.1162 43.7777 19.9089 43.3174 19.4941C42.8617 19.0794 42.6338 18.5303 42.6338 17.8467C42.6338 17.1676 42.8844 16.6344 43.3857 16.2471C43.8916 15.8551 44.6139 15.6318 45.5527 15.5771L47.3779 15.4678V14.8525C47.3779 14.5381 47.2686 14.2965 47.0498 14.1279C46.8311 13.9548 46.5166 13.8682 46.1064 13.8682C45.3682 13.8682 44.9147 14.1006 44.7461 14.5654H42.9141C42.9779 13.8682 43.306 13.3167 43.8984 12.9111C44.4954 12.501 45.2679 12.2959 46.2158 12.2959C47.2093 12.2959 47.9772 12.5192 48.5195 12.9658C49.0664 13.4124 49.3398 14.0413 49.3398 14.8525V20H47.4121V19.0156H47.2891C47.0931 19.362 46.8014 19.6331 46.4141 19.8291C46.0267 20.0205 45.5892 20.1162 45.1016 20.1162ZM51.2949 20V12.46H53.2227V13.6631H53.3457C53.446 13.2803 53.6738 12.9635 54.0293 12.7129C54.3893 12.4622 54.8063 12.3369 55.2803 12.3369C55.6221 12.3369 55.8818 12.3688 56.0596 12.4326V14.2441C55.8499 14.1621 55.5355 14.1211 55.1162 14.1211C54.5648 14.1211 54.1204 14.2738 53.7832 14.5791C53.4505 14.8844 53.2842 15.2992 53.2842 15.8232V20H51.2949ZM58.4385 22.7412C58.0146 22.7412 57.7617 22.7344 57.6797 22.7207V21.1211C57.7253 21.1302 57.8757 21.1348 58.1309 21.1348C58.5091 21.1348 58.8053 21.0687 59.0195 20.9365C59.2337 20.8089 59.3818 20.6038 59.4639 20.3213L59.5322 20.0479L56.8867 12.46H59.0811L60.667 18.1748H60.79L62.376 12.46H64.4814L61.8838 20.1162C61.5648 21.0824 61.1455 21.7614 60.626 22.1533C60.111 22.5452 59.3818 22.7412 58.4385 22.7412Z" fill="#FE416D"/>
<rect x="0.5" y="0.5" width="74" height="29" rx="2.5" stroke="#FE416D"/>
</svg>
