<svg width="179" height="41" viewBox="0 0 179 41" fill="none" xmlns="http://www.w3.org/2000/svg">
<path d="M0 3C0 1.34315 1.34315 0 3 0H176C177.657 0 179 1.34315 179 3V38C179 39.6569 177.657 41 176 41H3C1.34314 41 0 39.6569 0 38V3Z" fill="#C5322A"/>
<path d="M70.8594 22.8672H73.1406C73.1927 23.3255 73.4323 23.6901 73.8594 23.9609C74.2865 24.2318 74.8333 24.3672 75.5 24.3672C76.1146 24.3672 76.6172 24.2344 77.0078 23.9688C77.3984 23.6979 77.5938 23.349 77.5938 22.9219C77.5938 22.5625 77.4427 22.2708 77.1406 22.0469C76.8385 21.8229 76.3411 21.638 75.6484 21.4922L74.1797 21.1797C72.138 20.7526 71.1172 19.6797 71.1172 17.9609C71.1172 16.8984 71.5104 16.0469 72.2969 15.4062C73.0833 14.7604 74.1276 14.4375 75.4297 14.4375C76.6693 14.4375 77.6875 14.7526 78.4844 15.3828C79.2865 16.013 79.7057 16.8307 79.7422 17.8359H77.5234C77.4661 17.388 77.2474 17.0286 76.8672 16.7578C76.487 16.487 76.013 16.3516 75.4453 16.3516C74.8516 16.3516 74.375 16.4792 74.0156 16.7344C73.6615 16.9896 73.4844 17.3307 73.4844 17.7578C73.4844 18.1068 73.6276 18.388 73.9141 18.6016C74.2057 18.8151 74.6823 18.9922 75.3438 19.1328L76.7031 19.4219C77.8333 19.6615 78.6562 20.0365 79.1719 20.5469C79.6875 21.0573 79.9453 21.75 79.9453 22.625C79.9453 23.7604 79.5365 24.6562 78.7188 25.3125C77.9062 25.9635 76.7917 26.2891 75.375 26.2891C74.0312 26.2891 72.9531 25.9818 72.1406 25.3672C71.3281 24.7526 70.901 23.9193 70.8594 22.8672ZM84.9375 24.4219C85.4635 24.4219 85.9036 24.2734 86.2578 23.9766C86.612 23.6797 86.7891 23.3125 86.7891 22.875V22.2422L85.0469 22.3516C84.0781 22.4193 83.5938 22.7656 83.5938 23.3906C83.5938 23.7083 83.7161 23.9609 83.9609 24.1484C84.2109 24.3307 84.5365 24.4219 84.9375 24.4219ZM84.1875 26.1328C83.3542 26.1328 82.6745 25.8958 82.1484 25.4219C81.6276 24.9479 81.3672 24.3203 81.3672 23.5391C81.3672 22.763 81.6536 22.1536 82.2266 21.7109C82.8047 21.263 83.6302 21.0078 84.7031 20.9453L86.7891 20.8203V20.1172C86.7891 19.7578 86.6641 19.4818 86.4141 19.2891C86.1641 19.0911 85.8047 18.9922 85.3359 18.9922C84.4922 18.9922 83.974 19.2578 83.7812 19.7891H81.6875C81.7604 18.9922 82.1354 18.362 82.8125 17.8984C83.4948 17.4297 84.3776 17.1953 85.4609 17.1953C86.5964 17.1953 87.474 17.4505 88.0938 17.9609C88.7188 18.4714 89.0312 19.1901 89.0312 20.1172V26H86.8281V24.875H86.6875C86.4635 25.2708 86.1302 25.5807 85.6875 25.8047C85.2448 26.0234 84.7448 26.1328 84.1875 26.1328ZM98.8203 17.3828L95.8438 26H93.2812L90.2891 17.3828H92.7344L94.5156 23.8047H94.6562L96.4219 17.3828H98.8203ZM103.727 18.9375C103.201 18.9375 102.766 19.1068 102.422 19.4453C102.083 19.7839 101.893 20.2318 101.852 20.7891H105.523C105.497 20.2161 105.323 19.7656 105 19.4375C104.682 19.1042 104.258 18.9375 103.727 18.9375ZM105.57 23.5469H107.688C107.516 24.3646 107.078 25.0104 106.375 25.4844C105.677 25.9531 104.802 26.1875 103.75 26.1875C102.438 26.1875 101.414 25.7969 100.68 25.0156C99.9453 24.2292 99.5781 23.1354 99.5781 21.7344C99.5781 20.3333 99.9479 19.2266 100.688 18.4141C101.427 17.6016 102.438 17.1953 103.719 17.1953C104.99 17.1953 105.979 17.5781 106.688 18.3438C107.401 19.1094 107.758 20.1771 107.758 21.5469V22.2422H101.844V22.3594C101.859 23 102.042 23.5078 102.391 23.8828C102.745 24.2526 103.219 24.4375 103.812 24.4375C104.26 24.4375 104.635 24.362 104.938 24.2109C105.24 24.0547 105.451 23.8333 105.57 23.5469Z" fill="white"/>
</svg>
