<svg width="15" height="15" viewBox="0 0 15 15" fill="none" xmlns="http://www.w3.org/2000/svg">
<path fill-rule="evenodd" clip-rule="evenodd" d="M10.2883 9.66266H10.9796L14.6896 13.3902C15.0483 13.7489 15.0483 14.3352 14.6896 14.6939C14.3308 15.0527 13.7446 15.0527 13.3858 14.6939L9.66705 10.9752V10.2839L9.4308 10.0389C8.2058 11.0889 6.53455 11.6314 4.7583 11.3339C2.3258 10.9227 0.383301 8.89266 0.0858013 6.44266C-0.369199 2.74141 2.7458 -0.373593 6.44705 0.0814068C8.89705 0.378907 10.9271 2.32141 11.3383 4.75391C11.6358 6.53016 11.0933 8.20141 10.0433 9.42641L10.2883 9.66266ZM1.79204 5.72516C1.79204 7.90391 3.55079 9.66266 5.72954 9.66266C7.90829 9.66266 9.66704 7.90391 9.66704 5.72516C9.66704 3.54641 7.90829 1.78766 5.72954 1.78766C3.55079 1.78766 1.79204 3.54641 1.79204 5.72516Z" fill="white"/>
</svg>
