<svg width="15" height="15" viewBox="0 0 15 15" fill="none" xmlns="http://www.w3.org/2000/svg">
<path fill-rule="evenodd" clip-rule="evenodd" d="M10.2878 9.66266H10.9791L14.6891 13.3902C15.0478 13.7489 15.0478 14.3352 14.6891 14.6939C14.3303 15.0527 13.7441 15.0527 13.3853 14.6939L9.66656 10.9752V10.2839L9.43031 10.0389C8.20531 11.0889 6.53406 11.6314 4.75781 11.3339C2.32531 10.9227 0.382813 8.89266 0.085313 6.44266C-0.369687 2.74141 2.74531 -0.373593 6.44656 0.0814068C8.89656 0.378907 10.9266 2.32141 11.3378 4.75391C11.6353 6.53016 11.0928 8.20141 10.0428 9.42641L10.2878 9.66266ZM1.79155 5.72516C1.79155 7.90391 3.5503 9.66266 5.72905 9.66266C7.9078 9.66266 9.66655 7.90391 9.66655 5.72516C9.66655 3.54641 7.9078 1.78766 5.72905 1.78766C3.5503 1.78766 1.79155 3.54641 1.79155 5.72516Z" fill="#1B1B1B"/>
</svg>
