<svg width="179" height="50" viewBox="0 0 179 50" fill="none" xmlns="http://www.w3.org/2000/svg">
<path d="M0 3C0 1.34315 1.34315 0 3 0H176C177.657 0 179 1.34315 179 3V47C179 48.6569 177.657 50 176 50H3C1.34314 50 0 48.6569 0 47V3Z" fill="#C5322A"/>
<path d="M60.748 32.3613C64.2637 32.3613 66.4316 30.5938 66.4316 27.8008V27.791C66.4316 25.5938 65.1328 24.4023 62.1543 23.7871L60.6602 23.4844C59 23.1426 58.3164 22.5957 58.3164 21.6777V21.668C58.3164 20.6133 59.2832 19.9492 60.7383 19.9395C62.2227 19.9395 63.1992 20.6426 63.3652 21.6484L63.3848 21.7656H66.1582L66.1484 21.6387C65.9629 19.2852 64.0293 17.5469 60.7383 17.5469C57.6133 17.5469 55.3672 19.2754 55.3672 21.8926V21.9023C55.3672 24.041 56.627 25.4082 59.5566 26.0039L61.041 26.3066C62.7891 26.668 63.4824 27.1855 63.4824 28.1133V28.123C63.4824 29.207 62.3984 29.959 60.8262 29.959C59.1758 29.959 58.0332 29.2461 57.9258 28.1914L57.916 28.0938H55.0742L55.084 28.25C55.25 30.75 57.3789 32.3613 60.748 32.3613ZM73.668 32.2246C76.8125 32.2246 78.1992 30.4082 78.5312 29.0605L78.5508 28.9629H75.8945L75.8652 29.0215C75.6699 29.4316 74.9766 30.0957 73.7266 30.0957C72.2129 30.0957 71.2656 29.0703 71.2363 27.3027H78.6387V26.4141C78.6387 23.1621 76.6855 21.0137 73.5508 21.0137C70.416 21.0137 68.4141 23.2109 68.4141 26.6289V26.6387C68.4141 30.0859 70.3965 32.2246 73.668 32.2246ZM73.5996 23.1523C74.8398 23.1523 75.7285 23.9531 75.9043 25.5156H71.2656C71.4414 23.9922 72.3594 23.1523 73.5996 23.1523ZM83.9023 32.166C85.3086 32.166 86.4414 31.5703 86.9883 30.5742H87.1641V32H89.9766V24.6562C89.9766 22.3613 88.3652 21.0137 85.5137 21.0137C82.8086 21.0137 81.0312 22.2637 80.8066 24.1484L80.7969 24.2363H83.4336L83.4531 24.1973C83.6777 23.5625 84.332 23.2012 85.3574 23.2012C86.5293 23.2012 87.1641 23.7285 87.1641 24.6562V25.5449L84.5664 25.7012C81.8906 25.8574 80.3965 26.9902 80.3965 28.9238V28.9434C80.3965 30.8965 81.8516 32.166 83.9023 32.166ZM83.1797 28.7676V28.748C83.1797 27.9668 83.7754 27.5078 84.9961 27.4297L87.1641 27.293V28.084C87.1641 29.2168 86.1777 30.0859 84.8594 30.0859C83.873 30.0859 83.1797 29.5879 83.1797 28.7676ZM92.7695 32H95.6211V25.9844C95.6211 24.4609 96.6465 23.5332 98.2676 23.5332C98.707 23.5332 99.1465 23.6016 99.5762 23.6992V21.209C99.293 21.1309 98.8926 21.0723 98.5117 21.0723C97.1152 21.0723 96.1387 21.7559 95.7969 22.918H95.6211V21.248H92.7695V32ZM105.963 32.2246C108.766 32.2246 110.445 30.7207 110.738 28.377L110.748 28.3184H108.111L108.092 28.3574C107.838 29.4316 107.145 29.9883 105.973 29.9883C104.449 29.9883 103.6 28.7871 103.6 26.6094V26.5898C103.6 24.4414 104.439 23.25 105.973 23.25C107.193 23.25 107.906 23.9336 108.092 24.9785L108.102 24.998H110.758V24.9688C110.504 22.5664 108.814 21.0137 105.963 21.0137C102.594 21.0137 100.699 23.0547 100.699 26.5898V26.6094C100.699 30.1836 102.604 32.2246 105.963 32.2246ZM113.082 32H115.934V25.7793C115.934 24.3242 116.734 23.377 118.053 23.377C119.4 23.377 120.025 24.1777 120.025 25.6914V32H122.877V25.0469C122.877 22.4785 121.588 21.0137 119.195 21.0137C117.662 21.0137 116.598 21.7461 116.109 22.9082H115.934V17.1367H113.082V32Z" fill="white"/>
</svg>
