<svg width="95" height="30" viewBox="0 0 95 30" fill="none" xmlns="http://www.w3.org/2000/svg">
<path d="M10.252 17.2588H12.248C12.2936 17.6598 12.5033 17.9788 12.877 18.2158C13.2507 18.4528 13.7292 18.5713 14.3125 18.5713C14.8503 18.5713 15.29 18.4551 15.6318 18.2227C15.9736 17.9857 16.1445 17.6803 16.1445 17.3066C16.1445 16.9922 16.0124 16.737 15.748 16.541C15.4837 16.3451 15.0485 16.1833 14.4424 16.0557L13.1572 15.7822C11.3708 15.4085 10.4775 14.4697 10.4775 12.9658C10.4775 12.0361 10.8216 11.291 11.5098 10.7305C12.1979 10.1654 13.1117 9.88281 14.251 9.88281C15.3356 9.88281 16.2266 10.1585 16.9238 10.71C17.6257 11.2614 17.9925 11.9769 18.0244 12.8564H16.083C16.0329 12.4645 15.8415 12.1501 15.5088 11.9131C15.1761 11.6761 14.7614 11.5576 14.2646 11.5576C13.7451 11.5576 13.3281 11.6693 13.0137 11.8926C12.7038 12.1159 12.5488 12.4144 12.5488 12.7881C12.5488 13.0934 12.6742 13.3395 12.9248 13.5264C13.18 13.7132 13.597 13.8682 14.1758 13.9912L15.3652 14.2441C16.3542 14.4538 17.0742 14.7819 17.5254 15.2285C17.9766 15.6751 18.2021 16.2812 18.2021 17.0469C18.2021 18.0404 17.8444 18.8242 17.1289 19.3984C16.418 19.9681 15.4427 20.2529 14.2031 20.2529C13.0273 20.2529 12.084 19.984 11.373 19.4463C10.6621 18.9085 10.2884 18.1794 10.252 17.2588ZM23.2197 13.8203C22.7594 13.8203 22.3789 13.9684 22.0781 14.2646C21.7819 14.5609 21.6156 14.9528 21.5791 15.4404H24.792C24.7692 14.9391 24.6165 14.5449 24.334 14.2578C24.056 13.9661 23.6846 13.8203 23.2197 13.8203ZM24.833 17.8535H26.6855C26.5352 18.569 26.1523 19.1341 25.5371 19.5488C24.9264 19.959 24.1608 20.1641 23.2402 20.1641C22.0918 20.1641 21.1963 19.8223 20.5537 19.1387C19.9111 18.4505 19.5898 17.4935 19.5898 16.2676C19.5898 15.0417 19.9134 14.0732 20.5605 13.3623C21.2077 12.6514 22.0918 12.2959 23.2129 12.2959C24.3249 12.2959 25.1908 12.6309 25.8105 13.3008C26.4349 13.9707 26.7471 14.9049 26.7471 16.1035V16.7119H21.5723V16.8145C21.5859 17.375 21.7454 17.8193 22.0508 18.1475C22.3607 18.471 22.7754 18.6328 23.2949 18.6328C23.6868 18.6328 24.015 18.5667 24.2793 18.4346C24.5436 18.2979 24.7282 18.1042 24.833 17.8535ZM35.0527 15.1191H33.1934C33.125 14.75 32.9609 14.4606 32.7012 14.251C32.446 14.0368 32.111 13.9297 31.6963 13.9297C31.1585 13.9297 30.7438 14.1257 30.4521 14.5176C30.165 14.9095 30.0215 15.4746 30.0215 16.2129C30.0215 16.9603 30.165 17.5345 30.4521 17.9355C30.7438 18.332 31.1585 18.5303 31.6963 18.5303C32.1064 18.5303 32.4391 18.4323 32.6943 18.2363C32.9541 18.0404 33.1204 17.7578 33.1934 17.3887H35.0527C34.9707 18.2409 34.6335 18.9176 34.041 19.4189C33.4486 19.9157 32.667 20.1641 31.6963 20.1641C30.5205 20.1641 29.6113 19.8223 28.9688 19.1387C28.3307 18.4505 28.0117 17.4753 28.0117 16.2129C28.0117 14.9596 28.3307 13.9935 28.9688 13.3145C29.6068 12.6354 30.516 12.2959 31.6963 12.2959C32.6807 12.2959 33.4645 12.5488 34.0479 13.0547C34.6357 13.5605 34.9707 14.2487 35.0527 15.1191ZM42.6748 19.1182C42.0186 19.8154 41.1117 20.1641 39.9541 20.1641C38.7965 20.1641 37.8874 19.8154 37.2266 19.1182C36.5703 18.4209 36.2422 17.457 36.2422 16.2266C36.2422 15.0052 36.5726 14.0459 37.2334 13.3486C37.8988 12.6468 38.8057 12.2959 39.9541 12.2959C41.1025 12.2959 42.0072 12.6468 42.668 13.3486C43.3333 14.0459 43.666 15.0052 43.666 16.2266C43.666 17.457 43.3356 18.4209 42.6748 19.1182ZM39.9541 18.5371C40.4827 18.5371 40.8929 18.3366 41.1846 17.9355C41.4762 17.5299 41.6221 16.9603 41.6221 16.2266C41.6221 15.502 41.474 14.9368 41.1777 14.5312C40.8861 14.1257 40.4782 13.9229 39.9541 13.9229C39.4255 13.9229 39.0153 14.1257 38.7236 14.5312C38.432 14.9368 38.2861 15.502 38.2861 16.2266C38.2861 16.9603 38.4297 17.5299 38.7168 17.9355C39.0085 18.3366 39.4209 18.5371 39.9541 18.5371ZM45.293 20V12.46H47.2207V13.6699H47.3438C47.5215 13.237 47.7995 12.8997 48.1777 12.6582C48.5605 12.4167 49.0254 12.2959 49.5723 12.2959C50.4062 12.2959 51.0443 12.542 51.4863 13.0342C51.9284 13.5218 52.1494 14.2191 52.1494 15.126V20H50.1602V15.5977C50.1602 14.5404 49.6976 14.0117 48.7725 14.0117C48.3122 14.0117 47.9476 14.1621 47.6787 14.4629C47.4144 14.7591 47.2822 15.1556 47.2822 15.6523V20H45.293ZM56.7842 20.1162C55.8363 20.1162 55.0866 19.7676 54.5352 19.0703C53.9883 18.373 53.7148 17.4229 53.7148 16.2197C53.7148 15.0212 53.9883 14.0755 54.5352 13.3828C55.0866 12.6855 55.8363 12.3369 56.7842 12.3369C57.2946 12.3369 57.748 12.4554 58.1445 12.6924C58.541 12.9248 58.8372 13.2484 59.0332 13.6631H59.1494V9.58203H61.1387V20H59.2109V18.8174H59.0879C58.8874 19.223 58.5843 19.542 58.1787 19.7744C57.7731 20.0023 57.3083 20.1162 56.7842 20.1162ZM58.7119 14.6064C58.4066 14.2054 57.9896 14.0049 57.4609 14.0049C56.9323 14.0049 56.5153 14.2031 56.21 14.5996C55.9092 14.9915 55.7588 15.5339 55.7588 16.2266C55.7588 16.9238 55.9092 17.4707 56.21 17.8672C56.5107 18.2591 56.9277 18.4551 57.4609 18.4551C57.9941 18.4551 58.4111 18.2591 58.7119 17.8672C59.0173 17.4707 59.1699 16.9261 59.1699 16.2334C59.1699 15.5452 59.0173 15.0029 58.7119 14.6064ZM65.9238 18.6191C66.3841 18.6191 66.7692 18.4893 67.0791 18.2295C67.389 17.9697 67.5439 17.6484 67.5439 17.2656V16.7119L66.0195 16.8076C65.1719 16.8669 64.748 17.1699 64.748 17.7168C64.748 17.9948 64.8551 18.2158 65.0693 18.3799C65.2881 18.5394 65.5729 18.6191 65.9238 18.6191ZM65.2676 20.1162C64.5384 20.1162 63.9437 19.9089 63.4834 19.4941C63.0277 19.0794 62.7998 18.5303 62.7998 17.8467C62.7998 17.1676 63.0505 16.6344 63.5518 16.2471C64.0576 15.8551 64.7799 15.6318 65.7188 15.5771L67.5439 15.4678V14.8525C67.5439 14.5381 67.4346 14.2965 67.2158 14.1279C66.9971 13.9548 66.6826 13.8682 66.2725 13.8682C65.5342 13.8682 65.0807 14.1006 64.9121 14.5654H63.0801C63.1439 13.8682 63.472 13.3167 64.0645 12.9111C64.6615 12.501 65.4339 12.2959 66.3818 12.2959C67.3753 12.2959 68.1432 12.5192 68.6855 12.9658C69.2324 13.4124 69.5059 14.0413 69.5059 14.8525V20H67.5781V19.0156H67.4551C67.2591 19.362 66.9674 19.6331 66.5801 19.8291C66.1927 20.0205 65.7552 20.1162 65.2676 20.1162ZM71.4609 20V12.46H73.3887V13.6631H73.5117C73.612 13.2803 73.8398 12.9635 74.1953 12.7129C74.5553 12.4622 74.9723 12.3369 75.4463 12.3369C75.7881 12.3369 76.0479 12.3688 76.2256 12.4326V14.2441C76.016 14.1621 75.7015 14.1211 75.2822 14.1211C74.7308 14.1211 74.2865 14.2738 73.9492 14.5791C73.6165 14.8844 73.4502 15.2992 73.4502 15.8232V20H71.4609ZM78.6045 22.7412C78.1807 22.7412 77.9277 22.7344 77.8457 22.7207V21.1211C77.8913 21.1302 78.0417 21.1348 78.2969 21.1348C78.6751 21.1348 78.9714 21.0687 79.1855 20.9365C79.3997 20.8089 79.5479 20.6038 79.6299 20.3213L79.6982 20.0479L77.0527 12.46H79.2471L80.833 18.1748H80.9561L82.542 12.46H84.6475L82.0498 20.1162C81.7308 21.0824 81.3115 21.7614 80.792 22.1533C80.277 22.5452 79.5479 22.7412 78.6045 22.7412Z" fill="#00DDC0"/>
<rect x="0.5" y="0.5" width="94" height="29" rx="2.5" stroke="#00DDC0"/>
</svg>
