<svg width="16" height="16" viewBox="0 0 16 16" fill="none" xmlns="http://www.w3.org/2000/svg">
<path fill-rule="evenodd" clip-rule="evenodd" d="M8.00033 5.33329C8.73366 5.33329 9.33366 4.73329 9.33366 3.99996C9.33366 3.26663 8.73366 2.66663 8.00033 2.66663C7.26699 2.66663 6.66699 3.26663 6.66699 3.99996C6.66699 4.73329 7.26699 5.33329 8.00033 5.33329ZM8.00033 6.66663C7.26699 6.66663 6.66699 7.26663 6.66699 7.99996C6.66699 8.73329 7.26699 9.33329 8.00033 9.33329C8.73366 9.33329 9.33366 8.73329 9.33366 7.99996C9.33366 7.26663 8.73366 6.66663 8.00033 6.66663ZM6.66699 12C6.66699 11.2666 7.26699 10.6666 8.00033 10.6666C8.73366 10.6666 9.33366 11.2666 9.33366 12C9.33366 12.7333 8.73366 13.3333 8.00033 13.3333C7.26699 13.3333 6.66699 12.7333 6.66699 12Z" fill="#1B1B1B" fill-opacity="0.6"/>
</svg>
