<svg width="24" height="24" viewBox="0 0 24 24" fill="none" xmlns="http://www.w3.org/2000/svg">
<path d="M12.0042 8.73239C11.228 8.73239 10.5011 9.04354 9.95078 9.6122C9.40303 10.1809 9.0993 10.9319 9.0993 11.7339C9.0993 12.536 9.40303 13.287 9.95078 13.8557C10.5011 14.4217 11.228 14.7355 12.0042 14.7355C12.7804 14.7355 13.5073 14.4217 14.0577 13.8557C14.6054 13.287 14.9092 12.536 14.9092 11.7339C14.9092 10.9319 14.6054 10.1809 14.0577 9.6122C13.7889 9.33232 13.4689 9.11041 13.1164 8.95937C12.7639 8.80834 12.3858 8.73118 12.0042 8.73239ZM22.7075 15.0493L21.0098 13.5499C21.0902 13.0402 21.1318 12.5199 21.1318 12.0022C21.1318 11.4845 21.0902 10.9614 21.0098 10.4545L22.7075 8.95502C22.8358 8.84158 22.9276 8.69048 22.9707 8.52182C23.0138 8.35316 23.0063 8.17494 22.949 8.01084L22.9256 7.9411C22.4584 6.59104 21.7582 5.33963 20.8592 4.2475L20.8125 4.19117C20.7033 4.05853 20.5578 3.96319 20.3951 3.9177C20.2325 3.87221 20.0603 3.87871 19.9013 3.93635L17.7933 4.71155C17.0145 4.05169 16.1474 3.53131 15.2077 3.1692L14.8001 0.891881C14.7694 0.720324 14.6888 0.562495 14.5692 0.439363C14.4496 0.316231 14.2965 0.233624 14.1303 0.202517L14.0603 0.189106C12.7103 -0.0630352 11.2877 -0.0630352 9.93781 0.189106L9.86771 0.202517C9.70156 0.233624 9.5485 0.316231 9.42887 0.439363C9.30924 0.562495 9.22869 0.720324 9.19794 0.891881L8.78778 3.17993C7.85692 3.54493 6.98977 4.06404 6.22033 4.71691L4.0968 3.93635C3.93784 3.87825 3.76553 3.87152 3.60277 3.91703C3.44001 3.96255 3.29451 4.05817 3.1856 4.19117L3.13888 4.2475C2.24142 5.3408 1.54148 6.5919 1.07246 7.9411L1.04909 8.01084C0.932273 8.34613 1.02833 8.72166 1.29052 8.95502L3.00907 10.4706C2.9286 10.9748 2.88966 11.4898 2.88966 11.9995C2.88966 12.5145 2.9286 13.0295 3.00907 13.5284L1.29571 15.044C1.16746 15.1574 1.07567 15.3085 1.03254 15.4772C0.989415 15.6458 0.996999 15.824 1.05429 15.9881L1.07765 16.0579C1.54753 17.4071 2.24066 18.6544 3.14407 19.7515L3.19079 19.8078C3.29997 19.9404 3.44547 20.0358 3.60813 20.0813C3.7708 20.1268 3.94298 20.1203 4.10199 20.0626L6.22552 19.2821C6.99913 19.9392 7.861 20.4596 8.79297 20.8191L9.20314 23.1071C9.23389 23.2787 9.31443 23.4365 9.43406 23.5596C9.55369 23.6828 9.70675 23.7654 9.8729 23.7965L9.943 23.8099C11.3062 24.0634 12.7022 24.0634 14.0654 23.8099L14.1355 23.7965C14.3017 23.7654 14.4548 23.6828 14.5744 23.5596C14.694 23.4365 14.7746 23.2787 14.8053 23.1071L15.2129 20.8298C16.1526 20.465 17.0197 19.9473 17.7985 19.2874L19.9065 20.0626C20.0654 20.1207 20.2377 20.1275 20.4005 20.0819C20.5632 20.0364 20.7087 19.9408 20.8176 19.8078L20.8644 19.7515C21.7678 18.649 22.4609 17.4071 22.9308 16.0579L22.9542 15.9881C23.0658 15.6555 22.9697 15.2827 22.7075 15.0493ZM12.0042 16.4495C9.4835 16.4495 7.44045 14.3385 7.44045 11.7339C7.44045 9.12938 9.4835 7.01837 12.0042 7.01837C14.5249 7.01837 16.568 9.12938 16.568 11.7339C16.568 14.3385 14.5249 16.4495 12.0042 16.4495Z" fill="black"/>
</svg>
