<svg width="22" height="20" viewBox="0 0 22 20" fill="none" xmlns="http://www.w3.org/2000/svg">
<path fill-rule="evenodd" clip-rule="evenodd" d="M0.996277 1C0.996277 1.55 1.44628 2 1.99628 2H2.99628L6.59628 9.59L5.24628 12.03C4.51628 13.37 5.47628 15 6.99628 15H17.9963C18.5463 15 18.9963 14.55 18.9963 14C18.9963 13.45 18.5463 13 17.9963 13H6.99628L8.09628 11H15.5463C16.2963 11 16.9563 10.59 17.2963 9.97L20.8763 3.48C21.2463 2.82 20.7663 2 20.0063 2H5.20628L4.53628 0.57C4.37628 0.22 4.01628 0 3.63628 0H1.99628C1.44628 0 0.996277 0.45 0.996277 1ZM6.99628 16C5.89628 16 5.00628 16.9 5.00628 18C5.00628 19.1 5.89628 20 6.99628 20C8.09628 20 8.99628 19.1 8.99628 18C8.99628 16.9 8.09628 16 6.99628 16ZM15.0063 18C15.0063 16.9 15.8963 16 16.9963 16C18.0963 16 18.9963 16.9 18.9963 18C18.9963 19.1 18.0963 20 16.9963 20C15.8963 20 15.0063 19.1 15.0063 18Z" fill="white"/>
</svg>
