<svg width="18" height="18" viewBox="0 0 18 18" fill="none" xmlns="http://www.w3.org/2000/svg">
<path fill-rule="evenodd" clip-rule="evenodd" d="M0.663574 1.49996C0.663574 1.95829 1.03857 2.33329 1.49691 2.33329H2.33024L5.33024 8.65829L4.20524 10.6916C3.59691 11.8083 4.39691 13.1666 5.66357 13.1666H14.8302C15.2886 13.1666 15.6636 12.7916 15.6636 12.3333C15.6636 11.875 15.2886 11.5 14.8302 11.5H5.66357L6.58024 9.83329H12.7886C13.4136 9.83329 13.9636 9.49163 14.2469 8.97496L17.2302 3.56663C17.5386 3.01663 17.1386 2.33329 16.5052 2.33329H4.17191L3.61357 1.14163C3.48024 0.849959 3.18024 0.666626 2.86357 0.666626H1.49691C1.03857 0.666626 0.663574 1.04163 0.663574 1.49996ZM5.66357 14C4.74691 14 4.00524 14.75 4.00524 15.6666C4.00524 16.5833 4.74691 17.3333 5.66357 17.3333C6.58024 17.3333 7.33024 16.5833 7.33024 15.6666C7.33024 14.75 6.58024 14 5.66357 14ZM12.3386 15.6666C12.3386 14.75 13.0802 14 13.9969 14C14.9136 14 15.6636 14.75 15.6636 15.6666C15.6636 16.5833 14.9136 17.3333 13.9969 17.3333C13.0802 17.3333 12.3386 16.5833 12.3386 15.6666Z" fill="#1B1B1B" fill-opacity="0.6"/>
</svg>
