<svg width="103" height="32" viewBox="0 0 103 32" fill="none" xmlns="http://www.w3.org/2000/svg">
<path d="M0 3C0 1.34315 1.34315 0 3 0H100C101.657 0 103 1.34315 103 3V29C103 30.6569 101.657 32 100 32H3C1.34315 32 0 30.6569 0 29V3Z" fill="#C5322A"/>
<path fill-rule="evenodd" clip-rule="evenodd" d="M24 9.33337C20.32 9.33337 17.3333 12.32 17.3333 16C17.3333 19.68 20.32 22.6667 24 22.6667C27.68 22.6667 30.6666 19.68 30.6666 16C30.6666 12.32 27.68 9.33337 24 9.33337ZM26.8267 13.1734C26.0467 12.3934 25.0267 12 24.0001 12V16L21.1734 18.8267C22.7334 20.3867 25.2667 20.3867 26.8334 18.8267C28.3934 17.2667 28.3934 14.7334 26.8267 13.1734ZM18.6666 16C18.6666 18.9467 21.0533 21.3334 24 21.3334C26.9466 21.3334 29.3333 18.9467 29.3333 16C29.3333 13.0534 26.9466 10.6667 24 10.6667C21.0533 10.6667 18.6666 13.0534 18.6666 16Z" fill="white"/>
<path d="M44.0488 20.2168C46.1582 20.2168 47.459 19.1562 47.459 17.4805V17.4746C47.459 16.1562 46.6797 15.4414 44.8926 15.0723L43.9961 14.8906C43 14.6855 42.5898 14.3574 42.5898 13.8066V13.8008C42.5898 13.168 43.1699 12.7695 44.043 12.7637C44.9336 12.7637 45.5195 13.1855 45.6191 13.7891L45.6309 13.8594H47.2949L47.2891 13.7832C47.1777 12.3711 46.0176 11.3281 44.043 11.3281C42.168 11.3281 40.8203 12.3652 40.8203 13.9355V13.9414C40.8203 15.2246 41.5762 16.0449 43.334 16.4023L44.2246 16.584C45.2734 16.8008 45.6895 17.1113 45.6895 17.668V17.6738C45.6895 18.3242 45.0391 18.7754 44.0957 18.7754C43.1055 18.7754 42.4199 18.3477 42.3555 17.7148L42.3496 17.6562H40.6445L40.6504 17.75C40.75 19.25 42.0273 20.2168 44.0488 20.2168ZM49.8379 12.5586C50.3652 12.5586 50.7988 12.1367 50.7988 11.6094C50.7988 11.0762 50.3652 10.6543 49.8379 10.6543C49.3105 10.6543 48.8711 11.0762 48.8711 11.6094C48.8711 12.1367 49.3105 12.5586 49.8379 12.5586ZM48.9766 20H50.6875V13.5488H48.9766V20ZM55.2578 22.2676C57.209 22.2676 58.4453 21.3125 58.4453 19.8008V13.5488H56.7344V14.6035H56.6523C56.3066 13.877 55.6152 13.4434 54.7305 13.4434C53.0781 13.4434 52.0762 14.7207 52.0762 16.6191V16.6309C52.0762 18.4648 53.0781 19.7188 54.7012 19.7188C55.5977 19.7188 56.2773 19.3496 56.6348 18.6699H56.7402V19.8711C56.7402 20.6211 56.207 21.0488 55.293 21.0488C54.5312 21.0488 54.0859 20.791 53.9922 20.416L53.9863 20.3926H52.293V20.4219C52.4336 21.5176 53.4707 22.2676 55.2578 22.2676ZM55.2812 18.4062C54.3555 18.4062 53.8281 17.6855 53.8281 16.625V16.6133C53.8281 15.5527 54.3613 14.832 55.2812 14.832C56.2012 14.832 56.7578 15.5527 56.7578 16.6133V16.625C56.7578 17.6855 56.207 18.4062 55.2812 18.4062ZM60.1562 20H61.8672V16.2676C61.8672 15.3945 62.3477 14.8262 63.1387 14.8262C63.9473 14.8262 64.3223 15.3066 64.3223 16.2148V20H66.0332V15.8281C66.0332 14.2871 65.2598 13.4082 63.8242 13.4082C62.9043 13.4082 62.2656 13.8477 61.9727 14.5449H61.8672V13.5488H60.1562V20ZM74.4941 20.2168C76.6738 20.2168 78.0332 18.957 78.0332 17.082V11.5449H76.2637V16.9238C76.2637 18.0195 75.6309 18.7168 74.4941 18.7168C73.3574 18.7168 72.7188 18.0195 72.7188 16.9238V11.5449H70.9492V17.082C70.9492 18.9629 72.3262 20.2168 74.4941 20.2168ZM79.9141 22.1387H81.625V18.9688H81.7305C82.0586 19.6719 82.7793 20.0996 83.6641 20.0996C85.2988 20.0996 86.2832 18.8516 86.2832 16.7773V16.7656C86.2832 14.709 85.2754 13.4434 83.6641 13.4434C82.75 13.4434 82.0645 13.8535 81.7305 14.5449H81.625V13.5488H79.9141V22.1387ZM83.0781 18.6816C82.1816 18.6816 81.6074 17.9609 81.6074 16.7773V16.7656C81.6074 15.582 82.1758 14.8613 83.0781 14.8613C83.9863 14.8613 84.543 15.582 84.543 16.7656V16.7773C84.543 17.9609 83.9805 18.6816 83.0781 18.6816Z" fill="white"/>
</svg>
