<svg width="352" height="41" viewBox="0 0 352 41" fill="none" xmlns="http://www.w3.org/2000/svg">
<path d="M0 3C0 1.34315 1.34315 0 3 0H349C350.657 0 352 1.34315 352 3V38C352 39.6569 350.657 41 349 41H3.00001C1.34315 41 0 39.6569 0 38V3Z" fill="#C5322A"/>
<path d="M119.656 26.2891C122.375 26.2891 124.305 24.6797 124.547 22.3203L124.555 22.2344H122.258L122.242 22.2969C121.992 23.5 121.016 24.2891 119.664 24.2891C117.883 24.2891 116.781 22.7891 116.781 20.3672V20.3516C116.781 17.9297 117.883 16.4375 119.656 16.4375C121 16.4375 122.008 17.2969 122.25 18.5625V18.6172H124.547V18.5234C124.328 16.1406 122.328 14.4375 119.656 14.4375C116.383 14.4375 114.367 16.6953 114.367 20.3516V20.3672C114.367 24.0234 116.391 26.2891 119.656 26.2891ZM126.5 26H128.781V21.1875C128.781 19.9688 129.602 19.2266 130.898 19.2266C131.25 19.2266 131.602 19.2812 131.945 19.3594V17.3672C131.719 17.3047 131.398 17.2578 131.094 17.2578C129.977 17.2578 129.195 17.8047 128.922 18.7344H128.781V17.3984H126.5V26ZM137.047 26.1797C139.562 26.1797 140.672 24.7266 140.938 23.6484L140.953 23.5703H138.828L138.805 23.6172C138.648 23.9453 138.094 24.4766 137.094 24.4766C135.883 24.4766 135.125 23.6562 135.102 22.2422H141.023V21.5312C141.023 18.9297 139.461 17.2109 136.953 17.2109C134.445 17.2109 132.844 18.9688 132.844 21.7031V21.7109C132.844 24.4688 134.43 26.1797 137.047 26.1797ZM136.992 18.9219C137.984 18.9219 138.695 19.5625 138.836 20.8125H135.125C135.266 19.5938 136 18.9219 136.992 18.9219ZM145.234 26.1328C146.359 26.1328 147.266 25.6562 147.703 24.8594H147.844V26H150.094V20.125C150.094 18.2891 148.805 17.2109 146.523 17.2109C144.359 17.2109 142.938 18.2109 142.758 19.7188L142.75 19.7891H144.859L144.875 19.7578C145.055 19.25 145.578 18.9609 146.398 18.9609C147.336 18.9609 147.844 19.3828 147.844 20.125V20.8359L145.766 20.9609C143.625 21.0859 142.43 21.9922 142.43 23.5391V23.5547C142.43 25.1172 143.594 26.1328 145.234 26.1328ZM144.656 23.4141V23.3984C144.656 22.7734 145.133 22.4062 146.109 22.3438L147.844 22.2344V22.8672C147.844 23.7734 147.055 24.4688 146 24.4688C145.211 24.4688 144.656 24.0703 144.656 23.4141ZM155.898 26.0312C156.336 26.0312 156.758 25.9844 157.039 25.9297V24.2344C156.82 24.2578 156.664 24.2734 156.367 24.2734C155.594 24.2734 155.266 23.9297 155.266 23.1562V19.1172H157.039V17.3984H155.266V15.3438H152.961V17.3984H151.633V19.1172H152.961V23.6797C152.961 25.3516 153.805 26.0312 155.898 26.0312ZM162.656 26.1797C165.172 26.1797 166.281 24.7266 166.547 23.6484L166.562 23.5703H164.438L164.414 23.6172C164.258 23.9453 163.703 24.4766 162.703 24.4766C161.492 24.4766 160.734 23.6562 160.711 22.2422H166.633V21.5312C166.633 18.9297 165.07 17.2109 162.562 17.2109C160.055 17.2109 158.453 18.9688 158.453 21.7031V21.7109C158.453 24.4688 160.039 26.1797 162.656 26.1797ZM162.602 18.9219C163.594 18.9219 164.305 19.5625 164.445 20.8125H160.734C160.875 19.5938 161.609 18.9219 162.602 18.9219ZM172.047 26H174.523L175.359 23.2656H179.336L180.172 26H182.656L178.734 14.7266H175.961L172.047 26ZM177.281 16.9766H177.422L178.797 21.5H175.898L177.281 16.9766ZM187.664 26.1797C189.906 26.1797 191.25 24.9766 191.484 23.1016L191.492 23.0547H189.383L189.367 23.0859C189.164 23.9453 188.609 24.3906 187.672 24.3906C186.453 24.3906 185.773 23.4297 185.773 21.6875V21.6719C185.773 19.9531 186.445 19 187.672 19C188.648 19 189.219 19.5469 189.367 20.3828L189.375 20.3984H191.5V20.375C191.297 18.4531 189.945 17.2109 187.664 17.2109C184.969 17.2109 183.453 18.8438 183.453 21.6719V21.6875C183.453 24.5469 184.977 26.1797 187.664 26.1797ZM197.07 26.1797C199.312 26.1797 200.656 24.9766 200.891 23.1016L200.898 23.0547H198.789L198.773 23.0859C198.57 23.9453 198.016 24.3906 197.078 24.3906C195.859 24.3906 195.18 23.4297 195.18 21.6875V21.6719C195.18 19.9531 195.852 19 197.078 19C198.055 19 198.625 19.5469 198.773 20.3828L198.781 20.3984H200.906V20.375C200.703 18.4531 199.352 17.2109 197.07 17.2109C194.375 17.2109 192.859 18.8438 192.859 21.6719V21.6875C192.859 24.5469 194.383 26.1797 197.07 26.1797ZM206.508 26.1797C209.156 26.1797 210.75 24.5078 210.75 21.7031V21.6875C210.75 18.9062 209.133 17.2109 206.508 17.2109C203.883 17.2109 202.266 18.9141 202.266 21.6875V21.7031C202.266 24.5 203.859 26.1797 206.508 26.1797ZM206.508 24.3906C205.289 24.3906 204.602 23.3984 204.602 21.7031V21.6875C204.602 20.0078 205.297 19 206.508 19C207.711 19 208.414 20.0078 208.414 21.6875V21.7031C208.414 23.3984 207.719 24.3906 206.508 24.3906ZM215.453 26.1797C216.68 26.1797 217.555 25.6094 217.945 24.6719H218.086V26H220.367V17.3984H218.086V22.3672C218.086 23.5312 217.477 24.2891 216.352 24.2891C215.273 24.2891 214.812 23.6562 214.812 22.4375V17.3984H212.531V22.9609C212.531 25.0078 213.523 26.1797 215.453 26.1797ZM222.656 26H224.938V21.0234C224.938 19.8594 225.578 19.1016 226.633 19.1016C227.711 19.1016 228.211 19.7422 228.211 20.9531V26H230.492V20.4375C230.492 18.3828 229.461 17.2109 227.547 17.2109C226.32 17.2109 225.469 17.7969 225.078 18.7266H224.938V17.3984H222.656V26ZM236.273 26.0312C236.711 26.0312 237.133 25.9844 237.414 25.9297V24.2344C237.195 24.2578 237.039 24.2734 236.742 24.2734C235.969 24.2734 235.641 23.9297 235.641 23.1562V19.1172H237.414V17.3984H235.641V15.3438H233.336V17.3984H232.008V19.1172H233.336V23.6797C233.336 25.3516 234.18 26.0312 236.273 26.0312Z" fill="white"/>
</svg>
