<svg width="118" height="41" viewBox="0 0 118 41" fill="none" xmlns="http://www.w3.org/2000/svg">
<path d="M0 3C0 1.34315 1.34315 0 3 0H115C116.657 0 118 1.34315 118 3V38C118 39.6569 116.657 41 115 41H3C1.34314 41 0 39.6569 0 38V3Z" fill="#C5322A"/>
<path d="M18.8594 22.8672H21.1406C21.1927 23.3255 21.4323 23.6901 21.8594 23.9609C22.2865 24.2318 22.8333 24.3672 23.5 24.3672C24.1146 24.3672 24.6172 24.2344 25.0078 23.9688C25.3984 23.6979 25.5938 23.349 25.5938 22.9219C25.5938 22.5625 25.4427 22.2708 25.1406 22.0469C24.8385 21.8229 24.3411 21.638 23.6484 21.4922L22.1797 21.1797C20.138 20.7526 19.1172 19.6797 19.1172 17.9609C19.1172 16.8984 19.5104 16.0469 20.2969 15.4062C21.0833 14.7604 22.1276 14.4375 23.4297 14.4375C24.6693 14.4375 25.6875 14.7526 26.4844 15.3828C27.2865 16.013 27.7057 16.8307 27.7422 17.8359H25.5234C25.4661 17.388 25.2474 17.0286 24.8672 16.7578C24.487 16.487 24.013 16.3516 23.4453 16.3516C22.8516 16.3516 22.375 16.4792 22.0156 16.7344C21.6615 16.9896 21.4844 17.3307 21.4844 17.7578C21.4844 18.1068 21.6276 18.388 21.9141 18.6016C22.2057 18.8151 22.6823 18.9922 23.3438 19.1328L24.7031 19.4219C25.8333 19.6615 26.6562 20.0365 27.1719 20.5469C27.6875 21.0573 27.9453 21.75 27.9453 22.625C27.9453 23.7604 27.5365 24.6562 26.7188 25.3125C25.9062 25.9635 24.7917 26.2891 23.375 26.2891C22.0312 26.2891 20.9531 25.9818 20.1406 25.3672C19.3281 24.7526 18.901 23.9193 18.8594 22.8672ZM37.75 17.3828V26H35.5469V24.6172H35.4062C34.9792 25.6641 34.1406 26.1875 32.8906 26.1875C31.9583 26.1875 31.2214 25.9062 30.6797 25.3438C30.1432 24.776 29.875 23.9948 29.875 23V17.3828H32.1484V22.4141C32.1484 23.612 32.6771 24.2109 33.7344 24.2109C34.2917 24.2109 34.7214 24.0469 35.0234 23.7188C35.3255 23.3906 35.4766 22.9349 35.4766 22.3516V17.3828H37.75ZM45.1094 26.1328C44.5 26.1328 43.9609 26.0026 43.4922 25.7422C43.0286 25.4818 42.6823 25.1172 42.4531 24.6484H42.3125V26H40.1094V14.0938H42.3828V18.7578H42.5234C42.7422 18.2839 43.0807 17.9141 43.5391 17.6484C43.9974 17.3776 44.5208 17.2422 45.1094 17.2422C46.1979 17.2422 47.0521 17.6354 47.6719 18.4219C48.2917 19.2083 48.6016 20.2969 48.6016 21.6875C48.6016 23.0677 48.2891 24.1536 47.6641 24.9453C47.0443 25.737 46.1927 26.1328 45.1094 26.1328ZM45.7422 19.8281C45.3932 19.375 44.9193 19.1484 44.3203 19.1484C43.7214 19.1484 43.2448 19.3776 42.8906 19.8359C42.5417 20.2891 42.3646 20.9089 42.3594 21.6953C42.3646 22.4766 42.5417 23.0964 42.8906 23.5547C43.2448 24.0078 43.7214 24.2344 44.3203 24.2344C44.9245 24.2344 45.3984 24.0078 45.7422 23.5547C46.0911 23.1016 46.2656 22.4792 46.2656 21.6875C46.2656 20.901 46.0911 20.2812 45.7422 19.8281ZM50.2578 19.9141C50.2578 19.0964 50.5859 18.4401 51.2422 17.9453C51.9036 17.4453 52.7708 17.1953 53.8438 17.1953C54.9375 17.1953 55.7943 17.4167 56.4141 17.8594C57.0391 18.3021 57.3828 18.9349 57.4453 19.7578H55.3438C55.2865 19.4766 55.1276 19.2578 54.8672 19.1016C54.612 18.9401 54.276 18.8594 53.8594 18.8594C53.4479 18.8594 53.1094 18.9453 52.8438 19.1172C52.5781 19.2839 52.4453 19.5026 52.4453 19.7734C52.4453 19.9818 52.5391 20.1562 52.7266 20.2969C52.9141 20.4323 53.2083 20.5443 53.6094 20.6328L55.2266 20.9844C56.0651 21.1667 56.6771 21.4453 57.0625 21.8203C57.4531 22.1953 57.6484 22.7031 57.6484 23.3438C57.6484 24.1979 57.2995 24.8854 56.6016 25.4062C55.9036 25.9271 54.987 26.1875 53.8516 26.1875C52.7161 26.1875 51.8177 25.9635 51.1562 25.5156C50.4948 25.0677 50.125 24.4297 50.0469 23.6016H52.2656C52.4479 24.2161 52.9922 24.5234 53.8984 24.5234C54.3411 24.5234 54.7005 24.4401 54.9766 24.2734C55.2526 24.1016 55.3906 23.8776 55.3906 23.6016C55.3906 23.388 55.3047 23.2161 55.1328 23.0859C54.9609 22.9505 54.6849 22.8411 54.3047 22.7578L52.7422 22.4062C51.9036 22.224 51.2786 21.9297 50.8672 21.5234C50.4609 21.112 50.2578 20.5755 50.2578 19.9141ZM67.1406 20.4219H65.0156C64.9375 20 64.75 19.6693 64.4531 19.4297C64.1615 19.1849 63.7786 19.0625 63.3047 19.0625C62.6901 19.0625 62.2161 19.2865 61.8828 19.7344C61.5547 20.1823 61.3906 20.8281 61.3906 21.6719C61.3906 22.526 61.5547 23.1823 61.8828 23.6406C62.2161 24.0938 62.6901 24.3203 63.3047 24.3203C63.7734 24.3203 64.1536 24.2083 64.4453 23.9844C64.7422 23.7604 64.9323 23.4375 65.0156 23.0156H67.1406C67.0469 23.9896 66.6615 24.763 65.9844 25.3359C65.3073 25.9036 64.4141 26.1875 63.3047 26.1875C61.9609 26.1875 60.9219 25.7969 60.1875 25.0156C59.4583 24.2292 59.0938 23.1146 59.0938 21.6719C59.0938 20.2396 59.4583 19.1354 60.1875 18.3594C60.9167 17.5833 61.9557 17.1953 63.3047 17.1953C64.4297 17.1953 65.3255 17.4844 65.9922 18.0625C66.6641 18.6406 67.0469 19.4271 67.1406 20.4219ZM68.9219 26V17.3828H71.125V18.7578H71.2656C71.3802 18.3203 71.6406 17.9583 72.0469 17.6719C72.4583 17.3854 72.9349 17.2422 73.4766 17.2422C73.8672 17.2422 74.1641 17.2786 74.3672 17.3516V19.4219C74.1276 19.3281 73.7682 19.2812 73.2891 19.2812C72.6589 19.2812 72.151 19.4557 71.7656 19.8047C71.3854 20.1536 71.1953 20.6276 71.1953 21.2266V26H68.9219ZM75.9062 26V17.3828H78.1797V26H75.9062ZM77.0469 16.1797C76.6406 16.1797 76.3151 16.0729 76.0703 15.8594C75.8255 15.6458 75.7031 15.3698 75.7031 15.0312C75.7031 14.6875 75.8255 14.4115 76.0703 14.2031C76.3151 13.9896 76.6406 13.8828 77.0469 13.8828C77.4531 13.8828 77.7786 13.9896 78.0234 14.2031C78.2682 14.4115 78.3906 14.6875 78.3906 15.0312C78.3906 15.3698 78.2656 15.6458 78.0156 15.8594C77.7708 16.0729 77.4479 16.1797 77.0469 16.1797ZM85.5625 26.1328C84.9531 26.1328 84.4141 26.0026 83.9453 25.7422C83.4818 25.4818 83.1354 25.1172 82.9062 24.6484H82.7656V26H80.5625V14.0938H82.8359V18.7578H82.9766C83.1953 18.2839 83.5339 17.9141 83.9922 17.6484C84.4505 17.3776 84.974 17.2422 85.5625 17.2422C86.651 17.2422 87.5052 17.6354 88.125 18.4219C88.7448 19.2083 89.0547 20.2969 89.0547 21.6875C89.0547 23.0677 88.7422 24.1536 88.1172 24.9453C87.4974 25.737 86.6458 26.1328 85.5625 26.1328ZM86.1953 19.8281C85.8464 19.375 85.3724 19.1484 84.7734 19.1484C84.1745 19.1484 83.6979 19.3776 83.3438 19.8359C82.9948 20.2891 82.8177 20.9089 82.8125 21.6953C82.8177 22.4766 82.9948 23.0964 83.3438 23.5547C83.6979 24.0078 84.1745 24.2344 84.7734 24.2344C85.3776 24.2344 85.8516 24.0078 86.1953 23.5547C86.5443 23.1016 86.7188 22.4792 86.7188 21.6875C86.7188 20.901 86.5443 20.2812 86.1953 19.8281ZM94.6328 18.9375C94.1068 18.9375 93.6719 19.1068 93.3281 19.4453C92.9896 19.7839 92.7995 20.2318 92.7578 20.7891H96.4297C96.4036 20.2161 96.2292 19.7656 95.9062 19.4375C95.5885 19.1042 95.1641 18.9375 94.6328 18.9375ZM96.4766 23.5469H98.5938C98.4219 24.3646 97.9844 25.0104 97.2812 25.4844C96.5833 25.9531 95.7083 26.1875 94.6562 26.1875C93.3438 26.1875 92.3203 25.7969 91.5859 25.0156C90.8516 24.2292 90.4844 23.1354 90.4844 21.7344C90.4844 20.3333 90.8542 19.2266 91.5938 18.4141C92.3333 17.6016 93.3438 17.1953 94.625 17.1953C95.8958 17.1953 96.8854 17.5781 97.5938 18.3438C98.3073 19.1094 98.6641 20.1771 98.6641 21.5469V22.2422H92.75V22.3594C92.7656 23 92.9479 23.5078 93.2969 23.8828C93.651 24.2526 94.125 24.4375 94.7188 24.4375C95.1667 24.4375 95.5417 24.362 95.8438 24.2109C96.1458 24.0547 96.3568 23.8333 96.4766 23.5469Z" fill="white"/>
</svg>
