<svg width="67" height="24" viewBox="0 0 67 24" fill="none" xmlns="http://www.w3.org/2000/svg">
<rect width="67" height="24" rx="2" fill="#C5322A"/>
<path d="M10.0059 10.4043L8.42383 16H6.75391L4.51562 7.54492H6.35547L7.67383 13.5039H7.76758L9.30859 7.54492H10.8027L12.373 13.5039H12.4668L13.7734 7.54492H15.6016L13.3574 16H11.6992L10.0996 10.4043H10.0059ZM22.7441 14.4883V16H17.1426V7.54492H22.7441V9.05664H18.9121V11.0312H22.5273V12.4316H18.9121V14.4883H22.7441ZM28.4043 16H24.6074V7.54492H28.3047C29.1211 7.54492 29.7617 7.73242 30.2266 8.10742C30.6914 8.48242 30.9238 8.99805 30.9238 9.6543C30.9238 10.1035 30.7773 10.5 30.4844 10.8438C30.1914 11.1875 29.8281 11.3926 29.3945 11.459V11.5645C29.9531 11.6074 30.4141 11.8184 30.7773 12.1973C31.1445 12.5762 31.3281 13.0371 31.3281 13.5801C31.3281 14.3223 31.0664 14.9121 30.543 15.3496C30.0195 15.7832 29.3066 16 28.4043 16ZM26.377 8.89844V11.0488H27.707C28.1836 11.0488 28.5488 10.9551 28.8027 10.7676C29.0566 10.5801 29.1836 10.3164 29.1836 9.97656C29.1836 9.63672 29.0664 9.37305 28.832 9.18555C28.6016 8.99414 28.2754 8.89844 27.8535 8.89844H26.377ZM26.377 14.6465H27.9531C28.4609 14.6465 28.8496 14.543 29.1191 14.3359C29.3887 14.125 29.5234 13.8223 29.5234 13.4277C29.5234 13.041 29.3848 12.748 29.1074 12.5488C28.834 12.3457 28.4355 12.2441 27.9121 12.2441H26.377V14.6465ZM34.6973 16H32.9277V7.54492H34.6973V16ZM38.4414 16H36.748V7.54492H38.2246L42.1152 12.8125H42.2207V7.54492H43.9141V16H42.4492L38.5469 10.709H38.4414V16ZM51.4023 16L50.7637 13.9844H47.793L47.1426 16H45.3672L48.3027 7.54492H50.3828L53.3184 16H51.4023ZM49.2344 9.30273L48.1738 12.6191H50.3887L49.3398 9.30273H49.2344ZM56.5293 8.97461V11.5762H58.082C58.5273 11.5762 58.873 11.4629 59.1191 11.2363C59.3691 11.0059 59.4941 10.6875 59.4941 10.2812C59.4941 9.87891 59.3652 9.56055 59.1074 9.32617C58.8496 9.0918 58.502 8.97461 58.0645 8.97461H56.5293ZM56.5293 12.9355V16H54.7598V7.54492H58.3105C59.2402 7.54492 59.9727 7.78711 60.5078 8.27148C61.043 8.75586 61.3105 9.41797 61.3105 10.2578C61.3105 10.8047 61.1738 11.2949 60.9004 11.7285C60.6309 12.1582 60.2559 12.4688 59.7754 12.6602L61.5566 16H59.5527L57.9766 12.9355H56.5293Z" fill="white"/>
</svg>
