<svg width="338" height="50" viewBox="0 0 338 50" fill="none" xmlns="http://www.w3.org/2000/svg">
<path fill-rule="evenodd" clip-rule="evenodd" d="M124 17.706C125.907 15.4744 129.439 14.5644 132.299 16.5144C133.815 17.5544 134.769 19.3094 134.834 21.151C134.975 25.3544 131.259 28.7235 125.571 33.8802L125.452 33.9885C124.629 34.7469 123.361 34.7469 122.538 33.9994L122.43 33.9019L122.364 33.8424C116.713 28.7085 113.016 25.3491 113.167 21.1619C113.232 19.3094 114.185 17.5544 115.702 16.5144C118.562 14.5535 122.094 15.4744 124 17.706ZM124 32.396L124.109 32.2877C129.265 27.6185 132.667 24.531 132.667 21.4002C132.667 19.2335 131.042 17.6085 128.875 17.6085C127.207 17.6085 125.582 18.681 125.019 20.1652H122.993C122.419 18.681 120.794 17.6085 119.125 17.6085C116.959 17.6085 115.334 19.2335 115.334 21.4002C115.334 24.531 118.735 27.6185 123.892 32.2877L124 32.396Z" fill="#1B1B1B" fill-opacity="0.6"/>
<path d="M149.59 32H152.373L155.01 22.5078H155.166L157.832 32H160.596L164.336 17.9082H161.289L159.111 27.9766H158.955L156.338 17.9082H153.848L151.279 27.9766H151.123L148.926 17.9082H145.859L149.59 32ZM168.076 19.5977C168.955 19.5977 169.678 18.8945 169.678 18.0156C169.678 17.127 168.955 16.4238 168.076 16.4238C167.197 16.4238 166.465 17.127 166.465 18.0156C166.465 18.8945 167.197 19.5977 168.076 19.5977ZM166.641 32H169.492V21.248H166.641V32ZM176.641 32.2246C179.395 32.2246 181.357 30.8379 181.357 28.709V28.6992C181.357 27.1074 180.352 26.209 178.203 25.75L176.416 25.3691C175.303 25.125 174.902 24.793 174.902 24.2168V24.207C174.902 23.4844 175.605 23.0254 176.592 23.0254C177.656 23.0254 178.291 23.5625 178.447 24.1387L178.457 24.1875H181.104V24.1484C180.986 22.4199 179.424 21.0137 176.602 21.0137C173.916 21.0137 172.119 22.3613 172.119 24.3828V24.3926C172.119 26.0039 173.135 27.0098 175.186 27.4492L176.982 27.8301C178.076 28.0742 178.506 28.4355 178.506 29.0117V29.0312C178.506 29.7441 177.764 30.2129 176.67 30.2129C175.547 30.2129 174.893 29.7344 174.668 29.0703L174.648 29.0312H171.846L171.855 29.0703C172.061 30.916 173.721 32.2246 176.641 32.2246ZM183.789 32H186.641V25.7793C186.641 24.3242 187.441 23.377 188.76 23.377C190.107 23.377 190.732 24.1777 190.732 25.6914V32H193.584V25.0469C193.584 22.4785 192.295 21.0137 189.902 21.0137C188.369 21.0137 187.305 21.7461 186.816 22.9082H186.641V17.1367H183.789V32ZM196.445 32H199.297V17.1367H196.445V32ZM203.701 19.5977C204.58 19.5977 205.303 18.8945 205.303 18.0156C205.303 17.127 204.58 16.4238 203.701 16.4238C202.822 16.4238 202.09 17.127 202.09 18.0156C202.09 18.8945 202.822 19.5977 203.701 19.5977ZM202.266 32H205.117V21.248H202.266V32ZM212.266 32.2246C215.02 32.2246 216.982 30.8379 216.982 28.709V28.6992C216.982 27.1074 215.977 26.209 213.828 25.75L212.041 25.3691C210.928 25.125 210.527 24.793 210.527 24.2168V24.207C210.527 23.4844 211.23 23.0254 212.217 23.0254C213.281 23.0254 213.916 23.5625 214.072 24.1387L214.082 24.1875H216.729V24.1484C216.611 22.4199 215.049 21.0137 212.227 21.0137C209.541 21.0137 207.744 22.3613 207.744 24.3828V24.3926C207.744 26.0039 208.76 27.0098 210.811 27.4492L212.607 27.8301C213.701 28.0742 214.131 28.4355 214.131 29.0117V29.0312C214.131 29.7441 213.389 30.2129 212.295 30.2129C211.172 30.2129 210.518 29.7344 210.293 29.0703L210.273 29.0312H207.471L207.48 29.0703C207.686 30.916 209.346 32.2246 212.266 32.2246ZM223.721 32.0391C224.268 32.0391 224.795 31.9805 225.146 31.9121V29.793C224.873 29.8223 224.678 29.8418 224.307 29.8418C223.34 29.8418 222.93 29.4121 222.93 28.4453V23.3965H225.146V21.248H222.93V18.6797H220.049V21.248H218.389V23.3965H220.049V29.0996C220.049 31.1895 221.104 32.0391 223.721 32.0391Z" fill="#1B1B1B" fill-opacity="0.6"/>
<path d="M3 1H335V-1H3V1ZM337 3V47H339V3H337ZM335 49H3V51H335V49ZM1 47V3H-1V47H1ZM3 49C1.89543 49 1 48.1046 1 47H-1C-1 49.2091 0.790855 51 3 51V49ZM337 47C337 48.1046 336.105 49 335 49V51C337.209 51 339 49.2091 339 47H337ZM335 1C336.105 1 337 1.89543 337 3H339C339 0.790863 337.209 -1 335 -1V1ZM3 -1C0.790861 -1 -1 0.790861 -1 3H1C1 1.89543 1.89543 1 3 1V-1Z" fill="#1B1B1B" fill-opacity="0.6"/>
</svg>
